<svg width="203" height="49" viewBox="0 0 203 49" fill="none" xmlns="http://www.w3.org/2000/svg">
<path d="M58.704 13.832V15.64H55.728V25H53.488V15.64H50.512V13.832H58.704ZM61.4744 15.08C61.0797 15.08 60.749 14.9573 60.4824 14.712C60.2264 14.456 60.0984 14.1413 60.0984 13.768C60.0984 13.3947 60.2264 13.0853 60.4824 12.84C60.749 12.584 61.0797 12.456 61.4744 12.456C61.869 12.456 62.1944 12.584 62.4504 12.84C62.717 13.0853 62.8504 13.3947 62.8504 13.768C62.8504 14.1413 62.717 14.456 62.4504 14.712C62.1944 14.9573 61.869 15.08 61.4744 15.08ZM62.5784 16.136V25H60.3384V16.136H62.5784ZM64.2155 20.568C64.2155 19.6507 64.4022 18.8507 64.7755 18.168C65.1488 17.4747 65.6662 16.9413 66.3275 16.568C66.9888 16.184 67.7462 15.992 68.5995 15.992C69.6982 15.992 70.6048 16.2693 71.3195 16.824C72.0448 17.368 72.5302 18.136 72.7755 19.128H70.3595C70.2315 18.744 70.0128 18.4453 69.7035 18.232C69.4048 18.008 69.0315 17.896 68.5835 17.896C67.9435 17.896 67.4368 18.1307 67.0635 18.6C66.6902 19.0587 66.5035 19.7147 66.5035 20.568C66.5035 21.4107 66.6902 22.0667 67.0635 22.536C67.4368 22.9947 67.9435 23.224 68.5835 23.224C69.4902 23.224 70.0822 22.8187 70.3595 22.008H72.7755C72.5302 22.968 72.0448 23.7307 71.3195 24.296C70.5942 24.8613 69.6875 25.144 68.5995 25.144C67.7462 25.144 66.9888 24.9573 66.3275 24.584C65.6662 24.2 65.1488 23.6667 64.7755 22.984C64.4022 22.2907 64.2155 21.4853 64.2155 20.568ZM79.6645 25L76.6565 21.224V25H74.4165V13.16H76.6565V19.896L79.6325 16.136H82.5445L78.6405 20.584L82.5765 25H79.6645ZM92.0003 20.376C92.0003 20.696 91.9789 20.984 91.9363 21.24H85.4563C85.5096 21.88 85.7336 22.3813 86.1283 22.744C86.5229 23.1067 87.0083 23.288 87.5843 23.288C88.4163 23.288 89.0083 22.9307 89.3603 22.216H91.7763C91.5203 23.0693 91.0296 23.7733 90.3043 24.328C89.5789 24.872 88.6883 25.144 87.6323 25.144C86.7789 25.144 86.0109 24.9573 85.3283 24.584C84.6563 24.2 84.1283 23.6613 83.7443 22.968C83.3709 22.2747 83.1842 21.4747 83.1842 20.568C83.1842 19.6507 83.3709 18.8453 83.7443 18.152C84.1176 17.4587 84.6403 16.9253 85.3123 16.552C85.9843 16.1787 86.7576 15.992 87.6323 15.992C88.4749 15.992 89.2269 16.1733 89.8883 16.536C90.5603 16.8987 91.0776 17.416 91.4403 18.088C91.8136 18.7493 92.0003 19.512 92.0003 20.376ZM89.6803 19.736C89.6696 19.16 89.4616 18.7013 89.0563 18.36C88.6509 18.008 88.1549 17.832 87.5683 17.832C87.0136 17.832 86.5443 18.0027 86.1603 18.344C85.7869 18.6747 85.5576 19.1387 85.4723 19.736H89.6803ZM96.2433 17.976V22.264C96.2433 22.5627 96.3126 22.7813 96.4513 22.92C96.6006 23.048 96.8459 23.112 97.1873 23.112H98.2273V25H96.8193C94.9313 25 93.9873 24.0827 93.9873 22.248V17.976H92.9313V16.136H93.9873V13.944H96.2433V16.136H98.2273V17.976H96.2433ZM100.974 15.08C100.58 15.08 100.249 14.9573 99.9824 14.712C99.7264 14.456 99.5984 14.1413 99.5984 13.768C99.5984 13.3947 99.7264 13.0853 99.9824 12.84C100.249 12.584 100.58 12.456 100.974 12.456C101.369 12.456 101.694 12.584 101.95 12.84C102.217 13.0853 102.35 13.3947 102.35 13.768C102.35 14.1413 102.217 14.456 101.95 14.712C101.694 14.9573 101.369 15.08 100.974 15.08ZM102.078 16.136V25H99.8384V16.136H102.078ZM109.204 16.008C110.26 16.008 111.113 16.344 111.764 17.016C112.414 17.6773 112.74 18.6053 112.74 19.8V25H110.5V20.104C110.5 19.4 110.324 18.8613 109.972 18.488C109.62 18.104 109.14 17.912 108.532 17.912C107.913 17.912 107.422 18.104 107.06 18.488C106.708 18.8613 106.532 19.4 106.532 20.104V25H104.292V16.136H106.532V17.24C106.83 16.856 107.209 16.5573 107.668 16.344C108.137 16.12 108.649 16.008 109.204 16.008ZM118.342 15.992C119.003 15.992 119.584 16.1253 120.086 16.392C120.587 16.648 120.982 16.984 121.27 17.4V16.136H123.526V25.064C123.526 25.8853 123.36 26.616 123.03 27.256C122.699 27.9067 122.203 28.4187 121.542 28.792C120.88 29.176 120.08 29.368 119.142 29.368C117.883 29.368 116.848 29.0747 116.038 28.488C115.238 27.9013 114.784 27.1013 114.678 26.088H116.902C117.019 26.4933 117.27 26.8133 117.654 27.048C118.048 27.2933 118.523 27.416 119.078 27.416C119.728 27.416 120.256 27.2187 120.662 26.824C121.067 26.44 121.27 25.8533 121.27 25.064V23.688C120.982 24.104 120.582 24.4507 120.07 24.728C119.568 25.0053 118.992 25.144 118.342 25.144C117.595 25.144 116.912 24.952 116.294 24.568C115.675 24.184 115.184 23.6453 114.822 22.952C114.47 22.248 114.294 21.4427 114.294 20.536C114.294 19.64 114.47 18.8453 114.822 18.152C115.184 17.4587 115.67 16.9253 116.278 16.552C116.896 16.1787 117.584 15.992 118.342 15.992ZM121.27 20.568C121.27 20.024 121.163 19.56 120.95 19.176C120.736 18.7813 120.448 18.4827 120.086 18.28C119.723 18.0667 119.334 17.96 118.918 17.96C118.502 17.96 118.118 18.0613 117.766 18.264C117.414 18.4667 117.126 18.7653 116.902 19.16C116.688 19.544 116.582 20.0027 116.582 20.536C116.582 21.0693 116.688 21.5387 116.902 21.944C117.126 22.3387 117.414 22.6427 117.766 22.856C118.128 23.0693 118.512 23.176 118.918 23.176C119.334 23.176 119.723 23.0747 120.086 22.872C120.448 22.6587 120.736 22.36 120.95 21.976C121.163 21.5813 121.27 21.112 121.27 20.568ZM51.512 32.727V39H50.693V32.727H51.512ZM55.3108 33.978C55.9108 33.978 56.3968 34.161 56.7688 34.527C57.1408 34.887 57.3268 35.409 57.3268 36.093V39H56.5168V36.21C56.5168 35.718 56.3938 35.343 56.1478 35.085C55.9018 34.821 55.5658 34.689 55.1398 34.689C54.7078 34.689 54.3628 34.824 54.1048 35.094C53.8528 35.364 53.7268 35.757 53.7268 36.273V39H52.9078V34.068H53.7268V34.77C53.8888 34.518 54.1078 34.323 54.3838 34.185C54.6658 34.047 54.9748 33.978 55.3108 33.978ZM60.4107 39.081C60.0327 39.081 59.6937 39.018 59.3937 38.892C59.0937 38.76 58.8567 38.58 58.6827 38.352C58.5087 38.118 58.4127 37.851 58.3947 37.551H59.2407C59.2647 37.797 59.3787 37.998 59.5827 38.154C59.7927 38.31 60.0657 38.388 60.4017 38.388C60.7137 38.388 60.9597 38.319 61.1397 38.181C61.3197 38.043 61.4097 37.869 61.4097 37.659C61.4097 37.443 61.3137 37.284 61.1217 37.182C60.9297 37.074 60.6327 36.969 60.2307 36.867C59.8647 36.771 59.5647 36.675 59.3307 36.579C59.1027 36.477 58.9047 36.33 58.7367 36.138C58.5747 35.94 58.4937 35.682 58.4937 35.364C58.4937 35.112 58.5687 34.881 58.7187 34.671C58.8687 34.461 59.0817 34.296 59.3577 34.176C59.6337 34.05 59.9487 33.987 60.3027 33.987C60.8487 33.987 61.2897 34.125 61.6257 34.401C61.9617 34.677 62.1417 35.055 62.1657 35.535H61.3467C61.3287 35.277 61.2237 35.07 61.0317 34.914C60.8457 34.758 60.5937 34.68 60.2757 34.68C59.9817 34.68 59.7477 34.743 59.5737 34.869C59.3997 34.995 59.3127 35.16 59.3127 35.364C59.3127 35.526 59.3637 35.661 59.4657 35.769C59.5737 35.871 59.7057 35.955 59.8617 36.021C60.0237 36.081 60.2457 36.15 60.5277 36.228C60.8817 36.324 61.1697 36.42 61.3917 36.516C61.6137 36.606 61.8027 36.744 61.9587 36.93C62.1207 37.116 62.2047 37.359 62.2107 37.659C62.2107 37.929 62.1357 38.172 61.9857 38.388C61.8357 38.604 61.6227 38.775 61.3467 38.901C61.0767 39.021 60.7647 39.081 60.4107 39.081ZM64.3658 34.743V37.65C64.3658 37.89 64.4168 38.061 64.5188 38.163C64.6208 38.259 64.7978 38.307 65.0498 38.307H65.6528V39H64.9148C64.4588 39 64.1168 38.895 63.8888 38.685C63.6608 38.475 63.5468 38.13 63.5468 37.65V34.743H62.9078V34.068H63.5468V32.826H64.3658V34.068H65.6528V34.743H64.3658ZM67.0681 33.267C66.9121 33.267 66.7801 33.213 66.6721 33.105C66.5641 32.997 66.5101 32.865 66.5101 32.709C66.5101 32.553 66.5641 32.421 66.6721 32.313C66.7801 32.205 66.9121 32.151 67.0681 32.151C67.2181 32.151 67.3441 32.205 67.4461 32.313C67.5541 32.421 67.6081 32.553 67.6081 32.709C67.6081 32.865 67.5541 32.997 67.4461 33.105C67.3441 33.213 67.2181 33.267 67.0681 33.267ZM67.4641 34.068V39H66.6451V34.068H67.4641ZM69.859 34.743V37.65C69.859 37.89 69.91 38.061 70.012 38.163C70.114 38.259 70.291 38.307 70.543 38.307H71.146V39H70.408C69.952 39 69.61 38.895 69.382 38.685C69.154 38.475 69.04 38.13 69.04 37.65V34.743H68.401V34.068H69.04V32.826H69.859V34.068H71.146V34.743H69.859ZM76.5123 34.068V39H75.6933V38.271C75.5373 38.523 75.3183 38.721 75.0363 38.865C74.7603 39.003 74.4543 39.072 74.1183 39.072C73.7343 39.072 73.3893 38.994 73.0833 38.838C72.7773 38.676 72.5343 38.436 72.3543 38.118C72.1803 37.8 72.0933 37.413 72.0933 36.957V34.068H72.9033V36.849C72.9033 37.335 73.0263 37.71 73.2723 37.974C73.5183 38.232 73.8543 38.361 74.2803 38.361C74.7183 38.361 75.0633 38.226 75.3153 37.956C75.5673 37.686 75.6933 37.293 75.6933 36.777V34.068H76.5123ZM78.8941 34.743V37.65C78.8941 37.89 78.9451 38.061 79.0471 38.163C79.1491 38.259 79.3261 38.307 79.5781 38.307H80.1811V39H79.4431C78.9871 39 78.6451 38.895 78.4171 38.685C78.1891 38.475 78.0751 38.13 78.0751 37.65V34.743H77.4361V34.068H78.0751V32.826H78.8941V34.068H80.1811V34.743H78.8941ZM85.5619 39.063C85.1479 39.063 84.7759 38.991 84.4459 38.847C84.1219 38.697 83.8669 38.493 83.6809 38.235C83.4949 37.971 83.3989 37.668 83.3929 37.326H84.2659C84.2959 37.62 84.4159 37.869 84.6259 38.073C84.8419 38.271 85.1539 38.37 85.5619 38.37C85.9519 38.37 86.2579 38.274 86.4799 38.082C86.7079 37.884 86.8219 37.632 86.8219 37.326C86.8219 37.086 86.7559 36.891 86.6239 36.741C86.4919 36.591 86.3269 36.477 86.1289 36.399C85.9309 36.321 85.6639 36.237 85.3279 36.147C84.9139 36.039 84.5809 35.931 84.3289 35.823C84.0829 35.715 83.8699 35.547 83.6899 35.319C83.5159 35.085 83.4289 34.773 83.4289 34.383C83.4289 34.041 83.5159 33.738 83.6899 33.474C83.8639 33.21 84.1069 33.006 84.4189 32.862C84.7369 32.718 85.0999 32.646 85.5079 32.646C86.0959 32.646 86.5759 32.793 86.9479 33.087C87.3259 33.381 87.5389 33.771 87.5869 34.257H86.6869C86.6569 34.017 86.5309 33.807 86.3089 33.627C86.0869 33.441 85.7929 33.348 85.4269 33.348C85.0849 33.348 84.8059 33.438 84.5899 33.618C84.3739 33.792 84.2659 34.038 84.2659 34.356C84.2659 34.584 84.3289 34.77 84.4549 34.914C84.5869 35.058 84.7459 35.169 84.9319 35.247C85.1239 35.319 85.3909 35.403 85.7329 35.499C86.1469 35.613 86.4799 35.727 86.7319 35.841C86.9839 35.949 87.1999 36.12 87.3799 36.354C87.5599 36.582 87.6499 36.894 87.6499 37.29C87.6499 37.596 87.5689 37.884 87.4069 38.154C87.2449 38.424 87.0049 38.643 86.6869 38.811C86.3689 38.979 85.9939 39.063 85.5619 39.063ZM93.3551 36.345C93.3551 36.501 93.3461 36.666 93.3281 36.84H89.3861C89.4161 37.326 89.5811 37.707 89.8811 37.983C90.1871 38.253 90.5561 38.388 90.9881 38.388C91.3421 38.388 91.6361 38.307 91.8701 38.145C92.1101 37.977 92.2781 37.755 92.3741 37.479H93.2561C93.1241 37.953 92.8601 38.34 92.4641 38.64C92.0681 38.934 91.5761 39.081 90.9881 39.081C90.5201 39.081 90.1001 38.976 89.7281 38.766C89.3621 38.556 89.0741 38.259 88.8641 37.875C88.6541 37.485 88.5491 37.035 88.5491 36.525C88.5491 36.015 88.6511 35.568 88.8551 35.184C89.0591 34.8 89.3441 34.506 89.7101 34.302C90.0821 34.092 90.5081 33.987 90.9881 33.987C91.4561 33.987 91.8701 34.089 92.2301 34.293C92.5901 34.497 92.8661 34.779 93.0581 35.139C93.2561 35.493 93.3551 35.895 93.3551 36.345ZM92.5091 36.174C92.5091 35.862 92.4401 35.595 92.3021 35.373C92.1641 35.145 91.9751 34.974 91.7351 34.86C91.5011 34.74 91.2401 34.68 90.9521 34.68C90.5381 34.68 90.1841 34.812 89.8901 35.076C89.6021 35.34 89.4371 35.706 89.3951 36.174H92.5091ZM96.8392 33.978C97.4392 33.978 97.9252 34.161 98.2972 34.527C98.6692 34.887 98.8552 35.409 98.8552 36.093V39H98.0452V36.21C98.0452 35.718 97.9222 35.343 97.6762 35.085C97.4302 34.821 97.0942 34.689 96.6682 34.689C96.2362 34.689 95.8912 34.824 95.6332 35.094C95.3812 35.364 95.2552 35.757 95.2552 36.273V39H94.4362V34.068H95.2552V34.77C95.4172 34.518 95.6362 34.323 95.9122 34.185C96.1942 34.047 96.5032 33.978 96.8392 33.978ZM100.616 33.267C100.46 33.267 100.328 33.213 100.22 33.105C100.112 32.997 100.058 32.865 100.058 32.709C100.058 32.553 100.112 32.421 100.22 32.313C100.328 32.205 100.46 32.151 100.616 32.151C100.766 32.151 100.892 32.205 100.994 32.313C101.102 32.421 101.156 32.553 101.156 32.709C101.156 32.865 101.102 32.997 100.994 33.105C100.892 33.213 100.766 33.267 100.616 33.267ZM101.012 34.068V39H100.193V34.068H101.012ZM105.626 32.727V39H104.807V32.727H105.626ZM109.425 33.978C110.025 33.978 110.511 34.161 110.883 34.527C111.255 34.887 111.441 35.409 111.441 36.093V39H110.631V36.21C110.631 35.718 110.508 35.343 110.262 35.085C110.016 34.821 109.68 34.689 109.254 34.689C108.822 34.689 108.477 34.824 108.219 35.094C107.967 35.364 107.841 35.757 107.841 36.273V39H107.022V34.068H107.841V34.77C108.003 34.518 108.222 34.323 108.498 34.185C108.78 34.047 109.089 33.978 109.425 33.978ZM112.473 36.516C112.473 36.012 112.575 35.571 112.779 35.193C112.983 34.809 113.262 34.512 113.616 34.302C113.976 34.092 114.378 33.987 114.822 33.987C115.206 33.987 115.563 34.077 115.893 34.257C116.223 34.431 116.475 34.662 116.649 34.95V32.34H117.477V39H116.649V38.073C116.487 38.367 116.247 38.61 115.929 38.802C115.611 38.988 115.239 39.081 114.813 39.081C114.375 39.081 113.976 38.973 113.616 38.757C113.262 38.541 112.983 38.238 112.779 37.848C112.575 37.458 112.473 37.014 112.473 36.516ZM116.649 36.525C116.649 36.153 116.574 35.829 116.424 35.553C116.274 35.277 116.07 35.067 115.812 34.923C115.56 34.773 115.281 34.698 114.975 34.698C114.669 34.698 114.39 34.77 114.138 34.914C113.886 35.058 113.685 35.268 113.535 35.544C113.385 35.82 113.31 36.144 113.31 36.516C113.31 36.894 113.385 37.224 113.535 37.506C113.685 37.782 113.886 37.995 114.138 38.145C114.39 38.289 114.669 38.361 114.975 38.361C115.281 38.361 115.56 38.289 115.812 38.145C116.07 37.995 116.274 37.782 116.424 37.506C116.574 37.224 116.649 36.897 116.649 36.525ZM121.012 39.081C120.55 39.081 120.13 38.976 119.752 38.766C119.38 38.556 119.086 38.259 118.87 37.875C118.66 37.485 118.555 37.035 118.555 36.525C118.555 36.021 118.663 35.577 118.879 35.193C119.101 34.803 119.401 34.506 119.779 34.302C120.157 34.092 120.58 33.987 121.048 33.987C121.516 33.987 121.939 34.092 122.317 34.302C122.695 34.506 122.992 34.8 123.208 35.184C123.43 35.568 123.541 36.015 123.541 36.525C123.541 37.035 123.427 37.485 123.199 37.875C122.977 38.259 122.674 38.556 122.29 38.766C121.906 38.976 121.48 39.081 121.012 39.081ZM121.012 38.361C121.306 38.361 121.582 38.292 121.84 38.154C122.098 38.016 122.305 37.809 122.461 37.533C122.623 37.257 122.704 36.921 122.704 36.525C122.704 36.129 122.626 35.793 122.47 35.517C122.314 35.241 122.11 35.037 121.858 34.905C121.606 34.767 121.333 34.698 121.039 34.698C120.739 34.698 120.463 34.767 120.211 34.905C119.965 35.037 119.767 35.241 119.617 35.517C119.467 35.793 119.392 36.129 119.392 36.525C119.392 36.927 119.464 37.266 119.608 37.542C119.758 37.818 119.956 38.025 120.202 38.163C120.448 38.295 120.718 38.361 121.012 38.361ZM127.021 33.978C127.621 33.978 128.107 34.161 128.479 34.527C128.851 34.887 129.037 35.409 129.037 36.093V39H128.227V36.21C128.227 35.718 128.104 35.343 127.858 35.085C127.612 34.821 127.276 34.689 126.85 34.689C126.418 34.689 126.073 34.824 125.815 35.094C125.563 35.364 125.437 35.757 125.437 36.273V39H124.618V34.068H125.437V34.77C125.599 34.518 125.818 34.323 126.094 34.185C126.376 34.047 126.685 33.978 127.021 33.978ZM134.875 36.345C134.875 36.501 134.866 36.666 134.848 36.84H130.906C130.936 37.326 131.101 37.707 131.401 37.983C131.707 38.253 132.076 38.388 132.508 38.388C132.862 38.388 133.156 38.307 133.39 38.145C133.63 37.977 133.798 37.755 133.894 37.479H134.776C134.644 37.953 134.38 38.34 133.984 38.64C133.588 38.934 133.096 39.081 132.508 39.081C132.04 39.081 131.62 38.976 131.248 38.766C130.882 38.556 130.594 38.259 130.384 37.875C130.174 37.485 130.069 37.035 130.069 36.525C130.069 36.015 130.171 35.568 130.375 35.184C130.579 34.8 130.864 34.506 131.23 34.302C131.602 34.092 132.028 33.987 132.508 33.987C132.976 33.987 133.39 34.089 133.75 34.293C134.11 34.497 134.386 34.779 134.578 35.139C134.776 35.493 134.875 35.895 134.875 36.345ZM134.029 36.174C134.029 35.862 133.96 35.595 133.822 35.373C133.684 35.145 133.495 34.974 133.255 34.86C133.021 34.74 132.76 34.68 132.472 34.68C132.058 34.68 131.704 34.812 131.41 35.076C131.122 35.34 130.957 35.706 130.915 36.174H134.029ZM137.702 39.081C137.324 39.081 136.985 39.018 136.685 38.892C136.385 38.76 136.148 38.58 135.974 38.352C135.8 38.118 135.704 37.851 135.686 37.551H136.532C136.556 37.797 136.67 37.998 136.874 38.154C137.084 38.31 137.357 38.388 137.693 38.388C138.005 38.388 138.251 38.319 138.431 38.181C138.611 38.043 138.701 37.869 138.701 37.659C138.701 37.443 138.605 37.284 138.413 37.182C138.221 37.074 137.924 36.969 137.522 36.867C137.156 36.771 136.856 36.675 136.622 36.579C136.394 36.477 136.196 36.33 136.028 36.138C135.866 35.94 135.785 35.682 135.785 35.364C135.785 35.112 135.86 34.881 136.01 34.671C136.16 34.461 136.373 34.296 136.649 34.176C136.925 34.05 137.24 33.987 137.594 33.987C138.14 33.987 138.581 34.125 138.917 34.401C139.253 34.677 139.433 35.055 139.457 35.535H138.638C138.62 35.277 138.515 35.07 138.323 34.914C138.137 34.758 137.885 34.68 137.567 34.68C137.273 34.68 137.039 34.743 136.865 34.869C136.691 34.995 136.604 35.16 136.604 35.364C136.604 35.526 136.655 35.661 136.757 35.769C136.865 35.871 136.997 35.955 137.153 36.021C137.315 36.081 137.537 36.15 137.819 36.228C138.173 36.324 138.461 36.42 138.683 36.516C138.905 36.606 139.094 36.744 139.25 36.93C139.412 37.116 139.496 37.359 139.502 37.659C139.502 37.929 139.427 38.172 139.277 38.388C139.127 38.604 138.914 38.775 138.638 38.901C138.368 39.021 138.056 39.081 137.702 39.081ZM141.081 33.267C140.925 33.267 140.793 33.213 140.685 33.105C140.577 32.997 140.523 32.865 140.523 32.709C140.523 32.553 140.577 32.421 140.685 32.313C140.793 32.205 140.925 32.151 141.081 32.151C141.231 32.151 141.357 32.205 141.459 32.313C141.567 32.421 141.621 32.553 141.621 32.709C141.621 32.865 141.567 32.997 141.459 33.105C141.357 33.213 141.231 33.267 141.081 33.267ZM141.477 34.068V39H140.658V34.068H141.477ZM142.567 36.516C142.567 36.012 142.669 35.571 142.873 35.193C143.077 34.809 143.356 34.512 143.71 34.302C144.07 34.092 144.469 33.987 144.907 33.987C145.339 33.987 145.714 34.08 146.032 34.266C146.35 34.452 146.587 34.686 146.743 34.968V34.068H147.571V39H146.743V38.082C146.581 38.37 146.338 38.61 146.014 38.802C145.696 38.988 145.324 39.081 144.898 39.081C144.46 39.081 144.064 38.973 143.71 38.757C143.356 38.541 143.077 38.238 142.873 37.848C142.669 37.458 142.567 37.014 142.567 36.516ZM146.743 36.525C146.743 36.153 146.668 35.829 146.518 35.553C146.368 35.277 146.164 35.067 145.906 34.923C145.654 34.773 145.375 34.698 145.069 34.698C144.763 34.698 144.484 34.77 144.232 34.914C143.98 35.058 143.779 35.268 143.629 35.544C143.479 35.82 143.404 36.144 143.404 36.516C143.404 36.894 143.479 37.224 143.629 37.506C143.779 37.782 143.98 37.995 144.232 38.145C144.484 38.289 144.763 38.361 145.069 38.361C145.375 38.361 145.654 38.289 145.906 38.145C146.164 37.995 146.368 37.782 146.518 37.506C146.668 37.224 146.743 36.897 146.743 36.525ZM155.746 32.727L153.703 36.633V39H152.884V36.633L150.832 32.727H151.741L153.289 35.904L154.837 32.727H155.746ZM158.761 39.081C158.299 39.081 157.879 38.976 157.501 38.766C157.129 38.556 156.835 38.259 156.619 37.875C156.409 37.485 156.304 37.035 156.304 36.525C156.304 36.021 156.412 35.577 156.628 35.193C156.85 34.803 157.15 34.506 157.528 34.302C157.906 34.092 158.329 33.987 158.797 33.987C159.265 33.987 159.688 34.092 160.066 34.302C160.444 34.506 160.741 34.8 160.957 35.184C161.179 35.568 161.29 36.015 161.29 36.525C161.29 37.035 161.176 37.485 160.948 37.875C160.726 38.259 160.423 38.556 160.039 38.766C159.655 38.976 159.229 39.081 158.761 39.081ZM158.761 38.361C159.055 38.361 159.331 38.292 159.589 38.154C159.847 38.016 160.054 37.809 160.21 37.533C160.372 37.257 160.453 36.921 160.453 36.525C160.453 36.129 160.375 35.793 160.219 35.517C160.063 35.241 159.859 35.037 159.607 34.905C159.355 34.767 159.082 34.698 158.788 34.698C158.488 34.698 158.212 34.767 157.96 34.905C157.714 35.037 157.516 35.241 157.366 35.517C157.216 35.793 157.141 36.129 157.141 36.525C157.141 36.927 157.213 37.266 157.357 37.542C157.507 37.818 157.705 38.025 157.951 38.163C158.197 38.295 158.467 38.361 158.761 38.361ZM164.401 33.987C164.827 33.987 165.199 34.08 165.517 34.266C165.841 34.452 166.081 34.686 166.237 34.968V34.068H167.065V39.108C167.065 39.558 166.969 39.957 166.777 40.305C166.585 40.659 166.309 40.935 165.949 41.133C165.595 41.331 165.181 41.43 164.707 41.43C164.059 41.43 163.519 41.277 163.087 40.971C162.655 40.665 162.4 40.248 162.322 39.72H163.132C163.222 40.02 163.408 40.26 163.69 40.44C163.972 40.626 164.311 40.719 164.707 40.719C165.157 40.719 165.523 40.578 165.805 40.296C166.093 40.014 166.237 39.618 166.237 39.108V38.073C166.075 38.361 165.835 38.601 165.517 38.793C165.199 38.985 164.827 39.081 164.401 39.081C163.963 39.081 163.564 38.973 163.204 38.757C162.85 38.541 162.571 38.238 162.367 37.848C162.163 37.458 162.061 37.014 162.061 36.516C162.061 36.012 162.163 35.571 162.367 35.193C162.571 34.809 162.85 34.512 163.204 34.302C163.564 34.092 163.963 33.987 164.401 33.987ZM166.237 36.525C166.237 36.153 166.162 35.829 166.012 35.553C165.862 35.277 165.658 35.067 165.4 34.923C165.148 34.773 164.869 34.698 164.563 34.698C164.257 34.698 163.978 34.77 163.726 34.914C163.474 35.058 163.273 35.268 163.123 35.544C162.973 35.82 162.898 36.144 162.898 36.516C162.898 36.894 162.973 37.224 163.123 37.506C163.273 37.782 163.474 37.995 163.726 38.145C163.978 38.289 164.257 38.361 164.563 38.361C164.869 38.361 165.148 38.289 165.4 38.145C165.658 37.995 165.862 37.782 166.012 37.506C166.162 37.224 166.237 36.897 166.237 36.525ZM172.697 34.068L169.727 41.322H168.881L169.853 38.946L167.864 34.068H168.773L170.321 38.064L171.851 34.068H172.697ZM173.214 36.516C173.214 36.012 173.316 35.571 173.52 35.193C173.724 34.809 174.003 34.512 174.357 34.302C174.717 34.092 175.116 33.987 175.554 33.987C175.986 33.987 176.361 34.08 176.679 34.266C176.997 34.452 177.234 34.686 177.39 34.968V34.068H178.218V39H177.39V38.082C177.228 38.37 176.985 38.61 176.661 38.802C176.343 38.988 175.971 39.081 175.545 39.081C175.107 39.081 174.711 38.973 174.357 38.757C174.003 38.541 173.724 38.238 173.52 37.848C173.316 37.458 173.214 37.014 173.214 36.516ZM177.39 36.525C177.39 36.153 177.315 35.829 177.165 35.553C177.015 35.277 176.811 35.067 176.553 34.923C176.301 34.773 176.022 34.698 175.716 34.698C175.41 34.698 175.131 34.77 174.879 34.914C174.627 35.058 174.426 35.268 174.276 35.544C174.126 35.82 174.051 36.144 174.051 36.516C174.051 36.894 174.126 37.224 174.276 37.506C174.426 37.782 174.627 37.995 174.879 38.145C175.131 38.289 175.41 38.361 175.716 38.361C176.022 38.361 176.301 38.289 176.553 38.145C176.811 37.995 177.015 37.782 177.165 37.506C177.315 37.224 177.39 36.897 177.39 36.525ZM182.356 39L180.421 36.822V39H179.602V32.34H180.421V36.255L182.32 34.068H183.463L181.141 36.525L183.472 39H182.356ZM183.928 36.516C183.928 36.012 184.03 35.571 184.234 35.193C184.438 34.809 184.717 34.512 185.071 34.302C185.431 34.092 185.83 33.987 186.268 33.987C186.7 33.987 187.075 34.08 187.393 34.266C187.711 34.452 187.948 34.686 188.104 34.968V34.068H188.932V39H188.104V38.082C187.942 38.37 187.699 38.61 187.375 38.802C187.057 38.988 186.685 39.081 186.259 39.081C185.821 39.081 185.425 38.973 185.071 38.757C184.717 38.541 184.438 38.238 184.234 37.848C184.03 37.458 183.928 37.014 183.928 36.516ZM188.104 36.525C188.104 36.153 188.029 35.829 187.879 35.553C187.729 35.277 187.525 35.067 187.267 34.923C187.015 34.773 186.736 34.698 186.43 34.698C186.124 34.698 185.845 34.77 185.593 34.914C185.341 35.058 185.14 35.268 184.99 35.544C184.84 35.82 184.765 36.144 184.765 36.516C184.765 36.894 184.84 37.224 184.99 37.506C185.14 37.782 185.341 37.995 185.593 38.145C185.845 38.289 186.124 38.361 186.43 38.361C186.736 38.361 187.015 38.289 187.267 38.145C187.525 37.995 187.729 37.782 187.879 37.506C188.029 37.224 188.104 36.897 188.104 36.525ZM191.135 34.869C191.279 34.587 191.483 34.368 191.747 34.212C192.017 34.056 192.344 33.978 192.728 33.978V34.824H192.512C191.594 34.824 191.135 35.322 191.135 36.318V39H190.316V34.068H191.135V34.869ZM194.672 34.743V37.65C194.672 37.89 194.723 38.061 194.825 38.163C194.927 38.259 195.104 38.307 195.356 38.307H195.959V39H195.221C194.765 39 194.423 38.895 194.195 38.685C193.967 38.475 193.853 38.13 193.853 37.65V34.743H193.214V34.068H193.853V32.826H194.672V34.068H195.959V34.743H194.672ZM196.646 36.516C196.646 36.012 196.748 35.571 196.952 35.193C197.156 34.809 197.435 34.512 197.789 34.302C198.149 34.092 198.548 33.987 198.986 33.987C199.418 33.987 199.793 34.08 200.111 34.266C200.429 34.452 200.666 34.686 200.822 34.968V34.068H201.65V39H200.822V38.082C200.66 38.37 200.417 38.61 200.093 38.802C199.775 38.988 199.403 39.081 198.977 39.081C198.539 39.081 198.143 38.973 197.789 38.757C197.435 38.541 197.156 38.238 196.952 37.848C196.748 37.458 196.646 37.014 196.646 36.516ZM200.822 36.525C200.822 36.153 200.747 35.829 200.597 35.553C200.447 35.277 200.243 35.067 199.985 34.923C199.733 34.773 199.454 34.698 199.148 34.698C198.842 34.698 198.563 34.77 198.311 34.914C198.059 35.058 197.858 35.268 197.708 35.544C197.558 35.82 197.483 36.144 197.483 36.516C197.483 36.894 197.558 37.224 197.708 37.506C197.858 37.782 198.059 37.995 198.311 38.145C198.563 38.289 198.842 38.361 199.148 38.361C199.454 38.361 199.733 38.289 199.985 38.145C200.243 37.995 200.447 37.782 200.597 37.506C200.747 37.224 200.822 36.897 200.822 36.525Z" fill="black"/>
<g clip-path="url(#clip0_2018_2)">
<path d="M23.4095 0.0943469C23.067 0.966051 22.4943 1.88493 21.9077 2.50025C21.3626 3.07045 21.0162 3.28376 19.9868 3.68166C18.4575 4.27237 17.8376 4.62516 17.251 5.23842C17.007 5.49276 16.8279 5.74299 16.7 6.00963C16.6212 6.17166 16.5071 6.50598 16.4756 6.67007L16.452 6.78493L16.2315 6.67417C15.9717 6.54495 15.6096 6.41779 15.338 6.36036C14.7515 6.23729 14.0961 6.24755 13.5214 6.39112C13.049 6.50804 12.8325 6.59418 12.1633 6.93261C11.5571 7.24027 11.3505 7.32641 10.9647 7.43717C9.73262 7.792 8.40017 7.68535 7.06575 7.12336C6.9201 7.06182 6.78823 7.00645 6.77446 7.00029C6.75674 6.99209 6.75084 7.03721 6.75084 7.18284C6.75084 7.66689 6.60323 8.37246 6.38673 8.92419C6.1348 9.56823 5.83367 10.0584 5.38296 10.563C4.23945 11.8429 3.50335 13.494 3.2593 15.3317C3.19632 15.8076 3.1786 16.0865 3.18057 16.6854C3.18057 17.3336 3.20025 17.6535 3.27898 18.275C3.49548 19.9712 4.10365 21.727 5.03262 23.3288C5.1704 23.5647 5.17236 23.5729 5.09757 23.4847C4.24535 22.5043 3.49745 21.085 3.08807 19.6759C2.69246 18.3058 2.54092 17.0956 2.56453 15.4548C2.57634 14.6877 2.59406 14.3759 2.66885 13.6847C2.68656 13.5227 2.6964 13.3873 2.6905 13.3812C2.68656 13.375 2.60586 13.4981 2.51336 13.654C1.72806 14.981 1.10808 16.9541 0.917171 18.7365C0.856158 19.3108 0.840412 19.6861 0.852221 20.3856C0.865999 21.2696 0.925044 21.8582 1.08447 22.6643C1.62375 25.4004 3.08413 27.9889 5.37115 30.2615C5.54041 30.4276 5.68803 30.5753 5.69787 30.5855C5.73723 30.6265 5.45184 30.446 5.15071 30.2409C3.37739 29.0288 1.95637 27.2505 1.01558 25.0579C0.686895 24.2928 0.472364 23.6591 0.20666 22.654C0.13187 22.3751 0.100379 22.2787 0.0925063 22.3156C0.0846336 22.3443 0.0649518 22.5515 0.0472383 22.7751C0.00787477 23.2796 0.0177156 24.5205 0.06692 25.0846C0.188947 26.4629 0.417255 27.6504 0.791208 28.838C1.66705 31.6234 3.22584 33.8262 5.40461 35.3625C5.83564 35.664 6.28832 35.9388 6.80004 36.2013C7.73689 36.6854 8.58715 37.0095 9.71294 37.313L10.1656 37.434L9.83103 37.4238C7.64045 37.3479 5.40461 36.3326 3.50335 34.5482C2.67672 33.7729 2.05674 33.0489 1.29112 31.97C1.14154 31.7587 1.01558 31.5885 1.01164 31.5926C0.999835 31.6049 1.13957 32.2325 1.20846 32.4787C1.43677 33.297 1.74184 34.0785 2.16303 34.9399C2.78891 36.2219 3.53091 37.3028 4.45792 38.2914C6.37689 40.3363 8.84104 41.5546 11.75 41.891C12.3464 41.9607 12.6239 41.9751 13.4544 41.9751C14.3933 41.9751 14.3519 41.9648 13.9937 42.1023C13.5922 42.254 12.9683 42.3956 12.4093 42.4612C12.0964 42.4961 11.0907 42.4961 10.7659 42.4612C9.12249 42.2787 7.62471 41.7044 6.08756 40.6686C5.92224 40.5578 5.7825 40.4676 5.77856 40.4676C5.76085 40.4676 6.03246 40.9762 6.13874 41.1403C6.51466 41.7249 7.07165 42.3525 7.68375 42.8837C9.35867 44.3379 11.5768 45.265 14.1217 45.5747C14.8577 45.6629 15.2652 45.6855 16.1882 45.6855C17.0129 45.6834 17.4164 45.667 18.0875 45.6034L18.2155 45.5911L18.2607 45.6855C18.4005 45.989 18.7232 46.4833 19.0047 46.8238C20.4297 48.5549 22.632 49.3343 24.7655 48.8646C25.3245 48.7416 25.9307 48.5078 26.4227 48.2268C27.4147 47.6607 28.2492 46.8177 28.8042 45.8209C28.8967 45.6568 28.9341 45.6075 28.9637 45.6096C29.6505 45.6916 31.3648 45.7121 32.1206 45.6506C33.9569 45.4968 35.4468 45.1235 36.8777 44.4589C38.5073 43.7021 39.9933 42.4694 40.8377 41.1752C40.9577 40.9906 41.2411 40.4676 41.2214 40.4676C41.2175 40.4676 41.0778 40.5578 40.9124 40.6686C39.3773 41.7044 37.8755 42.2787 36.2341 42.4612C35.9093 42.4961 34.9036 42.4961 34.5907 42.4612C34.0317 42.3956 33.4078 42.254 33.0063 42.1023C32.6402 41.9628 32.6205 41.971 33.2956 41.9813C36.1219 42.0264 38.5624 41.3454 40.6231 39.9384C42.7232 38.5067 44.4 36.2916 45.4176 33.6088C45.5475 33.2663 45.7168 32.7556 45.7994 32.452C45.8624 32.2243 45.9982 31.6028 45.9884 31.5926C45.9864 31.5885 45.8191 31.8141 45.6183 32.0931C45.0476 32.8889 44.5969 33.4365 44.0084 34.0457C42.4811 35.627 40.7333 36.7018 38.9226 37.1653C38.3322 37.3171 37.7437 37.4033 37.169 37.4238L36.8344 37.434L37.2871 37.313C38.403 37.0136 39.2552 36.6895 40.1803 36.2116C41.8591 35.3481 43.227 34.1769 44.3233 32.6633C45.8565 30.5445 46.7678 27.7817 46.9606 24.6641C47.0039 23.9667 46.9705 22.5412 46.9055 22.3218C46.8957 22.289 46.8563 22.4141 46.7658 22.7525C45.9588 25.8188 44.5004 28.1858 42.4004 29.8389C42.0678 30.0994 41.19 30.6942 41.312 30.5753C43.1148 28.8134 44.3174 27.1274 45.1204 25.2384C45.9923 23.1853 46.317 20.9968 46.0848 18.757C45.8959 16.948 45.268 14.9605 44.4571 13.6027C44.3804 13.4755 44.3134 13.375 44.3095 13.3812C44.3036 13.3853 44.3194 13.5678 44.341 13.7873C44.4138 14.4949 44.4256 14.6836 44.4355 15.4589C44.4512 16.5213 44.404 17.2413 44.2642 18.1048C44.0714 19.2944 43.7722 20.2789 43.29 21.3003C42.9082 22.1085 42.546 22.693 42.0363 23.3206C41.8119 23.5975 41.5304 23.9072 41.5718 23.8334C41.5875 23.8047 41.7076 23.5975 41.8375 23.3719C42.8649 21.5936 43.4494 19.8625 43.6541 17.994C43.8234 16.4455 43.6915 14.9789 43.2644 13.6601C43.1188 13.2109 43.0145 12.9504 42.8058 12.5115C42.4378 11.7403 42.052 11.1599 41.5049 10.5507C40.7117 9.66873 40.2472 8.555 40.1449 7.28744L40.1212 6.99619L39.9835 7.05977C38.6097 7.67509 37.1946 7.80636 35.9192 7.43512C35.5255 7.32026 35.2638 7.2095 34.7678 6.94902C33.827 6.45471 33.1952 6.27627 32.3962 6.27627C31.7506 6.27627 31.1621 6.41779 30.6209 6.69879L30.4477 6.78903L30.4358 6.73365C30.2174 5.70197 29.5876 4.95333 28.4204 4.34006C28.015 4.1247 27.7591 4.01394 27.0073 3.72063C26.0606 3.35144 25.913 3.2776 25.541 3.00071C24.8994 2.51666 24.2361 1.66136 23.7539 0.687105C23.6712 0.518918 23.5728 0.305607 23.5374 0.21536C23.502 0.125113 23.4665 0.0430702 23.4587 0.0328148C23.4488 0.0225595 23.4272 0.0492234 23.4095 0.0943469ZM23.5571 0.818374C24.0826 1.90954 24.9053 2.89611 25.7103 3.40272C25.9012 3.52373 26.1885 3.655 26.6294 3.82524C27.2927 4.08162 27.5151 4.17187 27.7572 4.27853C29.3514 4.98409 30.1052 5.81683 30.2489 7.03106C30.2587 7.11515 30.2725 7.18694 30.2764 7.19309C30.2823 7.19719 30.3394 7.16028 30.4044 7.11105C30.6602 6.91415 31.0657 6.7316 31.475 6.627C31.8254 6.53675 32.0065 6.51624 32.406 6.51624C32.8055 6.51624 33.0456 6.54906 33.4472 6.65366C33.8191 6.75211 34.0396 6.84236 34.571 7.1172C35.0886 7.38384 35.309 7.48024 35.6889 7.60741C36.1947 7.7756 36.6612 7.85354 37.2398 7.86994C38.0133 7.89046 38.6451 7.792 39.4284 7.52742C39.5879 7.47409 39.7158 7.43512 39.7138 7.44332C39.5013 7.85354 39.3222 8.48732 39.267 9.0288C39.2395 9.28313 39.2395 9.82051 39.2651 10.0933C39.3458 10.9137 39.5957 11.8059 39.9598 12.5628C40.4598 13.6027 40.6546 14.6282 40.6152 16.0188C40.5601 18.1068 40.009 19.8256 38.9147 21.3414C38.2003 22.33 37.0745 23.3596 36.0668 23.9462C34.4371 24.8959 33.2543 26.1675 32.5123 27.7612C31.7545 29.3918 31.5616 31.1803 31.9139 33.3401C32.0025 33.8754 32.0301 34.2569 32.0163 34.7041C31.973 35.9839 31.6325 37.0197 30.9928 37.8155C30.5224 38.398 29.6584 39.0011 28.9322 39.2533C28.4637 39.4133 28.0622 39.4728 27.5446 39.4564C27.0762 39.442 26.8124 39.3682 26.4424 39.1446C26.2476 39.0277 25.9878 38.7549 25.8953 38.5662C25.6059 37.9837 25.7299 37.2433 26.2692 36.3244C26.5231 35.8916 26.6609 35.5676 26.7987 35.0671C26.9541 34.499 27.023 33.9903 27.023 33.3914C27.023 32.852 26.9797 32.4951 26.8538 31.9905L26.8026 31.7895L26.8341 31.2829C26.964 29.2503 26.9108 27.3018 26.6766 25.4558C26.651 25.2466 26.6333 25.0743 26.6373 25.0702C26.6491 25.0558 26.8577 25.9645 26.9325 26.3562C27.2848 28.196 27.4344 30.0728 27.4108 32.3453C27.399 33.5452 27.3773 34.0293 27.3183 34.5297C27.2572 35.0384 27.2395 35.2825 27.2395 35.6311C27.2395 36.2013 27.3202 36.6423 27.4954 37.0115C27.7001 37.4484 28.0288 37.7417 28.45 37.8648C28.5759 37.9017 28.6606 37.9119 28.8633 37.9119C29.1624 37.914 29.3179 37.8771 29.6151 37.7294C30.6248 37.233 31.2605 36.2034 31.3943 34.8497C31.4239 34.5564 31.4062 33.7647 31.3648 33.4837C31.3471 33.3709 31.3117 33.1596 31.2841 33.014C31.1562 32.3207 31.107 31.7341 31.1227 31.0429C31.1523 29.7753 31.4062 28.6903 31.9336 27.5766C32.3706 26.6557 32.902 25.9091 33.6991 25.0948C34.1872 24.5944 34.8131 24.0611 35.2756 23.7534C36.3089 23.0663 36.8324 22.6499 37.4426 22.0285C38.8616 20.5866 39.6725 18.9498 39.9047 17.0649C40.015 16.1665 39.9874 15.3625 39.8142 14.4764C39.7 13.8898 39.582 13.4858 39.1273 12.1116C38.9738 11.6521 38.8714 11.1886 38.7986 10.6245C38.7711 10.4051 38.7632 10.2143 38.7632 9.7118C38.7652 9.07392 38.7789 8.87702 38.8596 8.40322C38.8734 8.31503 38.8793 8.24734 38.8734 8.24939C38.8675 8.25349 38.777 8.29862 38.6746 8.354C38.3361 8.53039 37.9543 8.60423 37.3855 8.60218C36.4506 8.59807 35.4842 8.33144 34.4726 7.79406C33.8743 7.47614 33.5042 7.33667 32.9866 7.23616C32.8036 7.19925 32.6874 7.19104 32.3765 7.19104C32.036 7.19104 31.9651 7.19719 31.7447 7.24642C31.1424 7.37974 30.6209 7.65253 30.1013 8.10787L29.9025 8.28221L29.8907 8.00326C29.8493 7.08028 29.4203 6.18807 28.7235 5.58095C28.2531 5.17074 27.7768 4.9082 27.0152 4.63746C25.3639 4.05086 24.2597 3.25094 23.561 2.13721C23.5039 2.04491 23.4508 1.96902 23.4429 1.96902C23.437 1.96902 23.3878 2.04081 23.3327 2.12696C23.1674 2.39154 22.9725 2.64382 22.7344 2.90021C22.0376 3.64269 21.1598 4.17597 19.8589 4.64567C19.2625 4.86103 18.9358 5.02101 18.5461 5.29175C17.6191 5.93374 17.0956 6.84646 17.005 7.97865C16.9913 8.13043 16.9794 8.2576 16.9775 8.25965C16.9735 8.26375 16.9165 8.21452 16.8456 8.15094C16.3024 7.66074 15.7552 7.36948 15.1116 7.23616C14.8204 7.17668 14.2456 7.17053 13.9544 7.22591C13.417 7.32846 13.1002 7.44537 12.429 7.79406C11.7618 8.13863 11.3091 8.31092 10.6892 8.46065C9.68539 8.70063 8.68162 8.6432 8.14037 8.31298C8.07739 8.27606 8.02228 8.24529 8.02031 8.24939C8.01834 8.25349 8.03606 8.38886 8.05968 8.55295C8.19351 9.44311 8.16989 10.401 7.99276 11.2747C7.91206 11.6665 7.85695 11.8695 7.67785 12.3946C7.08149 14.1524 6.90436 15.0548 6.93388 16.1932C6.96734 17.3992 7.20549 18.4576 7.67982 19.5077C8.34112 20.966 9.55549 22.3484 11.0907 23.3924C11.254 23.5032 11.4745 23.655 11.5807 23.7267C12.1653 24.1267 12.9014 24.7625 13.3856 25.2856C14.7633 26.7705 15.5565 28.4934 15.7336 30.3866C15.8182 31.289 15.7789 32.0828 15.5998 33.053C15.5053 33.5657 15.4817 33.8262 15.4817 34.3246C15.4817 34.9092 15.5387 35.3255 15.6883 35.7993C15.8556 36.3347 16.082 36.7182 16.4638 37.1161C17.1507 37.8319 17.8868 38.0801 18.5678 37.8196C18.7705 37.7417 18.9378 37.6289 19.0952 37.4566C19.294 37.2412 19.4141 37.032 19.5026 36.7551C19.6739 36.2095 19.6995 35.5512 19.5833 34.6138C19.4731 33.7237 19.4397 31.9351 19.5046 30.4686C19.5263 30.0174 19.5558 29.5395 19.5755 29.3549L19.5873 29.2441L19.7073 29.3651C19.7742 29.4308 19.8923 29.5395 19.9691 29.6031L20.1088 29.72L20.1226 30.0933C20.2072 32.4705 20.6461 35.2579 21.2484 37.272C21.2563 37.3007 21.2169 37.3294 21.0634 37.4094C20.6599 37.6207 20.1738 37.9468 19.79 38.2647C19.4475 38.5478 18.8886 39.1385 18.7095 39.4031L18.6819 39.4461L18.4674 39.4031C17.7943 39.2697 17.1507 38.9457 16.4933 38.4144C15.6194 37.7089 15.1175 36.7551 14.9286 35.4486C14.8381 34.8189 14.8479 34.1113 14.9581 33.4509C15.1077 32.5381 15.1431 32.052 15.1294 31.2029C15.1175 30.5507 15.09 30.2389 14.9975 29.7302C14.7593 28.4401 14.2378 27.2669 13.4308 26.2126C13.2005 25.9132 12.5963 25.2671 12.3109 25.0189C11.8681 24.6354 11.4095 24.3052 10.8545 23.977C9.66571 23.2714 8.54975 22.2213 7.7861 21.087C6.63669 19.3805 6.11709 17.2064 6.30013 14.8805C6.36508 14.0478 6.55205 13.3709 6.95356 12.5115C7.3039 11.7608 7.5204 10.9958 7.60896 10.1938C7.63258 9.9887 7.63849 9.7959 7.63061 9.44516C7.62077 8.91599 7.58338 8.63704 7.46725 8.22273C7.40231 7.98686 7.24879 7.5828 7.19171 7.4905C7.174 7.46383 7.16416 7.43922 7.16809 7.43512C7.17203 7.43102 7.32161 7.47614 7.49875 7.53562C8.14431 7.75508 8.68162 7.85354 9.33112 7.86994C9.93731 7.88635 10.3683 7.83918 10.9234 7.6915C11.3938 7.56639 11.6791 7.44948 12.3306 7.1131C12.5806 6.98388 12.8915 6.83826 13.0195 6.79108C13.9504 6.4465 14.842 6.41779 15.7001 6.70904C15.9717 6.80134 16.3437 6.99004 16.5051 7.1172C16.5661 7.16438 16.6173 7.19925 16.6212 7.19514C16.6252 7.19309 16.637 7.11105 16.6508 7.01465C16.7787 6.00347 17.3278 5.26304 18.4123 4.64156C18.8138 4.41184 19.1858 4.24571 20.0852 3.89703C20.7367 3.64475 21.0811 3.48271 21.3311 3.30837C22.075 2.79355 22.7856 1.92185 23.313 0.873753C23.3858 0.732229 23.4488 0.615318 23.4528 0.615318C23.4567 0.615318 23.5039 0.707616 23.5571 0.818374ZM23.5236 2.49615C23.8425 2.95969 24.3503 3.46015 24.8777 3.83344C25.4446 4.23545 26.0291 4.5267 26.9148 4.85077C27.3537 5.01076 27.5505 5.09485 27.7946 5.22202C28.5385 5.61172 29.0621 6.14705 29.375 6.83621C29.5443 7.2136 29.621 7.51101 29.6624 7.94994C29.6899 8.2576 29.6604 8.65755 29.5876 8.9324C29.5817 8.95496 29.7096 8.83395 29.869 8.66576C30.4791 8.02172 30.9751 7.69766 31.6227 7.51921C31.9041 7.44127 32.1423 7.41871 32.5103 7.43102C33.146 7.45358 33.6282 7.60536 34.4332 8.04018C35.4783 8.60218 36.7655 8.91804 37.6964 8.8401C37.9936 8.81549 38.2219 8.77652 38.4247 8.71498C38.4995 8.69242 38.5644 8.67807 38.5703 8.68422C38.5762 8.69037 38.5683 8.80728 38.5546 8.94676C38.5093 9.36107 38.5211 10.2307 38.5743 10.6553C38.6687 11.3978 38.7573 11.7485 39.0879 12.7166C39.393 13.6047 39.5957 14.4129 39.6922 15.1164C39.7414 15.4815 39.7414 16.5008 39.6922 16.9213C39.5761 17.8915 39.3477 18.7016 38.9521 19.5221C38.5487 20.3609 38.0645 21.0481 37.3678 21.7721C36.5825 22.5884 35.805 23.175 34.5375 23.9093C33.3468 24.5964 32.2052 25.7532 31.4278 27.0536C30.8295 28.0545 30.3886 29.2749 30.1524 30.5814C30.0147 31.3383 29.995 31.4429 29.9458 31.5987C29.8808 31.8121 29.7804 31.9946 29.6978 32.0541C29.5187 32.1833 29.2727 31.9926 29.1388 31.6193C29.1093 31.5393 29.0719 31.3424 29.0404 31.1208C28.8141 29.4779 28.4106 27.8391 27.8693 26.3665C27.4737 25.2897 26.9246 24.1411 26.4385 23.376C26.346 23.2304 26.2751 23.1094 26.2791 23.1073C26.281 23.1053 26.4483 23.0458 26.6491 22.9781C27.9146 22.5453 28.7727 21.9485 29.5856 20.9352C30.3512 19.9794 30.9869 18.7098 31.2369 17.6392C31.2723 17.4874 31.3668 17.4095 31.6089 17.3315C31.8155 17.2659 31.9159 17.2392 31.8687 17.2618C31.786 17.3008 31.7683 17.4956 31.8411 17.5633C31.9592 17.674 32.16 17.5818 32.16 17.4177C32.16 17.3623 32.0871 17.272 32.0183 17.2433L31.9592 17.2187L32.0734 17.1695C32.5516 16.9685 32.9197 16.6034 33.1283 16.1255C33.1795 16.0065 33.1913 15.9942 33.2051 16.0311C33.2248 16.0886 33.2976 16.1419 33.3566 16.1419C33.5239 16.1419 33.5967 15.9553 33.4786 15.8301C33.4176 15.7686 33.3704 15.7604 33.2779 15.8035C33.2444 15.8178 33.2444 15.8117 33.274 15.7296C33.3527 15.4917 33.4767 14.86 33.5082 14.5195C33.5259 14.3411 33.5042 14.2959 33.398 14.2959C33.1972 14.2959 33.0004 14.5277 32.9197 14.8559C32.8961 14.9564 32.8902 14.9625 32.8272 14.9687C32.7111 14.9769 32.5871 15.0138 32.53 15.0569C32.467 15.1041 32.3962 15.2353 32.3962 15.303C32.3962 15.3481 32.3942 15.3481 32.3391 15.2928C32.2426 15.1964 32.1915 15.2189 32.036 15.4343C31.8864 15.6414 31.8214 15.6886 31.5361 15.8055C31.1641 15.9553 31.0361 16.0845 30.8826 16.468C30.8039 16.6567 30.7783 16.6977 30.611 16.8864C29.8651 17.7233 28.9932 19.077 28.6645 19.9097C28.6251 20.0082 28.5877 20.0984 28.5818 20.1087C28.5779 20.1189 28.5484 20.002 28.5188 19.8523C28.3023 18.755 27.8516 17.5182 27.3281 16.5829L27.1785 16.3183L27.7237 14.8805C28.0229 14.0908 28.2984 13.3812 28.3378 13.3032C28.3909 13.1966 28.4657 13.1022 28.6487 12.9135C28.9125 12.6387 28.9892 12.5095 29.0739 12.1915C29.1152 12.0377 29.1172 11.9782 29.1231 11.1168L29.1309 10.2041L28.9735 10.4748C28.7393 10.8809 28.6684 10.9794 28.4559 11.2173C28.0662 11.6501 27.9245 11.8859 27.9264 12.1013C27.9264 12.2941 28.0071 12.4377 28.1764 12.5464C28.2118 12.5669 28.2059 12.5771 28.1075 12.6694C27.893 12.8684 27.8182 12.9607 27.7276 13.1391C27.6784 13.2396 27.4049 13.8652 27.1214 14.5318C26.838 15.1964 26.6018 15.746 26.5959 15.7522C26.5782 15.7707 26.1787 15.3215 26.0232 15.1061C25.5607 14.4621 25.2832 13.7627 25.1946 13.0038C25.1651 12.7576 25.169 12.3372 25.2044 11.8962C25.2655 11.1578 25.2379 10.2328 25.1454 9.82256L25.1198 9.7077L25.2851 9.30979C25.4465 8.91599 25.5607 8.58167 25.539 8.5591C25.5253 8.54475 25.3147 8.63499 25.1237 8.7355C25.049 8.77652 24.9801 8.81138 24.9722 8.81549C24.9663 8.81959 24.9289 8.75395 24.8895 8.66986C24.8147 8.50783 24.6868 8.31913 24.5766 8.20837L24.5097 8.14069L24.5569 7.96224C24.6179 7.73047 24.6258 7.45768 24.5766 7.30795C24.5313 7.17668 24.4191 7.03926 24.2951 6.96953C24.2085 6.9203 24.1515 6.90184 23.9665 6.86082C23.9212 6.85056 23.8759 6.79313 23.7165 6.53675C23.441 6.09577 23.4724 6.13064 23.4291 6.21063C23.3957 6.27011 23.0532 6.83005 23.0375 6.84646C23.0335 6.85056 22.9745 6.86492 22.9036 6.88133C22.6576 6.93466 22.4825 7.06798 22.3939 7.27103C22.3309 7.41461 22.3309 7.70996 22.3959 7.96224L22.4411 8.14274L22.3467 8.24939C22.2305 8.38476 22.1242 8.555 22.0613 8.70473C22.0357 8.76626 22.0081 8.81959 21.9983 8.81959C21.9904 8.81959 21.9058 8.77857 21.8113 8.72934C21.7149 8.68012 21.583 8.61448 21.5141 8.58577C21.4098 8.54064 21.3941 8.53859 21.4019 8.56936C21.4078 8.58782 21.4315 8.66576 21.4531 8.74165C21.4748 8.81549 21.5594 9.04521 21.6401 9.25031L21.7857 9.62156L21.7483 9.81025C21.6873 10.1138 21.6676 10.3599 21.6676 10.8214C21.6676 11.2152 21.7011 11.7342 21.7483 12.0808C21.7759 12.2797 21.7719 12.8007 21.7385 13.0468C21.6794 13.5165 21.5574 13.9267 21.3449 14.3718C21.0614 14.9707 20.6894 15.4609 20.2072 15.8814C20.0045 16.0578 19.9848 16.0804 19.8471 16.3244C19.6542 16.6608 19.2861 17.4382 19.1188 17.8545C18.9299 18.3324 18.676 19.1426 18.5579 19.6492C18.5028 19.8913 18.4536 20.1025 18.4497 20.1189C18.4438 20.1333 18.3631 19.9856 18.2686 19.7908C17.808 18.8411 17.1389 17.8463 16.3103 16.8823L16.0741 16.6095L16.0111 16.3983C15.9363 16.1542 15.8281 15.9286 15.7119 15.7789L15.6273 15.6702L15.958 15.301C16.139 15.0959 16.2847 14.9236 16.2827 14.9195C16.2807 14.9133 16.1253 14.7759 15.9383 14.6139L15.5978 14.3185L15.1884 14.7472L14.779 15.1758L14.7082 15.1266C14.6688 15.0979 14.6117 15.0753 14.5802 15.0753C14.5015 15.0753 14.4799 15.1471 14.4917 15.3481L14.5015 15.5081L14.3185 15.3256C14.1492 15.1533 14.0134 15.0548 13.9485 15.0548C13.9288 15.0548 13.915 15.02 13.9052 14.942C13.8874 14.7902 13.8284 14.5769 13.7674 14.4457C13.6827 14.2672 13.5292 14.1626 13.4663 14.2406C13.4131 14.3082 13.3836 14.9954 13.423 15.2476C13.4348 15.3215 13.4584 15.3871 13.484 15.4158C13.5194 15.4548 13.5253 15.4774 13.5135 15.5471C13.4977 15.6578 13.5292 15.7809 13.5883 15.8301C13.6257 15.8609 13.6355 15.8876 13.6355 15.9635C13.6355 16.0291 13.6532 16.0906 13.6906 16.1624L13.7457 16.267L13.5784 16.4455C13.4879 16.5439 13.2911 16.7531 13.1415 16.9131L12.8699 17.2003L13.0569 17.3787C13.1612 17.4771 13.3285 17.6351 13.4308 17.7315L13.6158 17.9079L14.0154 17.4607C14.2338 17.2146 14.4188 17.0075 14.4267 16.9972C14.4346 16.989 14.4779 17.0054 14.5271 17.0321C14.7416 17.1572 15.0605 17.2495 15.3301 17.2679L15.5171 17.2802L15.5545 17.3828C15.7336 17.8771 15.9875 18.4699 16.2237 18.9519C16.8358 20.1989 17.4951 21.1527 18.1544 21.7372C18.2469 21.8193 18.2568 21.8234 18.3808 21.8234C18.8669 21.8234 20.1266 21.5957 20.8626 21.3742C21.0083 21.3291 21.1323 21.2983 21.1362 21.3024C21.1402 21.3065 21.0988 21.4788 21.0437 21.6839C20.9355 22.0838 20.8115 22.5966 20.7465 22.9043C20.7091 23.0786 20.6934 23.1094 20.5222 23.376C19.4692 24.9943 18.5796 27.3182 18.0974 29.7097C18.0127 30.1302 17.8671 31.0019 17.8415 31.248C17.7982 31.6521 17.6034 32.0172 17.3987 32.0807C17.129 32.1648 16.9637 31.8449 16.8082 30.9301C16.5897 29.642 16.3024 28.6985 15.8418 27.7509C15.399 26.8362 14.9089 26.1388 14.1827 25.3799C13.5332 24.7051 13.0116 24.2867 12.3208 23.8847C12.1318 23.776 11.8563 23.6098 11.7106 23.5196C9.23271 21.9751 7.6995 19.8789 7.28421 17.4648C7.19171 16.9254 7.174 16.6936 7.174 15.9983C7.174 15.2764 7.18581 15.1451 7.3039 14.5421C7.42002 13.9452 7.53614 13.5411 7.98685 12.1833C8.32735 11.1619 8.45134 9.99895 8.33719 8.90573C8.31357 8.67601 8.31357 8.67191 8.3549 8.68217C8.37655 8.68832 8.46315 8.71088 8.54581 8.7355C8.9611 8.85036 9.58895 8.88112 10.1046 8.81138C10.9135 8.70268 11.7539 8.42373 12.5196 8.01147C13.0706 7.71611 13.4485 7.56844 13.9248 7.47204C14.1807 7.41871 14.8617 7.42076 15.0959 7.47409C15.5171 7.56844 15.9166 7.74483 16.265 7.98686C16.5327 8.17555 16.7137 8.33554 17.0326 8.67396C17.1822 8.83395 17.3062 8.96316 17.3101 8.96316C17.3121 8.96316 17.2963 8.87292 17.2747 8.76216C17.2215 8.49552 17.2176 7.95814 17.2688 7.66074C17.3436 7.22181 17.5423 6.7193 17.7805 6.37267C18.2509 5.68556 18.8669 5.25894 19.9573 4.85898C20.9571 4.49389 21.6302 4.1411 22.2463 3.65705C22.6734 3.32273 23.0709 2.91457 23.3268 2.54947C23.3839 2.46743 23.437 2.39975 23.4449 2.39975C23.4508 2.39975 23.4862 2.44282 23.5236 2.49615ZM23.559 6.7275L23.6397 6.85056H23.4803C23.3937 6.85056 23.3229 6.84646 23.3229 6.84031C23.3229 6.82595 23.4646 6.60444 23.4724 6.60444C23.4764 6.60444 23.5157 6.65981 23.559 6.7275ZM23.8818 7.09669C24.2164 7.13361 24.3621 7.25668 24.3798 7.52331C24.3876 7.64638 24.3463 7.94378 24.3168 7.97455C24.3109 7.9807 24.2656 7.96224 24.2144 7.93148C24.0098 7.81662 23.8248 7.76739 23.5492 7.75714C23.2422 7.74688 23.0335 7.78995 22.7895 7.91507L22.636 7.99301L22.6045 7.85354C22.5435 7.57254 22.575 7.34282 22.6871 7.23616C22.7541 7.17258 22.9135 7.1131 23.0552 7.09669C23.2599 7.07413 23.6811 7.07413 23.8818 7.09669ZM40.0012 7.94789C40.1941 9.0247 40.6448 9.94152 41.3927 10.7784C41.6899 11.1106 41.8926 11.3814 42.1445 11.7854C42.8826 12.9689 43.3077 14.259 43.4612 15.7932C43.4986 16.1686 43.4927 17.311 43.4494 17.7417C43.3097 19.1795 42.9731 20.4758 42.4043 21.7618C42.2351 22.1454 42.1544 22.3033 42.1662 22.2233C42.2272 21.807 42.2292 21.2819 42.1701 20.9435C42.0186 20.0861 41.6151 19.3231 40.9636 18.6647C40.8475 18.5458 40.7097 18.4104 40.6566 18.3673L40.5641 18.2853L40.6133 18.0596C40.7944 17.2331 40.875 16.2445 40.8377 15.2948C40.7944 14.1831 40.6212 13.4488 40.1606 12.45C39.6882 11.4224 39.4776 10.5363 39.4776 9.56823C39.4776 8.8483 39.5879 8.27401 39.8319 7.74483C39.9382 7.51101 39.9205 7.48845 40.0012 7.94789ZM7.07165 7.7879C7.30783 8.31708 7.41018 8.86881 7.40821 9.59899C7.40624 10.0769 7.37081 10.403 7.27044 10.8645C7.17203 11.3301 6.93585 12.0418 6.78823 12.3269C6.42806 13.014 6.16629 13.9042 6.07772 14.7369C6.03639 15.1266 6.0423 16.4537 6.08756 16.8803C6.12693 17.2577 6.2155 17.8053 6.28635 18.1314L6.33359 18.3468L6.25289 18.4165C6.08363 18.5642 5.7392 18.9273 5.59946 19.1057C5.17236 19.6533 4.88304 20.2769 4.76298 20.9106C4.70197 21.2244 4.68819 21.7516 4.73149 22.0674C4.74921 22.1967 4.75905 22.3054 4.75708 22.3095C4.74724 22.3197 4.46776 21.7106 4.34967 21.4234C3.90092 20.3302 3.59979 19.1488 3.4758 17.9981C3.2593 15.9881 3.53091 14.2118 4.30046 12.6141C4.65867 11.8716 4.99916 11.3547 5.54435 10.7312C5.96554 10.2492 6.19581 9.9046 6.4379 9.38773C6.58354 9.07597 6.69967 8.76011 6.7902 8.42989C6.85318 8.20222 6.94766 7.72637 6.94766 7.64023C6.94766 7.54793 6.97915 7.5869 7.07165 7.7879ZM23.8799 8.04634C24.2617 8.1735 24.6041 8.50783 24.7281 8.87497L24.7577 8.96111L24.6199 9.07802C24.5451 9.14161 24.4841 9.19904 24.4841 9.20724C24.4841 9.21339 24.4605 9.24621 24.4349 9.27698L24.3857 9.33441L24.2558 9.25852C24.0078 9.11494 23.7204 8.86676 23.5433 8.64935L23.4803 8.57141L23.3052 8.76216C23.1221 8.96111 22.8918 9.14776 22.6891 9.26057L22.5671 9.32825L22.4785 9.22365C22.4293 9.16622 22.3467 9.08623 22.2955 9.04521L22.2049 8.96932L22.2482 8.85446C22.386 8.50578 22.6517 8.22478 22.9745 8.08736C23.2579 7.96634 23.5925 7.95199 23.8799 8.04634ZM23.5413 8.99598C23.7775 9.26057 24.2951 9.58874 24.6907 9.72206C24.7675 9.74872 24.8305 9.77128 24.8344 9.77334C24.8403 9.77949 24.7655 9.94357 24.7498 9.96408C24.7478 9.96614 24.6789 9.93742 24.5982 9.8964C24.3483 9.77744 24.1711 9.73642 23.9487 9.74667C23.7775 9.75488 23.7401 9.76513 23.6142 9.83077L23.4724 9.90255L23.3918 9.85538C23.1123 9.68719 22.699 9.70975 22.3191 9.91896C22.2601 9.95178 22.2049 9.98049 22.199 9.9846C22.1931 9.98665 22.1675 9.94357 22.1439 9.88409C22.1203 9.82666 22.1026 9.77744 22.1065 9.77744C22.1105 9.77539 22.1872 9.74667 22.2797 9.71385C22.6517 9.58259 23.0198 9.36107 23.313 9.09033C23.3996 9.01034 23.4764 8.9447 23.4823 8.9447C23.4882 8.94265 23.5138 8.96727 23.5413 8.99598ZM22.0829 9.17442C22.2089 9.26877 22.3388 9.39389 22.3388 9.42055C22.3388 9.44106 22.2502 9.48003 22.1105 9.52311L22.0081 9.55387L21.8979 9.28108C21.8369 9.13135 21.7877 9.00213 21.7877 8.99393C21.7877 8.97342 21.951 9.07392 22.0829 9.17442ZM25.106 9.14161C25.0686 9.2298 25.0155 9.35902 24.986 9.42876L24.9328 9.55387L24.7931 9.50465C24.7144 9.47798 24.6396 9.44927 24.6238 9.44516C24.5845 9.42876 24.7557 9.25236 24.9171 9.14161C24.9879 9.09238 25.0667 9.03905 25.0942 9.01854C25.1218 9.00008 25.1493 8.98573 25.1572 8.98573C25.1651 8.98367 25.1415 9.05546 25.106 9.14161ZM23.2146 10.0277C23.2579 10.0482 23.3327 10.0974 23.378 10.1384C23.4252 10.1815 23.4685 10.2143 23.4744 10.2143C23.4784 10.2143 23.5217 10.1815 23.5669 10.1425C23.6122 10.1036 23.6949 10.0502 23.748 10.0256C23.9487 9.93332 24.2833 9.9846 24.5727 10.1548L24.6829 10.2184L24.6711 10.3148C24.5628 11.1352 24.24 11.8388 23.7244 12.3864C23.4665 12.6571 23.5118 12.6571 23.2559 12.3925C22.9096 12.0377 22.6478 11.6131 22.4706 11.1168C22.3998 10.9178 22.3132 10.5425 22.2896 10.3353L22.2758 10.2184L22.3644 10.1651C22.6655 9.98049 22.9981 9.92717 23.2146 10.0277ZM22.0731 10.4399C22.1439 10.9404 22.3132 11.447 22.5336 11.8244L22.6183 11.968L22.5651 12.3269C22.3781 13.6129 22.1321 15.1471 22.0829 15.344L22.0632 15.4199L21.6932 15.5143C21.4905 15.5676 21.1776 15.6517 20.9965 15.7009C20.8154 15.7522 20.6619 15.7932 20.654 15.7932C20.6461 15.7932 20.6973 15.7317 20.7662 15.6537C21.3468 15.022 21.7562 14.2139 21.9137 13.3873C22.014 12.8704 22.0278 12.5033 21.9648 11.9577C21.8979 11.3711 21.8763 10.8112 21.9018 10.4297C21.9156 10.2451 21.9314 10.0789 21.9392 10.0584C21.9609 9.9969 22.0416 10.2225 22.0731 10.4399ZM24.9978 10.4933C25.0234 10.8625 25.0116 11.4573 24.9663 11.9782C24.9289 12.411 24.9289 12.6817 24.9663 13.014C25.0765 13.9965 25.5016 14.9215 26.1767 15.6578C26.2791 15.7686 26.346 15.8548 26.3243 15.8486C26.3027 15.8424 25.9838 15.746 25.6158 15.6373C25.2477 15.5286 24.9328 15.4322 24.9151 15.422C24.8935 15.4097 24.8679 15.3215 24.8325 15.1328C24.7655 14.7882 24.5786 13.617 24.4428 12.6941L24.3384 11.9844L24.429 11.8224C24.6534 11.4244 24.8403 10.8378 24.8876 10.3887C24.8954 10.321 24.9092 10.2287 24.921 10.1835C24.9525 10.0543 24.9722 10.1323 24.9978 10.4933ZM28.8633 12.0705C28.8456 12.1608 28.8003 12.3044 28.7609 12.3884C28.7019 12.5177 28.6527 12.5812 28.4519 12.7884C28.2669 12.9792 28.1961 13.0674 28.141 13.1781C28.0819 13.295 27.4856 14.8661 26.3401 17.9058C26.2712 18.0925 26.2062 18.2524 26.1964 18.2607C26.1885 18.2709 26.161 18.2648 26.1354 18.2483C26.1098 18.2319 26.035 18.2012 25.9701 18.1807C25.9051 18.1602 25.85 18.1417 25.8461 18.1396C25.8343 18.1314 27.8103 13.494 27.9146 13.2868C27.9717 13.1699 28.0465 13.055 28.0918 13.0099C28.3712 12.7371 28.6448 12.4213 28.6763 12.3372C28.6861 12.3085 28.696 12.249 28.696 12.2059C28.696 12.1136 28.6428 11.9167 28.6173 11.9167C28.6074 11.9167 28.5582 11.9372 28.509 11.9618C28.4441 11.9946 28.4224 12.0152 28.4322 12.0398C28.4401 12.0562 28.45 12.1177 28.4539 12.1772C28.4637 12.2736 28.4598 12.2859 28.4126 12.3167C28.324 12.3782 28.1843 12.3003 28.1528 12.1751C28.1173 12.0275 28.2472 11.7998 28.5661 11.447C28.6783 11.3239 28.7944 11.1886 28.8259 11.1455L28.883 11.0696L28.8889 11.488C28.8928 11.808 28.8869 11.9454 28.8633 12.0705ZM23.3327 12.7884C23.4705 12.8992 23.4843 12.9053 23.5295 12.8807C23.6142 12.8335 23.9212 12.5423 24.0314 12.4028C24.0905 12.329 24.1416 12.2695 24.1436 12.2736C24.1456 12.2756 24.1987 12.6059 24.2577 13.0058C24.4113 14.0252 24.5136 14.6528 24.5963 15.1041L24.6671 15.4917L24.6002 15.5512C24.3168 15.8014 23.7008 16.0229 23.3918 15.9881C23.0217 15.9429 22.5553 15.744 22.3368 15.5327L22.2856 15.4835L22.3211 15.3153C22.3683 15.0938 22.5907 13.7237 22.7029 12.9627C22.7521 12.6305 22.7974 12.3351 22.8033 12.3085C22.8111 12.2654 22.8289 12.2797 22.9981 12.4643C23.1005 12.5771 23.25 12.7228 23.3327 12.7884ZM2.34016 14.9236C2.31261 15.4897 2.32638 16.4865 2.37165 17.0136C2.58618 19.5508 3.39904 21.7372 4.76102 23.4437C4.9598 23.6939 5.40461 24.1698 5.64669 24.3892L5.79234 24.5226L5.69393 24.6764C5.25306 25.3615 4.92831 26.1655 4.79054 26.9285C4.72756 27.2689 4.70591 27.8679 4.74133 28.1981C4.80235 28.7416 5.00113 29.32 5.28652 29.7877L5.37509 29.9353L5.07396 29.6174C3.26717 27.714 2.00557 25.4907 1.44661 23.2283C1.18484 22.172 1.07659 21.2819 1.07659 20.1722C1.07659 19.5282 1.09234 19.2288 1.16122 18.6319C1.28719 17.5407 1.5588 16.4291 1.95243 15.3933C2.08233 15.0487 2.3441 14.4354 2.35591 14.4477C2.36181 14.4518 2.35394 14.6672 2.34016 14.9236ZM44.9236 15.0774C45.453 16.3675 45.7876 17.7971 45.8998 19.2595C45.9352 19.7169 45.9293 20.724 45.89 21.1875C45.6813 23.6057 44.8468 25.8045 43.3471 27.8945C42.8629 28.5693 42.4535 29.0595 41.804 29.7466C41.3691 30.2081 41.1821 30.3845 41.3454 30.1794C41.7607 29.6584 42.056 28.9508 42.1504 28.2494C42.1937 27.9232 42.1799 27.351 42.1189 26.9941C41.989 26.227 41.68 25.4271 41.2451 24.7379L41.1348 24.5656L41.1801 24.5328C41.2943 24.4487 41.6387 24.1226 41.8335 23.9134C42.4909 23.2058 43.0105 22.4243 43.475 21.4521C44.1776 19.9815 44.5595 18.3796 44.6598 16.5008C44.6815 16.0988 44.6736 15.061 44.648 14.6036L44.6382 14.4293L44.7287 14.6241C44.7779 14.7308 44.8665 14.9359 44.9236 15.0774ZM33.333 14.5257C33.3271 14.5626 33.3173 14.6446 33.3114 14.7062C33.2956 14.8682 33.2228 15.2456 33.2031 15.2681C33.1933 15.2764 33.1677 15.2456 33.1441 15.1964C33.1204 15.1471 33.087 15.0897 33.0693 15.0692C33.0417 15.0384 33.0417 15.0138 33.0614 14.8928C33.1008 14.6467 33.207 14.46 33.3054 14.46C33.3369 14.46 33.3409 14.4723 33.333 14.5257ZM13.6965 14.5995C13.7221 14.6692 13.7772 14.9215 13.7772 14.9748C13.7772 14.9954 13.7674 15.0138 13.7556 15.0138C13.7438 15.0138 13.7103 15.0323 13.6827 15.0548C13.6355 15.0959 13.6316 15.0959 13.6119 15.061C13.5883 15.0159 13.5706 14.6077 13.5883 14.5318C13.6021 14.4785 13.604 14.4785 13.6394 14.5113C13.6591 14.5298 13.6847 14.5687 13.6965 14.5995ZM15.8497 14.8272L16.0013 14.9564L15.9442 15.0323C15.9127 15.0733 15.7907 15.2046 15.6726 15.3276L15.458 15.5471L15.3518 15.5102C15.2927 15.4876 15.1786 15.4363 15.0979 15.3953L14.9522 15.3174L15.2829 14.9728C15.6076 14.6344 15.6155 14.6282 15.6568 14.661C15.6785 14.6795 15.767 14.7554 15.8497 14.8272ZM32.8292 15.1164C32.9827 15.1615 33.1244 15.3194 33.1244 15.4466C33.1244 15.4897 33.1165 15.5286 33.1067 15.5348C33.0968 15.543 33.0594 15.5102 33.026 15.465C32.9118 15.3153 32.8114 15.2907 32.6284 15.3625C32.5713 15.3851 32.5182 15.4035 32.5103 15.4035C32.4828 15.4035 32.4946 15.2292 32.5241 15.182C32.5753 15.1102 32.7071 15.0815 32.8292 15.1164ZM14.0449 15.2476C14.1354 15.2907 14.2299 15.383 14.2299 15.4261C14.2299 15.4527 14.1531 15.4486 14.0488 15.4138C13.9642 15.3892 13.9445 15.3892 13.8678 15.4179C13.8205 15.4363 13.7693 15.4466 13.7536 15.4384C13.7142 15.424 13.6946 15.3153 13.7182 15.2497C13.7339 15.2046 13.7477 15.1984 13.8402 15.1984C13.9091 15.1984 13.9799 15.2148 14.0449 15.2476ZM14.7987 15.4753C14.8518 15.5143 14.9857 15.5902 15.0979 15.6394C15.3655 15.7625 15.4482 15.8137 15.5387 15.9183C15.6352 16.0311 15.7572 16.3019 15.8143 16.5357C15.8576 16.7203 15.8615 16.7265 16.015 16.8987C16.9716 17.9715 17.808 19.2452 18.2568 20.3158L18.367 20.5825L18.3355 20.8491C18.3158 20.9947 18.2961 21.206 18.2902 21.3147C18.2843 21.4255 18.2706 21.5157 18.2607 21.5157C18.2292 21.5157 17.8218 21.0747 17.6526 20.8594C17.0345 20.0697 16.4205 18.9539 15.9304 17.7212C15.8595 17.5469 15.7946 17.3848 15.7828 17.3623C15.773 17.3397 15.7434 17.2556 15.7198 17.1777L15.6726 17.0341L15.4699 17.03C15.2278 17.0259 15.0034 16.9808 14.8007 16.8987C14.5704 16.8064 14.5743 16.8208 14.7416 16.6444C14.8223 16.5583 14.905 16.4783 14.9247 16.468C14.9955 16.427 15.2829 16.4455 15.4364 16.5008C15.706 16.5972 15.7375 16.5521 15.5407 16.3573C15.4718 16.2896 15.397 16.1973 15.3754 16.1522C15.3222 16.0434 15.2829 16.0065 14.9857 15.7973C14.7278 15.6148 14.6393 15.5163 14.6688 15.4384C14.6865 15.3912 14.6885 15.3933 14.7987 15.4753ZM32.9138 15.4979C32.9964 15.5553 33.0516 15.662 33.0417 15.7481C33.0319 15.8424 32.9709 15.8301 32.8764 15.7194C32.8016 15.6271 32.7859 15.6189 32.7071 15.6189C32.6422 15.6189 32.591 15.6373 32.5162 15.6845C32.4591 15.7214 32.4001 15.7522 32.3843 15.7522C32.3155 15.7522 32.3784 15.5779 32.469 15.5163C32.6166 15.4158 32.7839 15.4076 32.9138 15.4979ZM32.2348 15.6394C32.2269 15.7912 32.1954 15.8363 32.032 15.947C31.9199 16.0229 31.8746 16.0722 31.8569 16.1337C31.849 16.1604 31.8214 16.1829 31.786 16.1891C31.6758 16.2137 31.4199 16.3265 31.3392 16.388C31.2487 16.4578 31.1759 16.5931 31.1759 16.6916C31.1759 16.8147 31.2507 16.7654 31.4357 16.5275C31.5242 16.4147 31.6049 16.3716 31.9179 16.2773L32.158 16.2034L32.2289 16.2465C32.404 16.3552 32.715 16.1727 32.6894 15.9778C32.6796 15.906 32.6323 15.9142 32.5812 15.9983C32.5103 16.1111 32.4788 16.1419 32.4257 16.1419C32.3548 16.1419 32.3607 16.0783 32.4473 15.9081C32.532 15.744 32.5989 15.6989 32.717 15.7337C32.7918 15.7542 32.8803 15.8486 32.9 15.9245C32.9295 16.0496 32.7878 16.3265 32.5871 16.5357C32.341 16.79 32.1029 16.9275 31.662 17.0649C31.3609 17.1592 31.2526 17.2126 31.1641 17.3049C31.0716 17.3992 31.048 17.4546 30.9791 17.7335C30.8866 18.0966 30.7271 18.517 30.4772 19.0442C30.1642 19.7046 29.873 20.1866 29.4754 20.7035C29.3199 20.9045 28.7629 21.5157 28.7353 21.5157C28.7275 21.5157 28.7157 21.4213 28.7078 21.3044C28.7019 21.1896 28.6861 21.0009 28.6743 20.886C28.6547 20.6973 28.6566 20.6625 28.694 20.523C28.8219 20.0369 29.1959 19.2616 29.621 18.6032C29.9615 18.0761 30.4398 17.432 30.7527 17.0813C30.8807 16.9377 30.9495 16.8434 30.9712 16.7777C31.0696 16.4906 31.2369 16.2301 31.4062 16.0968C31.5026 16.0209 31.6286 15.9553 31.8116 15.8855C31.8766 15.8609 31.9277 15.8219 31.9789 15.7563C32.2151 15.4527 32.2466 15.4384 32.2348 15.6394ZM14.346 15.584C14.4641 15.6332 14.5645 15.7194 14.5645 15.7768C14.5645 15.824 14.5212 15.824 14.3775 15.7727C14.2417 15.7235 14.1335 15.7214 14.0016 15.7625C13.8717 15.8035 13.8225 15.8014 13.7969 15.7542C13.7654 15.6927 13.7733 15.6394 13.8205 15.5779C13.8619 15.5225 13.8638 15.5225 14.0508 15.5307C14.1748 15.5389 14.2752 15.5573 14.346 15.584ZM22.2463 15.7625C22.5277 15.9881 22.9115 16.1522 23.2894 16.2096C23.4508 16.2342 23.5079 16.2342 23.6535 16.2116C24.0806 16.146 24.5097 15.9553 24.7557 15.7235L24.8325 15.6517L25.6256 15.8876C26.0626 16.0168 26.4247 16.1275 26.4286 16.1316C26.4385 16.1419 25.8992 17.4136 25.8854 17.4136C25.8815 17.4136 25.8244 17.3807 25.7614 17.3418C25.5961 17.2351 25.415 17.1551 25.2281 17.1018C24.9998 17.0362 24.5116 17.0362 24.2873 17.0997C24.0472 17.1695 23.8307 17.2638 23.6437 17.3828L23.4665 17.4915L23.2363 17.3725C22.4293 16.9562 21.7208 16.9357 21.1717 17.311C21.028 17.4095 20.78 17.6617 20.7131 17.7807C20.6934 17.8156 20.6717 17.8443 20.6658 17.8443C20.6599 17.8443 20.6147 17.7869 20.5674 17.7171C20.4001 17.4792 20.1108 17.2761 19.8195 17.1961C19.7487 17.1756 19.6876 17.1572 19.6837 17.1551C19.6739 17.1469 19.8982 16.708 20.0518 16.4332C20.1777 16.2116 20.1856 16.2014 20.282 16.1645C20.4297 16.107 20.8941 15.9717 21.5279 15.8035C21.8389 15.7214 22.0947 15.6517 22.0987 15.6517C22.1006 15.6496 22.1675 15.7009 22.2463 15.7625ZM14.348 15.8773C14.4503 15.9101 14.535 15.9819 14.5192 16.025C14.5094 16.0537 14.472 16.0599 14.285 16.0599C14.1295 16.0619 14.0469 16.0701 14.0134 16.0906C13.9445 16.1316 13.9209 16.1275 13.8835 16.0701C13.854 16.0229 13.854 16.0147 13.8855 15.9655C13.9032 15.9368 13.9465 15.8999 13.9799 15.8855C14.0567 15.8506 14.2476 15.8465 14.348 15.8773ZM14.9601 16.0311C14.9975 16.0742 14.9995 16.0845 14.9758 16.1152C14.9601 16.1357 14.657 16.4783 14.3027 16.8741C13.726 17.5202 13.6513 17.5961 13.6217 17.5735C13.6021 17.5592 13.4997 17.4607 13.3934 17.3582L13.2025 17.1674L13.6198 16.7224C13.8481 16.4762 14.0567 16.265 14.0823 16.2506C14.1059 16.2363 14.222 16.2157 14.3382 16.2034C14.596 16.1788 14.6688 16.144 14.6786 16.0393C14.6826 16.0004 14.6983 15.9594 14.7141 15.9512C14.7298 15.9429 14.7416 15.9163 14.7416 15.8937C14.7416 15.8548 14.7495 15.8589 14.8302 15.9183C14.8774 15.9532 14.9365 16.0045 14.9601 16.0311ZM27.2454 16.9172C27.3065 17.0362 27.3517 17.1387 27.3438 17.1469C27.334 17.1531 27.2848 17.1715 27.2297 17.1838C27.1214 17.2126 26.9325 17.3028 26.8282 17.3746C26.7809 17.4074 26.7632 17.4136 26.7711 17.3931C26.777 17.3766 26.8479 17.192 26.9266 16.9849C27.0919 16.548 27.0545 16.5562 27.2454 16.9172ZM22.4372 17.3254C22.7068 17.3807 23.0709 17.5325 23.3583 17.7069L23.4803 17.7807L23.6437 17.6658C23.8523 17.5161 24.0924 17.4013 24.3266 17.3377C24.4802 17.2946 24.5589 17.2843 24.7695 17.2843C24.9919 17.2843 25.049 17.2926 25.2025 17.3397C25.3796 17.3951 25.6335 17.5243 25.7378 17.6084L25.7929 17.6556L25.7024 17.8668L25.6138 18.0802L25.3678 18.072C25.0057 18.0617 24.6967 18.1314 24.3857 18.2955C24.0255 18.4842 23.5217 18.9231 23.1182 19.401L23.0434 19.4892L22.7737 19.52C22.4982 19.5487 22.1124 19.6123 21.6519 19.7026C21.5062 19.7313 21.3822 19.7477 21.3744 19.7374C21.3665 19.7292 21.3055 19.5549 21.2366 19.3518C21.1244 19.0134 20.8902 18.3694 20.8174 18.1909C20.7859 18.1191 20.7879 18.1171 20.8686 17.9756C20.9119 17.8976 21.0122 17.7684 21.089 17.6905C21.4413 17.3254 21.8743 17.2085 22.4372 17.3254ZM27.5623 17.5776C28.0918 18.7509 28.4795 20.4143 28.4795 21.5219V21.7413L28.326 21.8603C27.9914 22.1187 27.3832 22.4489 26.8794 22.6438C26.3853 22.8345 25.7418 23.0109 25.1828 23.1073C24.9348 23.1483 24.8305 23.1566 24.5333 23.1545L24.179 23.1504L23.8936 23.2694C23.6358 23.376 23.5905 23.3883 23.4252 23.3986C23.1142 23.415 22.7088 23.3165 22.4706 23.1668C22.4077 23.1278 22.3467 23.095 22.3348 23.095C22.323 23.095 22.199 23.2099 22.0613 23.3514C21.8133 23.6037 21.6676 23.7083 21.6027 23.6837C21.5653 23.6693 21.5633 23.616 21.5968 23.5524C21.6106 23.5278 21.709 23.4047 21.8172 23.2796C22.0869 22.9658 22.1577 22.8509 22.1105 22.8017C22.0849 22.7751 21.9845 22.8366 21.8861 22.9412C21.8271 23.0027 21.7719 23.054 21.7621 23.054C21.6952 23.054 21.9058 22.5884 22.0416 22.4346C22.2502 22.1967 22.4588 22.1597 22.9686 22.2746C23.4784 22.3874 23.7401 22.4797 24.1259 22.6889C24.425 22.8509 24.3601 22.855 24.6986 22.6458C24.9742 22.4735 25.5902 22.1372 25.9327 21.971C26.7258 21.5854 27.2317 21.407 27.7847 21.3167L27.8871 21.3003L27.5997 20.6337C27.2572 19.8338 26.6983 18.4781 26.6077 18.2299C26.529 18.0084 26.529 18.0104 26.777 17.752C26.9699 17.5489 27.1549 17.4341 27.3478 17.3972C27.4029 17.3848 27.4521 17.3766 27.458 17.3746C27.4639 17.3746 27.5111 17.4648 27.5623 17.5776ZM19.8057 17.4361C19.975 17.4956 20.1167 17.5838 20.2525 17.7151C20.3627 17.8217 20.5281 18.0535 20.5281 18.1027C20.5281 18.113 20.3745 18.4186 20.1856 18.7796C19.607 19.8913 19.3885 20.3302 19.3353 20.4963C19.3078 20.5845 19.2881 20.6604 19.294 20.6666C19.2999 20.6727 19.4003 20.6255 19.5184 20.564C19.8845 20.3712 20.4631 20.1928 21.2858 20.0184C22.0869 19.8482 22.7068 19.7518 23.006 19.7518H23.1359L23.254 19.5836C23.4075 19.3641 23.7598 18.997 23.9763 18.8267C24.2873 18.5868 24.616 18.4042 24.8895 18.3242C25.0686 18.2709 25.5626 18.2607 25.7555 18.3058C25.9366 18.3468 26.0508 18.394 26.0271 18.4186C26.0173 18.4268 25.9248 18.4391 25.8224 18.4453C25.1316 18.4863 24.9053 18.5211 24.8659 18.5868C24.8344 18.6381 24.9053 18.6545 25.1493 18.6545C25.3973 18.6545 25.4013 18.6545 25.5233 18.7242C25.6748 18.8103 25.7791 18.9293 25.8717 19.1201C25.9523 19.2903 25.974 19.3908 25.9405 19.4339C25.9031 19.479 25.8736 19.4441 25.8126 19.2841C25.7103 19.0175 25.5863 18.8616 25.3855 18.7529C25.2438 18.677 25.0627 18.6729 24.9427 18.7447C24.8954 18.7734 24.8561 18.8021 24.8561 18.8124C24.8443 18.878 24.8502 18.8801 25.0647 18.8801C25.2517 18.8801 25.295 18.8862 25.3737 18.9273C25.5469 19.0175 25.7437 19.2349 25.7732 19.3744C25.7851 19.4236 25.7752 19.4175 25.7181 19.3293C25.5666 19.1016 25.2615 18.9826 25.0135 19.0544C24.9328 19.077 24.862 19.1488 24.8895 19.1754C24.8994 19.1857 24.9643 19.1816 25.047 19.1631C25.173 19.1344 25.1946 19.1344 25.2969 19.1652C25.4308 19.2062 25.602 19.36 25.724 19.5508C25.7969 19.6656 25.8303 19.7928 25.7851 19.7928C25.7752 19.7928 25.728 19.7354 25.6788 19.6636C25.4938 19.3928 25.3796 19.3313 25.1041 19.3457C24.9013 19.3559 24.7616 19.4236 24.4546 19.6492C24.3325 19.7395 24.2007 19.8277 24.1633 19.8441C24.1239 19.8605 23.9743 19.8892 23.8307 19.9077C23.5354 19.9446 23.3032 20.0266 22.9922 20.2071C22.7068 20.3733 22.1282 20.6645 21.8664 20.7732C20.9906 21.1404 19.8608 21.4275 18.8354 21.5465C18.4556 21.5895 18.4949 21.6059 18.5107 21.407C18.6071 20.1517 18.9319 18.8637 19.4593 17.6453C19.5833 17.3561 19.5814 17.3582 19.8057 17.4361ZM26.4719 18.5109C26.5526 18.7283 26.9719 19.7436 27.2592 20.4184C27.4127 20.7794 27.5426 21.085 27.5485 21.0973C27.5525 21.1116 27.521 21.126 27.4619 21.1363C27.212 21.1752 26.6097 21.3906 26.1177 21.6183L25.9031 21.7167L25.8303 21.487C25.791 21.3619 25.7103 21.1321 25.6532 20.9763C25.5941 20.8183 25.5469 20.683 25.5469 20.6748C25.5469 20.6645 25.6 20.5148 25.667 20.3404C25.7614 20.0882 25.7969 20.0184 25.8343 20C25.8992 19.9692 25.9445 19.8523 25.9386 19.7272C25.9346 19.6451 25.9405 19.6226 25.976 19.5959C26.0429 19.5487 26.0783 19.4564 26.0783 19.3375C26.0783 19.2493 26.1078 19.1467 26.2397 18.7939C26.3302 18.556 26.409 18.3673 26.4149 18.3735C26.4208 18.3817 26.4464 18.4432 26.4719 18.5109ZM20.6658 18.4247C20.6658 18.4288 20.7268 18.597 20.8016 18.8001C20.9335 19.159 21.1382 19.76 21.1382 19.7908C21.1382 19.801 21.026 19.8318 20.8882 19.8646C20.5812 19.9343 20.1462 20.0574 19.9101 20.1415C19.8136 20.1743 19.7309 20.1989 19.727 20.1948C19.7113 20.1805 20.6284 18.4186 20.6501 18.4186C20.658 18.4186 20.6658 18.4227 20.6658 18.4247ZM40.7097 18.7345C41.1565 19.1488 41.5777 19.7928 41.7902 20.3876C41.9142 20.7363 41.9654 21.0255 41.9772 21.4378C41.9871 21.8664 41.9654 22.0941 41.8729 22.4694C41.7233 23.0807 41.4694 23.5955 40.9439 24.3523C40.818 24.5349 40.818 24.5349 40.8534 24.58C41.0384 24.7974 41.4261 25.5112 41.5875 25.9357C42.1189 27.3202 42.0678 28.5714 41.434 29.6318C41.2687 29.9128 41.1014 30.1261 40.8317 30.4091C40.5326 30.7188 40.3436 30.8809 39.9736 31.1393L39.7079 31.3239L39.7591 31.5413C40.0307 32.6715 39.9264 33.9411 39.4875 34.8558C39.2946 35.2558 39.1234 35.506 38.8124 35.8404C38.4621 36.2157 38.1216 36.4741 37.6315 36.7326C37.1493 36.989 36.8068 37.1202 36.2046 37.2782L35.7913 37.3869L35.7794 37.6494C35.746 38.3632 35.4901 39.1651 35.1004 39.7702C34.5356 40.6501 33.6755 41.2408 32.5438 41.5239C32.3922 41.5628 32.1954 41.6039 32.1068 41.6182C32.0183 41.6326 31.9356 41.649 31.9238 41.6572C31.908 41.6674 31.91 41.7146 31.9258 41.8233C31.9395 41.9197 31.9435 42.1125 31.9376 42.3545C31.9238 42.8796 31.847 43.2098 31.6482 43.6262C31.3845 44.1697 30.9791 44.5779 30.3985 44.8774C29.9851 45.0886 29.5561 45.224 29.0443 45.2999L28.7924 45.3389L28.694 45.5358C28.4539 46.0239 28.1193 46.4874 27.6745 46.951C26.6904 47.9724 25.4505 48.5877 24.0826 48.7334C23.7893 48.7662 23.0178 48.7477 22.7423 48.7047C22.1105 48.6062 21.5633 48.4298 21.0103 48.1488C19.3629 47.3079 18.182 45.6588 17.8927 43.7944C17.7057 42.6027 17.8632 41.4746 18.3552 40.4471C18.9279 39.2533 19.9081 38.2832 21.2563 37.5776C21.6932 37.3479 22.077 37.1879 22.634 37.0013C23.3288 36.7674 23.6555 36.6075 24.0294 36.3121C24.6593 35.8178 25.0864 35.0794 25.2222 34.2446C25.3009 33.7565 25.2969 33.0755 25.2143 32.6756C25.0273 31.7854 24.4802 31.0614 23.6771 30.6388L23.5098 30.5527L23.2107 30.5383C22.0534 30.4789 21.028 30.124 20.221 29.5026C20.0518 29.3733 19.8549 29.1928 19.9041 29.2134C20.0773 29.2831 21.9215 29.7528 21.9392 29.7323C21.9451 29.7261 21.9255 29.6502 21.894 29.562C21.8507 29.4328 21.8389 29.3672 21.8389 29.2175C21.8389 28.9898 21.892 28.8544 22.0455 28.6842C22.2443 28.4647 22.4293 28.395 22.7619 28.4134C23.2815 28.4442 23.8326 28.6698 24.4742 29.1149C25.8028 30.0338 26.531 31.1639 26.7514 32.6427C26.7849 32.8704 26.7928 33.0242 26.7947 33.3811C26.7947 33.9821 26.7455 34.3779 26.5979 34.9379C26.47 35.4199 26.3263 35.7665 26.0685 36.2116C25.8106 36.6567 25.6709 36.9869 25.5745 37.3807C25.5253 37.5776 25.5193 37.6432 25.5193 37.8935C25.5213 38.2319 25.5587 38.4083 25.6847 38.6585C25.9287 39.1487 26.4621 39.5241 27.1018 39.6574C27.4659 39.7333 28.0366 39.7169 28.5149 39.6143C29.4675 39.4154 30.55 38.7365 31.1877 37.9386C31.7447 37.2453 32.0832 36.3593 32.2111 35.2579C32.2505 34.9215 32.2544 34.1728 32.221 33.8631C32.2072 33.7442 32.1678 33.4632 32.1304 33.2376C31.8293 31.3649 31.9612 29.7364 32.5339 28.2863C32.902 27.353 33.4294 26.5203 34.1281 25.7737C34.7304 25.1297 35.315 24.6661 36.1652 24.1616C37.4406 23.4047 38.6569 22.2233 39.4304 20.9886C39.8457 20.3281 40.2157 19.5098 40.4204 18.8042C40.4834 18.5847 40.4991 18.5499 40.5247 18.5683C40.5405 18.5806 40.6231 18.6565 40.7097 18.7345ZM6.41625 18.6298C6.41625 18.7324 6.71738 19.5692 6.90239 19.9774C7.65226 21.6367 9.08116 23.1996 10.7561 24.1923C12.12 25.0005 13.1218 25.9911 13.8461 27.2464C14.8381 28.9652 15.1333 30.9301 14.7515 33.2786C14.6609 33.8365 14.6432 34.0436 14.6432 34.5379C14.6432 36.0824 15.0939 37.3499 15.956 38.234C16.6134 38.9108 17.499 39.4277 18.304 39.6082C18.4182 39.6348 18.5146 39.6574 18.5166 39.6594C18.5205 39.6635 18.4693 39.7558 18.4024 39.8666C18.2528 40.1127 18.0167 40.6111 17.9202 40.886C17.8179 41.1731 17.7195 41.5587 17.6604 41.9033C17.6112 42.1802 17.6073 42.2417 17.6073 42.8263C17.6053 43.3329 17.6112 43.497 17.6407 43.6877C17.7155 44.1882 17.8395 44.6702 17.999 45.0907C18.0462 45.2158 18.0816 45.3224 18.0757 45.3265C18.058 45.345 17.5955 45.2589 17.3101 45.185C15.8753 44.8056 15.0664 43.8785 14.9581 42.492C14.9384 42.2438 14.9542 41.8377 14.9896 41.7044C15.0034 41.6531 15.0093 41.6551 14.7219 41.6059C13.9898 41.4787 13.2852 41.1854 12.7282 40.7752C12.49 40.5988 12.1161 40.2194 11.935 39.9712C11.4626 39.3149 11.1851 38.5375 11.1182 37.6761L11.0946 37.3746L10.8565 37.3212C9.62831 37.0443 8.57534 36.4536 7.93568 35.6783C7.44561 35.0856 7.15825 34.4067 7.03229 33.5555C6.99096 33.2663 6.98505 32.5012 7.02442 32.1915C7.05394 31.9433 7.1366 31.5147 7.174 31.4039L7.20155 31.3239L7.02048 31.2049C6.5678 30.9055 6.0423 30.4317 5.76085 30.0687C5.36721 29.56 5.09757 28.9631 4.9972 28.3745C4.94209 28.0525 4.93618 27.4802 4.98736 27.1418C5.10938 26.3111 5.48924 25.3615 5.96947 24.6805C6.01868 24.6128 6.06395 24.5287 6.06985 24.4959C6.08166 24.4405 6.07576 24.4282 6.01671 24.3892C5.89665 24.3134 5.53254 23.737 5.34359 23.3309C5.05624 22.7074 4.93618 22.1926 4.93815 21.5772C4.93815 20.7589 5.20582 20.0143 5.75494 19.2903C5.90649 19.0913 6.36311 18.6032 6.39854 18.6032C6.40838 18.6032 6.41625 18.6155 6.41625 18.6298ZM26.0409 18.6996C26.0212 18.755 25.9917 18.8288 25.976 18.8678L25.9484 18.9375L25.8461 18.8001C25.789 18.7242 25.726 18.6565 25.7083 18.6483C25.6768 18.636 25.8126 18.6155 26.0035 18.6073L26.0783 18.6032L26.0409 18.6996ZM25.0155 19.5815C25.0155 19.5918 24.8935 19.8851 24.7439 20.2358L24.4723 20.8758L24.4309 20.7076C24.4073 20.6153 24.3758 20.5045 24.3581 20.4635C24.3306 20.3897 24.3266 20.3876 24.2735 20.4122C24.1672 20.4594 24.0117 20.5722 23.9133 20.6727C23.8326 20.7507 23.809 20.765 23.8011 20.7383C23.7637 20.6153 23.6653 20.445 23.5807 20.3589L23.4823 20.2584L23.4095 20.3158C23.3209 20.3876 23.1989 20.5804 23.1654 20.7035C23.1516 20.7548 23.1359 20.7978 23.132 20.7978C23.128 20.7978 23.0827 20.7609 23.0316 20.7158C22.9804 20.6727 22.9194 20.6194 22.8938 20.5989L22.8485 20.562L23.1595 20.3835C23.3307 20.2851 23.498 20.1948 23.5295 20.1805C23.563 20.1681 23.7086 20.1517 23.8562 20.1435C24.0964 20.1292 24.1357 20.123 24.2499 20.0656C24.3188 20.0328 24.4605 19.9323 24.5628 19.8441C24.7655 19.6718 25.0155 19.5262 25.0155 19.5815ZM25.358 19.6267C25.4367 19.682 25.5882 19.8789 25.5804 19.9159C25.5587 19.9959 24.6553 22.3689 24.6376 22.3915C24.6258 22.4059 24.551 22.4551 24.4703 22.5023C24.301 22.5987 24.2912 22.5987 24.0629 22.4941L23.9114 22.4243L24.055 22.3525C24.4073 22.1782 24.7242 21.8049 24.9171 21.3352C24.9938 21.1506 25.1021 20.7999 25.0883 20.7855C25.0804 20.7773 24.8187 20.8429 24.7537 20.8696C24.7144 20.886 24.6829 20.9701 25.0253 20.162C25.1513 19.8646 25.2596 19.6123 25.2635 19.6041C25.2792 19.5795 25.295 19.5836 25.358 19.6267ZM23.5374 20.6891C23.6299 20.8901 23.6614 21.2634 23.6161 21.6388C23.5925 21.8521 23.5217 22.2172 23.502 22.2397C23.4685 22.2746 23.4252 22.2274 23.4154 22.1454C23.4095 22.0982 23.3858 21.9485 23.3642 21.8131C23.317 21.5362 23.3091 21.0952 23.3445 20.9168C23.3681 20.8019 23.4547 20.5927 23.4784 20.5927C23.4862 20.5927 23.5118 20.6358 23.5374 20.6891ZM22.4884 20.8676L22.4687 20.9968L22.3545 20.9435C22.2935 20.9147 22.2423 20.884 22.2404 20.8778C22.2404 20.8717 22.2994 20.8388 22.3742 20.804C22.447 20.7691 22.5061 20.7383 22.5061 20.7383C22.5061 20.7363 22.4982 20.7958 22.4884 20.8676ZM24.2243 20.8224C24.2361 20.8717 24.2518 20.9681 24.2597 21.0378L24.2715 21.165L24.1593 21.2737C24.0964 21.3332 24.0019 21.4357 23.9507 21.4993L23.8562 21.6162L23.8641 21.3578C23.87 21.1609 23.8799 21.087 23.9054 21.046C23.9487 20.9804 24.1711 20.7363 24.1889 20.7363C24.1967 20.7363 24.2125 20.7753 24.2243 20.8224ZM23.0001 21.0111L23.0867 21.1096V21.3208C23.0867 21.4378 23.0926 21.5506 23.1005 21.5711C23.1083 21.5916 23.0198 21.5054 22.9036 21.3824L22.6911 21.1568L22.7029 21.0132C22.7088 20.9332 22.7186 20.8491 22.7245 20.8245C22.7364 20.7773 22.7364 20.7794 22.8249 20.845C22.8741 20.8799 22.9528 20.9558 23.0001 21.0111ZM22.1183 21.5075C22.1616 21.5977 22.2482 21.7413 22.3073 21.8254C22.3978 21.9485 22.4116 21.9792 22.384 21.9833C22.1951 22.0182 21.77 22.209 21.5082 22.3751C21.1264 22.6151 20.9729 22.8181 21.0103 23.0273C21.0437 23.2119 21.2051 23.2242 21.459 23.0663L21.5712 22.9945V23.1299C21.5712 23.2447 21.5594 23.2878 21.4944 23.4252C21.3921 23.6345 21.3586 23.7862 21.396 23.8642C21.4393 23.9565 21.5121 23.9688 21.6342 23.9093C21.6913 23.8806 21.766 23.8375 21.7995 23.8129L21.8625 23.7698L21.8152 23.9011C21.7503 24.0918 21.709 24.3441 21.709 24.5595C21.709 24.9 21.7916 25.1953 22.0514 25.8086C22.1577 26.0547 22.5454 26.8833 22.5671 26.908C22.575 26.9182 22.6576 26.8854 23.1949 26.6639C24.0413 26.3131 24.5313 26.065 24.7262 25.8865C25.0194 25.6178 25.1867 25.343 25.2733 24.982C25.3088 24.8384 25.3127 24.7707 25.3048 24.5738C25.291 24.2272 25.2025 23.936 25.0057 23.5893C24.9466 23.4847 24.8974 23.3965 24.8974 23.3924C24.8974 23.3904 24.9565 23.3822 25.0312 23.374C25.1041 23.3658 25.3402 23.3227 25.5567 23.2755C26.0626 23.1689 26.0586 23.1689 26.0586 23.1914C26.0586 23.1996 26.0862 23.3329 26.1196 23.4847C26.3853 24.7113 26.5822 26.3419 26.6491 27.8802C26.6865 28.7355 26.6707 30.2204 26.6176 31.0552L26.6058 31.2501L26.4916 31.0203C26.1255 30.2779 25.6138 29.6769 24.8541 29.1005C24.1259 28.5447 23.4606 28.2432 22.8328 28.1776C22.5612 28.1509 22.3781 28.1796 22.1754 28.2842C21.8192 28.4668 21.6106 28.8175 21.6106 29.2298C21.6106 29.361 21.6047 29.4123 21.5869 29.4123C21.5732 29.4123 21.2838 29.3405 20.9433 29.2544L20.3253 29.0944L20.3371 28.3868C20.3745 26.3296 20.6363 24.2826 21.1185 22.3054C21.215 21.9136 21.4059 21.208 21.4177 21.1998C21.4216 21.1978 21.5338 21.1547 21.6696 21.1034L21.9156 21.0111L21.9766 21.1752C22.0101 21.2675 22.0731 21.4152 22.1183 21.5075ZM25.4997 21.2203C25.539 21.3311 25.6 21.5116 25.6355 21.6183L25.6985 21.8131L25.3304 22.0121L24.9604 22.211L25.1178 21.7967C25.2044 21.569 25.3068 21.2962 25.3442 21.1916C25.3835 21.087 25.417 21.005 25.4209 21.0091C25.4249 21.0132 25.4603 21.1075 25.4997 21.2203ZM22.4766 21.2962C22.6065 21.3865 22.8663 21.6695 22.9706 21.8336C23.0965 22.0346 23.1516 22.131 23.1379 22.131C23.0867 22.131 22.8387 22.0428 22.7934 22.01C22.6163 21.8787 22.3171 21.4439 22.2187 21.1732L22.201 21.1219L22.2935 21.1793C22.3467 21.2101 22.4273 21.2634 22.4766 21.2962ZM24.74 21.1568C24.74 21.1957 24.6041 21.4665 24.5136 21.608C24.3404 21.8808 24.0472 22.129 23.8169 22.2028C23.7696 22.2172 23.7696 22.2172 23.8346 22.0982C24.0275 21.7372 24.2833 21.4378 24.553 21.2532C24.7006 21.1527 24.74 21.1321 24.74 21.1568ZM21.768 22.5064C21.768 22.6602 21.398 23.013 21.2366 23.013C21.1815 23.013 21.1776 23.0089 21.1776 22.9371C21.1776 22.8735 21.1933 22.8468 21.2819 22.7566C21.3665 22.6704 21.6972 22.4633 21.7542 22.4592C21.7621 22.4592 21.768 22.4797 21.768 22.5064ZM22.6537 23.4847C22.9647 23.5934 23.1457 23.6283 23.4016 23.6283C23.6614 23.6283 23.7303 23.6119 24.0452 23.4827C24.2617 23.3924 24.2991 23.3822 24.4428 23.3822H24.6002L24.7026 23.5298C24.8364 23.7309 24.986 24.0529 25.0371 24.2539C25.0883 24.4631 25.0942 24.7728 25.047 24.9594C24.9899 25.1912 24.8679 25.4025 24.6809 25.5973C24.4388 25.8496 24.1515 26.0055 23.1654 26.4198L22.6832 26.6229L22.5671 26.3808C22.2699 25.7676 22.0317 25.181 21.9747 24.9205C21.8979 24.5738 21.9432 24.1452 22.0908 23.8252C22.1931 23.6057 22.3545 23.376 22.3939 23.3924C22.4116 23.4006 22.5297 23.4417 22.6537 23.4847ZM0.356242 23.9667C1.32065 26.8936 3.11169 29.2708 5.43216 30.7106C5.83564 30.9588 6.44184 31.2665 6.80201 31.4018L6.92207 31.447L6.8768 31.6664C6.65834 32.7207 6.74494 33.8529 7.11495 34.7553C7.43773 35.543 7.94749 36.1583 8.7072 36.6772C8.8371 36.7654 8.93748 36.8372 8.93158 36.8372C8.92567 36.8372 8.76822 36.7818 8.57927 36.7162C6.37492 35.9368 4.57798 34.6897 3.21994 32.9955C1.57454 30.9404 0.572741 28.2432 0.305069 25.1563C0.259801 24.6231 0.220438 23.6242 0.246024 23.6509C0.24996 23.657 0.299165 23.7985 0.356242 23.9667ZM46.756 24.0529C46.6831 26.2373 46.3033 28.1386 45.5888 29.8841C44.3016 33.0304 42.0579 35.2743 38.96 36.5152C38.6668 36.63 37.8519 36.9192 37.8145 36.9192C37.8067 36.9192 37.8795 36.872 37.9759 36.8146C38.7711 36.3388 39.3556 35.6988 39.7158 34.9071C40.1389 33.978 40.2511 32.7986 40.0228 31.6705C40.0071 31.5885 39.9933 31.5106 39.9933 31.4962C39.9933 31.4818 40.0307 31.4593 40.0779 31.4449C40.2433 31.3936 40.6585 31.209 40.9577 31.0532C43.2211 29.8759 45.0869 27.7653 46.2088 25.1153C46.3761 24.7236 46.5788 24.178 46.6831 23.8478C46.7186 23.7391 46.752 23.6488 46.7579 23.6488C46.7638 23.6488 46.7638 23.8314 46.756 24.0529ZM26.9896 24.8794C27.8733 26.7193 28.5031 28.879 28.8042 31.0942C28.881 31.6685 28.9696 31.9105 29.1782 32.132C29.4203 32.3884 29.7175 32.3987 29.9261 32.1587C30.0914 31.9679 30.2016 31.6275 30.3197 30.9404C30.4083 30.4337 30.4673 30.1363 30.5559 29.7897C30.9259 28.3314 31.5676 27.0577 32.469 25.987C32.6914 25.7224 33.1362 25.263 33.3606 25.064C33.4609 24.9738 33.4314 25.0148 33.2149 25.2589C32.0537 26.5695 31.351 27.9602 31.048 29.5456C30.8196 30.7414 30.8275 31.7854 31.0775 33.1555C31.1582 33.6067 31.1818 33.8672 31.1818 34.3144C31.1838 34.8764 31.1267 35.2804 30.9889 35.7193C30.7429 36.5049 30.2351 37.1407 29.5817 37.4833C29.3199 37.6207 29.1821 37.6617 28.9381 37.672C28.5208 37.6925 28.2492 37.5858 27.9678 37.2905C27.4915 36.7941 27.3734 36.0311 27.5426 34.5646C27.6686 33.4837 27.6863 31.3301 27.582 29.761C27.4501 27.7448 27.1411 25.8681 26.7081 24.4631C26.6629 24.3175 26.6215 24.1841 26.6176 24.1657C26.592 24.0795 26.7711 24.4221 26.9896 24.8794ZM20.1502 24.6374C19.9711 25.2589 19.8097 25.9604 19.6699 26.7459C19.5932 27.1725 19.4593 28.1263 19.4239 28.5037L19.4003 28.7539L19.2547 28.6698C19.1759 28.6247 19.111 28.5939 19.111 28.6001C19.111 28.6083 19.17 28.6965 19.2409 28.799L19.3727 28.9857L19.3393 29.4082C19.2665 30.3784 19.2586 30.6204 19.2586 32.0172C19.2586 33.4837 19.2763 33.9657 19.3472 34.5605C19.483 35.6845 19.4377 36.4065 19.1995 36.8987C19.0263 37.2597 18.7488 37.5161 18.4083 37.6289C18.2568 37.6781 17.9045 37.6904 17.7313 37.6494C17.2825 37.5448 16.7393 37.153 16.391 36.6874C16.0721 36.2547 15.8714 35.7563 15.7631 35.1225C15.7218 34.8907 15.7178 34.7923 15.7178 34.3144C15.7178 33.7401 15.7336 33.5534 15.834 33.0427C15.8969 32.7207 15.954 32.2818 15.9835 31.9064C16.017 31.4654 15.9954 30.5609 15.9422 30.1507C15.6942 28.235 14.9148 26.59 13.5607 25.1379L13.3147 24.8712L13.5017 25.0353C13.9327 25.4086 14.4405 25.9686 14.7948 26.4526C15.1628 26.9572 15.4088 27.3715 15.6883 27.9643C16.1154 28.8667 16.3536 29.6605 16.5819 30.9547C16.7059 31.6664 16.8082 31.9761 16.9834 32.1669C17.1271 32.3248 17.2904 32.3658 17.501 32.292C17.69 32.2264 17.8848 31.9741 17.9911 31.6541C18.0127 31.5885 18.056 31.3506 18.0875 31.125C18.3887 29.0062 18.9299 27.0946 19.7309 25.3307C19.8235 25.1297 19.914 24.9348 19.9337 24.8959C19.9553 24.8589 20.0301 24.7113 20.1029 24.5656C20.1758 24.4221 20.2368 24.3052 20.2407 24.3052C20.2427 24.3052 20.2033 24.4549 20.1502 24.6374ZM20.3903 24.8794C20.225 26.028 20.1305 27.191 20.1029 28.434C20.0892 29.0185 20.0892 29.0226 20.0478 29.0103C20.0242 29.0041 19.9199 28.9693 19.8156 28.9344C19.6384 28.8749 19.6227 28.8667 19.6227 28.8175C19.6227 28.7355 19.7132 27.9622 19.7703 27.5663C19.8746 26.8464 20.0262 26.0486 20.1836 25.3963C20.2722 25.0333 20.4316 24.4651 20.4415 24.4754C20.4454 24.4774 20.4218 24.66 20.3903 24.8794ZM20.8922 30.1938C21.5358 30.5178 22.2935 30.7168 23.0788 30.766L23.4311 30.7886L23.6299 30.8911C23.8897 31.0265 24.12 31.209 24.3581 31.4695C24.7616 31.9126 24.9781 32.4151 25.0371 33.0509C25.0667 33.3606 25.0371 33.9841 24.9781 34.298C24.8206 35.1163 24.4014 35.7747 23.75 36.228C23.4154 36.4598 23.1005 36.6013 22.388 36.8372C22.2148 36.8946 21.953 36.9931 21.8074 37.0546C21.6617 37.1182 21.524 37.1736 21.5003 37.1797C21.461 37.1879 21.4511 37.1592 21.3389 36.7408C20.9 35.104 20.5969 33.3504 20.4415 31.5352C20.4021 31.0962 20.3509 30.2286 20.3509 30.0338V29.8861L20.4848 29.9702C20.5576 30.0174 20.7406 30.1179 20.8922 30.1938ZM1.71822 32.934C3.89896 35.7152 6.49891 37.3233 9.29963 37.6268C9.64799 37.6658 10.3231 37.6761 10.6596 37.6514L10.8761 37.635L10.9017 37.8566C11.0297 39.0175 11.5532 40.0717 12.3365 40.7568C12.801 41.1608 13.2675 41.4234 13.9248 41.649L14.1807 41.7372H13.5017C12.8128 41.7392 12.431 41.7228 11.8976 41.6674C9.40984 41.407 7.25076 40.4901 5.45775 38.9334C3.92061 37.5981 2.66294 35.7563 1.8304 33.617C1.70247 33.2888 1.48991 32.6735 1.50369 32.6735C1.50959 32.6735 1.60406 32.7904 1.71822 32.934ZM45.4078 32.9545C44.9275 34.38 44.2387 35.7316 43.4179 36.8679C42.0323 38.7816 40.2688 40.1538 38.1629 40.9557C37.1867 41.327 36.1022 41.571 34.8957 41.69C34.4942 41.729 32.7898 41.7577 32.7898 41.7249C32.7898 41.7126 32.8587 41.6838 32.9433 41.6592C33.148 41.5957 33.5082 41.4459 33.7227 41.3352C34.7009 40.8245 35.4035 39.9835 35.7716 38.8882C35.8739 38.5785 35.9526 38.2278 35.992 37.8996L36.0255 37.6125L36.0845 37.6248C36.2321 37.6535 36.8797 37.6802 37.1296 37.6679C37.7004 37.6412 38.2436 37.5694 38.7534 37.4504C41.1585 36.8946 43.3825 35.3543 45.2818 32.934C45.3959 32.7904 45.4904 32.6735 45.4963 32.6735C45.5003 32.6735 45.4609 32.8007 45.4078 32.9545ZM40.5326 41.2101C40.4361 41.3803 40.0051 41.889 39.6764 42.2212C38.592 43.3144 37.2516 44.141 35.6633 44.6928C34.5769 45.0722 33.5534 45.2814 32.219 45.4024C31.7919 45.4394 30.4044 45.4619 29.9655 45.4373L29.6702 45.4209L29.9556 45.3224C30.491 45.1399 30.9358 44.8733 31.2802 44.5287C31.5203 44.2908 31.6915 44.0549 31.8313 43.7718C32.0616 43.3103 32.16 42.9001 32.1737 42.3279C32.1797 42.1289 32.1895 41.9648 32.1934 41.9648C32.1993 41.9648 32.2289 41.9833 32.2603 42.0059C32.4631 42.1576 33.0378 42.3853 33.5259 42.5084C35.4921 43.0047 37.7161 42.6889 39.7866 41.6141C39.9815 41.5136 40.2295 41.3762 40.3377 41.3106C40.566 41.1711 40.5503 41.1793 40.5326 41.2101ZM6.70754 41.3413C7.87073 42.0223 9.21696 42.4961 10.4569 42.6622C11.9153 42.8571 13.4466 42.6622 14.4779 42.1494L14.716 42.0325L14.7278 42.3833C14.7731 43.817 15.5505 44.8445 16.9539 45.3265L17.2471 45.427L16.8948 45.4414C16.4146 45.4619 15.2258 45.4394 14.781 45.4024C13.48 45.2876 12.4192 45.0702 11.3367 44.6928C9.54958 44.0713 8.03803 43.0765 6.91813 41.7864C6.73116 41.571 6.44577 41.2059 6.46545 41.2059C6.47136 41.2059 6.57961 41.2675 6.70754 41.3413Z" fill="black"/>
<path d="M33.394 16.4085C33.2956 16.4885 33.3113 16.6485 33.4235 16.7079C33.5416 16.7715 33.6754 16.6813 33.6754 16.5377C33.6754 16.3941 33.5062 16.3162 33.394 16.4085Z" fill="white"/>
<path d="M33.4078 17.0116C33.2916 17.0649 33.2739 17.229 33.3743 17.311C33.4904 17.4054 33.6558 17.3274 33.6558 17.1797C33.6558 17.0423 33.5278 16.9562 33.4078 17.0116Z" fill="white"/>
<path d="M33.3054 17.711C33.2169 17.7889 33.2169 17.8997 33.3035 17.9756C33.3979 18.0597 33.5121 18.0371 33.5672 17.9263C33.6263 17.8074 33.5672 17.6884 33.4353 17.6679C33.3822 17.6577 33.3566 17.6659 33.3054 17.711Z" fill="white"/>
<path d="M31.8825 17.8423C31.8432 17.8833 31.8254 17.9223 31.8254 17.9674C31.8254 18.0125 31.8432 18.0515 31.8825 18.0925C31.9219 18.1335 31.9593 18.152 32.0026 18.152C32.0459 18.152 32.0833 18.1335 32.1226 18.0925C32.162 18.0515 32.1797 18.0125 32.1797 17.9674C32.1797 17.9223 32.162 17.8833 32.1226 17.8423C32.0833 17.8012 32.0459 17.7828 32.0026 17.7828C31.9593 17.7828 31.9219 17.8012 31.8825 17.8423Z" fill="white"/>
<path d="M33.1145 18.2996C33.085 18.3284 33.0594 18.3776 33.0535 18.4206C33.0437 18.4822 33.0516 18.5068 33.0988 18.5622C33.1441 18.6155 33.1697 18.6278 33.2326 18.6278C33.2956 18.6278 33.3212 18.6155 33.3665 18.5622C33.4137 18.5068 33.4216 18.4822 33.4117 18.4206C33.398 18.3263 33.3212 18.2545 33.2326 18.2545C33.1913 18.2545 33.146 18.273 33.1145 18.2996Z" fill="white"/>
<path d="M32.1856 18.3878C32.1128 18.4206 32.0813 18.4739 32.0813 18.5662C32.0833 18.7282 32.2525 18.8021 32.3746 18.6934C32.4789 18.6031 32.4533 18.4411 32.3273 18.3857C32.2486 18.3529 32.2643 18.3508 32.1856 18.3878Z" fill="white"/>
<path d="M32.7052 18.6873C32.6875 18.6976 32.6579 18.7365 32.6402 18.7693C32.5772 18.8965 32.6658 19.0339 32.8095 19.0339C32.8685 19.0339 32.8961 19.0216 32.9355 18.9704C33.0043 18.8863 33.0024 18.8001 32.9295 18.7242C32.8685 18.6606 32.7741 18.6463 32.7052 18.6873Z" fill="white"/>
<path d="M31.8372 16.4311C31.7683 16.5152 31.7703 16.6013 31.8431 16.6772C31.9632 16.8003 32.1502 16.7244 32.1502 16.5521C32.1502 16.4393 32.0773 16.3675 31.9632 16.3675C31.9041 16.3675 31.8785 16.3798 31.8372 16.4311Z" fill="white"/>
<path d="M22.4667 29.2461C22.445 29.2564 22.4017 29.2933 22.3682 29.3302C22.3171 29.3856 22.3092 29.4082 22.3092 29.5148C22.3092 29.6276 22.3151 29.642 22.382 29.7117C22.5552 29.8943 22.8505 29.7712 22.8505 29.5189C22.8505 29.4287 22.8032 29.3302 22.7383 29.281C22.6812 29.2379 22.5277 29.2174 22.4667 29.2461Z" fill="white"/>
</g>
<defs>
<clipPath id="clip0_2018_2">
<rect width="47" height="49" fill="white"/>
</clipPath>
</defs>
</svg>
