<svg width="221" height="49" viewBox="0 0 221 49" fill="none" xmlns="http://www.w3.org/2000/svg">
<path d="M61.368 10.832V22H59.128V17.248H54.344V22H52.104V10.832H54.344V15.424H59.128V10.832H61.368ZM71.8128 17.376C71.8128 17.696 71.7914 17.984 71.7488 18.24H65.2688C65.3221 18.88 65.5461 19.3813 65.9408 19.744C66.3354 20.1067 66.8208 20.288 67.3968 20.288C68.2288 20.288 68.8208 19.9307 69.1728 19.216H71.5888C71.3328 20.0693 70.8421 20.7733 70.1168 21.328C69.3914 21.872 68.5008 22.144 67.4448 22.144C66.5914 22.144 65.8234 21.9573 65.1408 21.584C64.4688 21.2 63.9408 20.6613 63.5568 19.968C63.1834 19.2747 62.9967 18.4747 62.9967 17.568C62.9967 16.6507 63.1834 15.8453 63.5568 15.152C63.9301 14.4587 64.4528 13.9253 65.1248 13.552C65.7968 13.1787 66.5701 12.992 67.4448 12.992C68.2874 12.992 69.0394 13.1733 69.7008 13.536C70.3728 13.8987 70.8901 14.416 71.2528 15.088C71.6261 15.7493 71.8128 16.512 71.8128 17.376ZM69.4928 16.736C69.4821 16.16 69.2741 15.7013 68.8688 15.36C68.4634 15.008 67.9674 14.832 67.3808 14.832C66.8261 14.832 66.3568 15.0027 65.9728 15.344C65.5994 15.6747 65.3701 16.1387 65.2848 16.736H69.4928ZM75.6878 10.16V22H73.4478V10.16H75.6878ZM77.3249 17.536C77.3249 16.64 77.5009 15.8453 77.8529 15.152C78.2155 14.4587 78.7062 13.9253 79.3249 13.552C79.9435 13.1787 80.6315 12.992 81.3889 12.992C81.9649 12.992 82.5142 13.12 83.0369 13.376C83.5595 13.6213 83.9755 13.952 84.2849 14.368V10.16H86.5569V22H84.2849V20.688C84.0075 21.1253 83.6182 21.4773 83.1169 21.744C82.6155 22.0107 82.0342 22.144 81.3729 22.144C80.6262 22.144 79.9435 21.952 79.3249 21.568C78.7062 21.184 78.2155 20.6453 77.8529 19.952C77.5009 19.248 77.3249 18.4427 77.3249 17.536ZM84.3009 17.568C84.3009 17.024 84.1942 16.56 83.9809 16.176C83.7675 15.7813 83.4795 15.4827 83.1169 15.28C82.7542 15.0667 82.3649 14.96 81.9489 14.96C81.5329 14.96 81.1489 15.0613 80.7969 15.264C80.4449 15.4667 80.1569 15.7653 79.9329 16.16C79.7195 16.544 79.6129 17.0027 79.6129 17.536C79.6129 18.0693 79.7195 18.5387 79.9329 18.944C80.1569 19.3387 80.4449 19.6427 80.7969 19.856C81.1595 20.0693 81.5435 20.176 81.9489 20.176C82.3649 20.176 82.7542 20.0747 83.1169 19.872C83.4795 19.6587 83.7675 19.36 83.9809 18.976C84.1942 18.5813 84.3009 18.112 84.3009 17.568ZM96.9846 17.376C96.9846 17.696 96.9633 17.984 96.9206 18.24H90.4406C90.494 18.88 90.718 19.3813 91.1126 19.744C91.5073 20.1067 91.9926 20.288 92.5686 20.288C93.4006 20.288 93.9926 19.9307 94.3446 19.216H96.7606C96.5046 20.0693 96.014 20.7733 95.2886 21.328C94.5633 21.872 93.6726 22.144 92.6166 22.144C91.7633 22.144 90.9953 21.9573 90.3126 21.584C89.6406 21.2 89.1126 20.6613 88.7286 19.968C88.3553 19.2747 88.1686 18.4747 88.1686 17.568C88.1686 16.6507 88.3553 15.8453 88.7286 15.152C89.102 14.4587 89.6246 13.9253 90.2966 13.552C90.9686 13.1787 91.742 12.992 92.6166 12.992C93.4593 12.992 94.2113 13.1733 94.8726 13.536C95.5446 13.8987 96.062 14.416 96.4246 15.088C96.798 15.7493 96.9846 16.512 96.9846 17.376ZM94.6646 16.736C94.654 16.16 94.446 15.7013 94.0406 15.36C93.6353 15.008 93.1393 14.832 92.5526 14.832C91.998 14.832 91.5286 15.0027 91.1446 15.344C90.7713 15.6747 90.542 16.1387 90.4566 16.736H94.6646ZM102.012 22.144C101.286 22.144 100.636 22.016 100.06 21.76C99.4836 21.4933 99.025 21.136 98.6836 20.688C98.353 20.24 98.1716 19.744 98.1396 19.2H100.396C100.438 19.5413 100.604 19.824 100.892 20.048C101.19 20.272 101.558 20.384 101.996 20.384C102.422 20.384 102.753 20.2987 102.988 20.128C103.233 19.9573 103.356 19.7387 103.356 19.472C103.356 19.184 103.206 18.9707 102.908 18.832C102.62 18.6827 102.156 18.5227 101.516 18.352C100.854 18.192 100.31 18.0267 99.8836 17.856C99.4676 17.6853 99.105 17.424 98.7956 17.072C98.497 16.72 98.3476 16.2453 98.3476 15.648C98.3476 15.1573 98.4863 14.7093 98.7636 14.304C99.0516 13.8987 99.457 13.5787 99.9796 13.344C100.513 13.1093 101.137 12.992 101.852 12.992C102.908 12.992 103.75 13.2587 104.38 13.792C105.009 14.3147 105.356 15.024 105.42 15.92H103.276C103.244 15.568 103.094 15.2907 102.828 15.088C102.572 14.8747 102.225 14.768 101.788 14.768C101.382 14.768 101.068 14.8427 100.844 14.992C100.63 15.1413 100.524 15.3493 100.524 15.616C100.524 15.9147 100.673 16.144 100.972 16.304C101.27 16.4533 101.734 16.608 102.364 16.768C103.004 16.928 103.532 17.0933 103.948 17.264C104.364 17.4347 104.721 17.7013 105.02 18.064C105.329 18.416 105.489 18.8853 105.5 19.472C105.5 19.984 105.356 20.4427 105.068 20.848C104.79 21.2533 104.385 21.5733 103.852 21.808C103.329 22.032 102.716 22.144 102.012 22.144ZM112.586 22L109.578 18.224V22H107.338V10.16H109.578V16.896L112.554 13.136H115.466L111.562 17.584L115.498 22H112.586ZM128.095 10.832V12.64H125.119V22H122.879V12.64H119.903V10.832H128.095ZM130.865 12.08C130.47 12.08 130.14 11.9573 129.873 11.712C129.617 11.456 129.489 11.1413 129.489 10.768C129.489 10.3947 129.617 10.0853 129.873 9.84C130.14 9.584 130.47 9.456 130.865 9.456C131.26 9.456 131.585 9.584 131.841 9.84C132.108 10.0853 132.241 10.3947 132.241 10.768C132.241 11.1413 132.108 11.456 131.841 11.712C131.585 11.9573 131.26 12.08 130.865 12.08ZM131.969 13.136V22H129.729V13.136H131.969ZM133.606 17.568C133.606 16.6507 133.793 15.8507 134.166 15.168C134.539 14.4747 135.057 13.9413 135.718 13.568C136.379 13.184 137.137 12.992 137.99 12.992C139.089 12.992 139.995 13.2693 140.71 13.824C141.435 14.368 141.921 15.136 142.166 16.128H139.75C139.622 15.744 139.403 15.4453 139.094 15.232C138.795 15.008 138.422 14.896 137.974 14.896C137.334 14.896 136.827 15.1307 136.454 15.6C136.081 16.0587 135.894 16.7147 135.894 17.568C135.894 18.4107 136.081 19.0667 136.454 19.536C136.827 19.9947 137.334 20.224 137.974 20.224C138.881 20.224 139.473 19.8187 139.75 19.008H142.166C141.921 19.968 141.435 20.7307 140.71 21.296C139.985 21.8613 139.078 22.144 137.99 22.144C137.137 22.144 136.379 21.9573 135.718 21.584C135.057 21.2 134.539 20.6667 134.166 19.984C133.793 19.2907 133.606 18.4853 133.606 17.568ZM149.055 22L146.047 18.224V22H143.807V10.16H146.047V16.896L149.023 13.136H151.935L148.031 17.584L151.967 22H149.055ZM161.391 17.376C161.391 17.696 161.37 17.984 161.327 18.24H154.847C154.9 18.88 155.124 19.3813 155.519 19.744C155.914 20.1067 156.399 20.288 156.975 20.288C157.807 20.288 158.399 19.9307 158.751 19.216H161.167C160.911 20.0693 160.42 20.7733 159.695 21.328C158.97 21.872 158.079 22.144 157.023 22.144C156.17 22.144 155.402 21.9573 154.719 21.584C154.047 21.2 153.519 20.6613 153.135 19.968C152.762 19.2747 152.575 18.4747 152.575 17.568C152.575 16.6507 152.762 15.8453 153.135 15.152C153.508 14.4587 154.031 13.9253 154.703 13.552C155.375 13.1787 156.148 12.992 157.023 12.992C157.866 12.992 158.618 13.1733 159.279 13.536C159.951 13.8987 160.468 14.416 160.831 15.088C161.204 15.7493 161.391 16.512 161.391 17.376ZM159.071 16.736C159.06 16.16 158.852 15.7013 158.447 15.36C158.042 15.008 157.546 14.832 156.959 14.832C156.404 14.832 155.935 15.0027 155.551 15.344C155.178 15.6747 154.948 16.1387 154.863 16.736H159.071ZM165.634 14.976V19.264C165.634 19.5627 165.703 19.7813 165.842 19.92C165.991 20.048 166.237 20.112 166.578 20.112H167.618V22H166.21C164.322 22 163.378 21.0827 163.378 19.248V14.976H162.322V13.136H163.378V10.944H165.634V13.136H167.618V14.976H165.634ZM170.365 12.08C169.97 12.08 169.64 11.9573 169.373 11.712C169.117 11.456 168.989 11.1413 168.989 10.768C168.989 10.3947 169.117 10.0853 169.373 9.84C169.64 9.584 169.97 9.456 170.365 9.456C170.76 9.456 171.085 9.584 171.341 9.84C171.608 10.0853 171.741 10.3947 171.741 10.768C171.741 11.1413 171.608 11.456 171.341 11.712C171.085 11.9573 170.76 12.08 170.365 12.08ZM171.469 13.136V22H169.229V13.136H171.469ZM178.594 13.008C179.65 13.008 180.503 13.344 181.154 14.016C181.805 14.6773 182.13 15.6053 182.13 16.8V22H179.89V17.104C179.89 16.4 179.714 15.8613 179.362 15.488C179.01 15.104 178.53 14.912 177.922 14.912C177.303 14.912 176.813 15.104 176.45 15.488C176.098 15.8613 175.922 16.4 175.922 17.104V22H173.682V13.136H175.922V14.24C176.221 13.856 176.599 13.5573 177.058 13.344C177.527 13.12 178.039 13.008 178.594 13.008ZM187.732 12.992C188.394 12.992 188.975 13.1253 189.476 13.392C189.978 13.648 190.372 13.984 190.66 14.4V13.136H192.916V22.064C192.916 22.8853 192.751 23.616 192.42 24.256C192.09 24.9067 191.594 25.4187 190.932 25.792C190.271 26.176 189.471 26.368 188.532 26.368C187.274 26.368 186.239 26.0747 185.428 25.488C184.628 24.9013 184.175 24.1013 184.068 23.088H186.292C186.41 23.4933 186.66 23.8133 187.044 24.048C187.439 24.2933 187.914 24.416 188.468 24.416C189.119 24.416 189.647 24.2187 190.052 23.824C190.458 23.44 190.66 22.8533 190.66 22.064V20.688C190.372 21.104 189.972 21.4507 189.46 21.728C188.959 22.0053 188.383 22.144 187.732 22.144C186.986 22.144 186.303 21.952 185.684 21.568C185.066 21.184 184.575 20.6453 184.212 19.952C183.86 19.248 183.684 18.4427 183.684 17.536C183.684 16.64 183.86 15.8453 184.212 15.152C184.575 14.4587 185.06 13.9253 185.668 13.552C186.287 13.1787 186.975 12.992 187.732 12.992ZM190.66 17.568C190.66 17.024 190.554 16.56 190.34 16.176C190.127 15.7813 189.839 15.4827 189.476 15.28C189.114 15.0667 188.724 14.96 188.308 14.96C187.892 14.96 187.508 15.0613 187.156 15.264C186.804 15.4667 186.516 15.7653 186.292 16.16C186.079 16.544 185.972 17.0027 185.972 17.536C185.972 18.0693 186.079 18.5387 186.292 18.944C186.516 19.3387 186.804 19.6427 187.156 19.856C187.519 20.0693 187.903 20.176 188.308 20.176C188.724 20.176 189.114 20.0747 189.476 19.872C189.839 19.6587 190.127 19.36 190.34 18.976C190.554 18.5813 190.66 18.112 190.66 17.568Z" fill="#333232"/>
<g clip-path="url(#clip0_2019_14)">
<path d="M23.4095 0.0943451C23.067 0.966049 22.4943 1.88493 21.9077 2.50025C21.3626 3.07045 21.0162 3.28376 19.9868 3.68166C18.4575 4.27237 17.8376 4.62516 17.251 5.23843C17.007 5.49276 16.8279 5.74299 16.7 6.00962C16.6212 6.17166 16.5071 6.50599 16.4756 6.67007L16.452 6.78493L16.2315 6.67417C15.9717 6.54496 15.6096 6.41779 15.338 6.36036C14.7515 6.23729 14.0961 6.24755 13.5214 6.39112C13.049 6.50804 12.8325 6.59418 12.1633 6.93261C11.5571 7.24027 11.3505 7.32641 10.9647 7.43717C9.73262 7.792 8.40017 7.68535 7.06575 7.12336C6.9201 7.06182 6.78823 7.00645 6.77446 7.00029C6.75674 6.99209 6.75084 7.03721 6.75084 7.18284C6.75084 7.66689 6.60323 8.37246 6.38673 8.92419C6.1348 9.56823 5.83367 10.0584 5.38296 10.563C4.23945 11.8429 3.50335 13.494 3.2593 15.3317C3.19632 15.8076 3.1786 16.0865 3.18057 16.6854C3.18057 17.3336 3.20025 17.6535 3.27898 18.275C3.49548 19.9712 4.10365 21.727 5.03262 23.3288C5.1704 23.5647 5.17236 23.5729 5.09757 23.4847C4.24535 22.5043 3.49745 21.085 3.08807 19.6759C2.69246 18.3058 2.54092 17.0956 2.56453 15.4548C2.57634 14.6877 2.59406 14.3759 2.66885 13.6847C2.68656 13.5227 2.6964 13.3873 2.6905 13.3812C2.68656 13.375 2.60586 13.4981 2.51336 13.654C1.72806 14.981 1.10808 16.9541 0.917171 18.7365C0.856158 19.3108 0.840412 19.6861 0.852221 20.3856C0.865999 21.2696 0.925044 21.8582 1.08447 22.6643C1.62375 25.4004 3.08413 27.9889 5.37115 30.2615C5.54041 30.4276 5.68803 30.5753 5.69787 30.5855C5.73723 30.6265 5.45184 30.446 5.15071 30.2409C3.37739 29.0288 1.95637 27.2505 1.01558 25.0579C0.686895 24.2928 0.472364 23.6591 0.20666 22.654C0.13187 22.3751 0.100379 22.2787 0.0925063 22.3156C0.0846336 22.3443 0.0649518 22.5515 0.0472383 22.7751C0.00787477 23.2796 0.0177156 24.5205 0.06692 25.0846C0.188947 26.4629 0.417255 27.6504 0.791208 28.838C1.66705 31.6234 3.22584 33.8262 5.40461 35.3625C5.83564 35.664 6.28832 35.9388 6.80004 36.2013C7.7369 36.6854 8.58715 37.0095 9.71294 37.313L10.1656 37.434L9.83103 37.4238C7.64045 37.3479 5.40461 36.3326 3.50335 34.5482C2.67672 33.7729 2.05674 33.0489 1.29112 31.97C1.14154 31.7587 1.01558 31.5885 1.01164 31.5926C0.999835 31.6049 1.13957 32.2325 1.20846 32.4787C1.43677 33.297 1.74184 34.0785 2.16303 34.9399C2.78891 36.2219 3.53091 37.3028 4.45792 38.2914C6.37689 40.3363 8.84104 41.5546 11.75 41.891C12.3464 41.9607 12.6239 41.9751 13.4544 41.9751C14.3933 41.9751 14.3519 41.9648 13.9937 42.1023C13.5922 42.254 12.9683 42.3956 12.4093 42.4612C12.0964 42.4961 11.0907 42.4961 10.7659 42.4612C9.12249 42.2787 7.62471 41.7044 6.08756 40.6686C5.92224 40.5578 5.7825 40.4676 5.77856 40.4676C5.76085 40.4676 6.03246 40.9762 6.13874 41.1403C6.51466 41.7249 7.07165 42.3525 7.68375 42.8837C9.35867 44.3379 11.5768 45.265 14.1217 45.5747C14.8577 45.6629 15.2652 45.6855 16.1882 45.6855C17.0129 45.6834 17.4164 45.667 18.0875 45.6034L18.2155 45.5911L18.2607 45.6855C18.4005 45.989 18.7232 46.4833 19.0047 46.8238C20.4297 48.5549 22.632 49.3343 24.7655 48.8646C25.3245 48.7416 25.9307 48.5078 26.4227 48.2268C27.4147 47.6607 28.2492 46.8177 28.8042 45.8209C28.8967 45.6568 28.9341 45.6075 28.9637 45.6096C29.6505 45.6916 31.3648 45.7121 32.1206 45.6506C33.9569 45.4968 35.4468 45.1235 36.8777 44.4589C38.5073 43.7021 39.9933 42.4694 40.8377 41.1752C40.9577 40.9906 41.2411 40.4676 41.2214 40.4676C41.2175 40.4676 41.0778 40.5578 40.9124 40.6686C39.3773 41.7044 37.8755 42.2787 36.2341 42.4612C35.9093 42.4961 34.9036 42.4961 34.5907 42.4612C34.0317 42.3956 33.4078 42.254 33.0063 42.1023C32.6402 41.9628 32.6205 41.971 33.2956 41.9813C36.1219 42.0264 38.5624 41.3454 40.6231 39.9384C42.7232 38.5067 44.4 36.2916 45.4176 33.6088C45.5475 33.2663 45.7168 32.7556 45.7994 32.452C45.8624 32.2243 45.9982 31.6028 45.9884 31.5926C45.9864 31.5885 45.8191 31.8141 45.6183 32.0931C45.0476 32.8889 44.5969 33.4365 44.0084 34.0457C42.4811 35.627 40.7333 36.7018 38.9226 37.1653C38.3322 37.3171 37.7437 37.4033 37.169 37.4238L36.8344 37.434L37.2871 37.313C38.403 37.0136 39.2552 36.6895 40.1803 36.2116C41.8591 35.3481 43.227 34.1769 44.3233 32.6633C45.8565 30.5445 46.7678 27.7817 46.9606 24.6641C47.0039 23.9667 46.9705 22.5412 46.9055 22.3218C46.8957 22.289 46.8563 22.4141 46.7658 22.7525C45.9588 25.8188 44.5004 28.1858 42.4004 29.8389C42.0678 30.0994 41.19 30.6942 41.312 30.5753C43.1148 28.8134 44.3174 27.1274 45.1204 25.2384C45.9923 23.1853 46.317 20.9968 46.0848 18.757C45.8959 16.948 45.268 14.9605 44.4571 13.6027C44.3804 13.4755 44.3134 13.375 44.3095 13.3812C44.3036 13.3853 44.3194 13.5678 44.341 13.7873C44.4138 14.4949 44.4256 14.6836 44.4355 15.4589C44.4512 16.5213 44.404 17.2413 44.2642 18.1048C44.0714 19.2944 43.7722 20.2789 43.29 21.3003C42.9082 22.1085 42.546 22.693 42.0363 23.3206C41.8119 23.5975 41.5304 23.9072 41.5718 23.8334C41.5875 23.8047 41.7076 23.5975 41.8375 23.3719C42.8649 21.5936 43.4494 19.8625 43.6541 17.994C43.8234 16.4455 43.6915 14.9789 43.2644 13.6601C43.1188 13.2109 43.0145 12.9504 42.8058 12.5115C42.4378 11.7403 42.052 11.1599 41.5049 10.5507C40.7117 9.66873 40.2472 8.555 40.1449 7.28744L40.1212 6.99619L39.9835 7.05977C38.6097 7.67509 37.1946 7.80636 35.9192 7.43512C35.5255 7.32026 35.2638 7.2095 34.7678 6.94902C33.827 6.45471 33.1952 6.27626 32.3962 6.27626C31.7506 6.27626 31.1621 6.41779 30.6209 6.69878L30.4477 6.78903L30.4358 6.73365C30.2174 5.70197 29.5876 4.95333 28.4204 4.34006C28.015 4.12469 27.7591 4.01394 27.0073 3.72063C26.0606 3.35144 25.913 3.2776 25.541 3.00071C24.8994 2.51666 24.2361 1.66136 23.7539 0.687107C23.6712 0.518917 23.5728 0.305607 23.5374 0.215359C23.502 0.125114 23.4665 0.0430717 23.4587 0.032814C23.4488 0.0225601 23.4272 0.0492249 23.4095 0.0943451ZM23.5571 0.818375C24.0826 1.90954 24.9053 2.89611 25.7103 3.40272C25.9012 3.52373 26.1885 3.655 26.6294 3.82524C27.2927 4.08162 27.5151 4.17187 27.7572 4.27853C29.3514 4.98409 30.1052 5.81683 30.2489 7.03106C30.2587 7.11515 30.2725 7.18694 30.2764 7.19309C30.2823 7.19719 30.3394 7.16027 30.4044 7.11105C30.6602 6.91415 31.0657 6.7316 31.475 6.627C31.8254 6.53675 32.0065 6.51624 32.406 6.51624C32.8055 6.51624 33.0457 6.54906 33.4472 6.65366C33.8191 6.75211 34.0396 6.84236 34.571 7.1172C35.0886 7.38384 35.3091 7.48024 35.6889 7.60741C36.1947 7.7756 36.6612 7.85353 37.2398 7.86995C38.0133 7.89046 38.6451 7.792 39.4284 7.52742C39.5879 7.47409 39.7158 7.43512 39.7138 7.44332C39.5013 7.85353 39.3222 8.48732 39.267 9.0288C39.2395 9.28313 39.2395 9.82051 39.2651 10.0933C39.3458 10.9137 39.5957 11.8059 39.9598 12.5628C40.4598 13.6027 40.6546 14.6282 40.6152 16.0188C40.5601 18.1068 40.009 19.8256 38.9147 21.3414C38.2003 22.33 37.0745 23.3596 36.0668 23.9462C34.4371 24.8959 33.2543 26.1675 32.5123 27.7612C31.7545 29.3918 31.5616 31.1803 31.9139 33.3401C32.0025 33.8754 32.0301 34.2569 32.0163 34.7041C31.973 35.9839 31.6325 37.0197 30.9928 37.8155C30.5224 38.398 29.6584 39.0011 28.9322 39.2533C28.4637 39.4133 28.0622 39.4728 27.5446 39.4564C27.0762 39.442 26.8124 39.3682 26.4424 39.1446C26.2476 39.0277 25.9878 38.7549 25.8953 38.5662C25.6059 37.9837 25.7299 37.2433 26.2692 36.3244C26.5231 35.8916 26.6609 35.5676 26.7987 35.0671C26.9541 34.499 27.023 33.9903 27.023 33.3914C27.023 32.8519 26.9797 32.4951 26.8538 31.9905L26.8026 31.7895L26.8341 31.2829C26.964 29.2503 26.9108 27.3018 26.6766 25.4558C26.651 25.2466 26.6333 25.0743 26.6373 25.0702C26.6491 25.0558 26.8577 25.9645 26.9325 26.3562C27.2848 28.196 27.4344 30.0728 27.4108 32.3453C27.399 33.5452 27.3773 34.0293 27.3183 34.5297C27.2572 35.0384 27.2395 35.2825 27.2395 35.6311C27.2395 36.2013 27.3202 36.6423 27.4954 37.0115C27.7001 37.4484 28.0288 37.7417 28.45 37.8648C28.5759 37.9017 28.6606 37.9119 28.8633 37.9119C29.1624 37.914 29.3179 37.8771 29.6151 37.7294C30.6248 37.233 31.2605 36.2034 31.3944 34.8497C31.4239 34.5564 31.4062 33.7647 31.3648 33.4837C31.3471 33.3709 31.3117 33.1596 31.2841 33.014C31.1562 32.3207 31.107 31.7341 31.1227 31.0429C31.1523 29.7753 31.4062 28.6903 31.9336 27.5766C32.3706 26.6557 32.902 25.9091 33.6991 25.0948C34.1872 24.5944 34.8131 24.0611 35.2756 23.7534C36.3089 23.0663 36.8324 22.6499 37.4426 22.0285C38.8616 20.5866 39.6725 18.9498 39.9047 17.0649C40.015 16.1665 39.9874 15.3625 39.8142 14.4764C39.7 13.8898 39.582 13.4858 39.1273 12.1116C38.9738 11.6521 38.8714 11.1886 38.7986 10.6245C38.7711 10.4051 38.7632 10.2143 38.7632 9.7118C38.7652 9.07392 38.7789 8.87702 38.8596 8.40322C38.8734 8.31503 38.8793 8.24734 38.8734 8.24939C38.8675 8.25349 38.777 8.29862 38.6746 8.354C38.3361 8.53039 37.9543 8.60423 37.3855 8.60218C36.4506 8.59807 35.4842 8.33144 34.4726 7.79406C33.8743 7.47614 33.5042 7.33667 32.9866 7.23616C32.8036 7.19925 32.6874 7.19104 32.3765 7.19104C32.036 7.19104 31.9651 7.19719 31.7447 7.24642C31.1424 7.37974 30.6209 7.65253 30.1013 8.10787L29.9025 8.28221L29.8907 8.00327C29.8493 7.08028 29.4203 6.18807 28.7235 5.58095C28.2531 5.17074 27.7768 4.9082 27.0152 4.63746C25.3639 4.05086 24.2597 3.25094 23.561 2.13721C23.5039 2.04491 23.4508 1.96902 23.4429 1.96902C23.437 1.96902 23.3878 2.04081 23.3327 2.12695C23.1674 2.39154 22.9725 2.64383 22.7344 2.90021C22.0376 3.64269 21.1598 4.17597 19.8589 4.64567C19.2625 4.86103 18.9358 5.02101 18.5461 5.29175C17.6191 5.93373 17.0956 6.84646 17.005 7.97865C16.9913 8.13043 16.9794 8.2576 16.9775 8.25965C16.9735 8.26375 16.9165 8.21452 16.8456 8.15094C16.3024 7.66074 15.7552 7.36948 15.1116 7.23616C14.8204 7.17669 14.2456 7.17053 13.9544 7.22591C13.417 7.32846 13.1002 7.44537 12.429 7.79406C11.7618 8.13863 11.3091 8.31092 10.6892 8.46065C9.68539 8.70063 8.68162 8.6432 8.14037 8.31298C8.07739 8.27605 8.02228 8.24529 8.02031 8.24939C8.01834 8.25349 8.03606 8.38887 8.05968 8.55295C8.19351 9.44312 8.16989 10.401 7.99276 11.2747C7.91206 11.6665 7.85695 11.8695 7.67785 12.3946C7.08149 14.1524 6.90436 15.0548 6.93388 16.1932C6.96734 17.3992 7.20549 18.4576 7.67982 19.5077C8.34112 20.966 9.55549 22.3484 11.0907 23.3924C11.254 23.5032 11.4745 23.655 11.5807 23.7267C12.1653 24.1267 12.9014 24.7625 13.3856 25.2856C14.7633 26.7705 15.5565 28.4934 15.7336 30.3866C15.8182 31.289 15.7789 32.0828 15.5998 33.053C15.5053 33.5657 15.4817 33.8262 15.4817 34.3246C15.4817 34.9092 15.5387 35.3255 15.6883 35.7993C15.8556 36.3347 16.082 36.7182 16.4638 37.1161C17.1507 37.8319 17.8868 38.0801 18.5678 37.8196C18.7705 37.7417 18.9378 37.6289 19.0952 37.4566C19.294 37.2412 19.4141 37.032 19.5026 36.7551C19.6739 36.2095 19.6995 35.5512 19.5833 34.6138C19.4731 33.7237 19.4397 31.9351 19.5046 30.4686C19.5263 30.0174 19.5558 29.5395 19.5755 29.3549L19.5873 29.2441L19.7073 29.3651C19.7742 29.4308 19.8923 29.5395 19.9691 29.6031L20.1088 29.72L20.1226 30.0933C20.2072 32.4705 20.6462 35.2579 21.2484 37.272C21.2563 37.3007 21.2169 37.3294 21.0634 37.4094C20.6599 37.6207 20.1738 37.9468 19.79 38.2647C19.4475 38.5478 18.8886 39.1385 18.7095 39.4031L18.6819 39.4461L18.4674 39.4031C17.7943 39.2697 17.1507 38.9457 16.4933 38.4144C15.6194 37.7089 15.1175 36.7551 14.9286 35.4486C14.8381 34.8189 14.8479 34.1113 14.9581 33.4509C15.1077 32.5381 15.1431 32.052 15.1294 31.2029C15.1175 30.5507 15.09 30.2389 14.9975 29.7302C14.7593 28.4401 14.2378 27.2669 13.4308 26.2126C13.2005 25.9132 12.5963 25.2671 12.3109 25.0189C11.8681 24.6354 11.4095 24.3052 10.8545 23.977C9.66571 23.2714 8.54975 22.2213 7.7861 21.087C6.63669 19.3805 6.11709 17.2064 6.30013 14.8805C6.36508 14.0478 6.55205 13.3709 6.95356 12.5115C7.3039 11.7608 7.5204 10.9958 7.60896 10.1938C7.63258 9.9887 7.63849 9.7959 7.63061 9.44516C7.62077 8.91599 7.58338 8.63704 7.46726 8.22273C7.40231 7.98685 7.24879 7.58279 7.19171 7.4905C7.174 7.46383 7.16416 7.43922 7.16809 7.43512C7.17203 7.43102 7.32161 7.47614 7.49875 7.53562C8.14431 7.75508 8.68162 7.85353 9.33112 7.86995C9.93731 7.88635 10.3683 7.83918 10.9234 7.6915C11.3938 7.56639 11.6791 7.44947 12.3306 7.1131C12.5806 6.98388 12.8915 6.83826 13.0195 6.79108C13.9504 6.4465 14.842 6.41779 15.7001 6.70904C15.9717 6.80134 16.3437 6.99004 16.5051 7.1172C16.5661 7.16438 16.6173 7.19925 16.6212 7.19514C16.6252 7.19309 16.637 7.11105 16.6508 7.01465C16.7787 6.00347 17.3278 5.26304 18.4123 4.64156C18.8138 4.41185 19.1858 4.24571 20.0852 3.89703C20.7367 3.64474 21.0811 3.48271 21.3311 3.30837C22.075 2.79355 22.7856 1.92185 23.313 0.873753C23.3858 0.732227 23.4488 0.615318 23.4528 0.615318C23.4567 0.615318 23.5039 0.707615 23.5571 0.818375ZM23.5236 2.49615C23.8425 2.95969 24.3503 3.46015 24.8777 3.83344C25.4446 4.23545 26.0291 4.5267 26.9148 4.85077C27.3537 5.01076 27.5505 5.09485 27.7946 5.22202C28.5385 5.61172 29.0621 6.14705 29.375 6.83621C29.5443 7.2136 29.621 7.51101 29.6624 7.94994C29.6899 8.2576 29.6604 8.65755 29.5876 8.9324C29.5817 8.95496 29.7096 8.83395 29.869 8.66576C30.4791 8.02172 30.9751 7.69765 31.6227 7.51921C31.9041 7.44127 32.1423 7.41871 32.5103 7.43102C33.146 7.45358 33.6282 7.60536 34.4332 8.04018C35.4783 8.60218 36.7655 8.91804 37.6964 8.8401C37.9936 8.81549 38.2219 8.77652 38.4247 8.71498C38.4995 8.69242 38.5644 8.67807 38.5703 8.68422C38.5762 8.69037 38.5683 8.80728 38.5546 8.94675C38.5093 9.36107 38.5211 10.2307 38.5742 10.6553C38.6687 11.3978 38.7573 11.7485 39.0879 12.7166C39.393 13.6047 39.5957 14.4128 39.6922 15.1164C39.7414 15.4815 39.7414 16.5008 39.6922 16.9213C39.576 17.8915 39.3477 18.7016 38.9521 19.5221C38.5487 20.3609 38.0645 21.0481 37.3678 21.7721C36.5825 22.5884 35.805 23.175 34.5375 23.9093C33.3468 24.5964 32.2052 25.7532 31.4278 27.0536C30.8295 28.0545 30.3886 29.2749 30.1524 30.5814C30.0147 31.3383 29.995 31.4429 29.9458 31.5987C29.8808 31.8121 29.7804 31.9946 29.6978 32.0541C29.5187 32.1833 29.2727 31.9926 29.1388 31.6193C29.1093 31.5393 29.0719 31.3424 29.0404 31.1208C28.8141 29.4779 28.4106 27.8391 27.8693 26.3665C27.4737 25.2897 26.9246 24.1411 26.4385 23.376C26.346 23.2304 26.2751 23.1094 26.2791 23.1073C26.281 23.1053 26.4483 23.0458 26.6491 22.9781C27.9146 22.5453 28.7727 21.9485 29.5856 20.9352C30.3512 19.9794 30.9869 18.7098 31.2369 17.6392C31.2723 17.4874 31.3668 17.4095 31.6089 17.3315C31.8155 17.2659 31.9159 17.2392 31.8687 17.2618C31.786 17.3008 31.7683 17.4956 31.8411 17.5633C31.9592 17.674 32.16 17.5818 32.16 17.4177C32.16 17.3623 32.0871 17.272 32.0183 17.2433L31.9592 17.2187L32.0734 17.1695C32.5516 16.9685 32.9197 16.6034 33.1283 16.1255C33.1795 16.0065 33.1913 15.9942 33.2051 16.0311C33.2248 16.0886 33.2976 16.1419 33.3566 16.1419C33.5239 16.1419 33.5967 15.9553 33.4786 15.8301C33.4176 15.7686 33.3704 15.7604 33.2779 15.8035C33.2444 15.8178 33.2444 15.8117 33.274 15.7296C33.3527 15.4917 33.4767 14.86 33.5082 14.5195C33.5259 14.3411 33.5042 14.2959 33.398 14.2959C33.1972 14.2959 33.0004 14.5277 32.9197 14.8559C32.8961 14.9564 32.8902 14.9625 32.8272 14.9687C32.7111 14.9769 32.5871 15.0138 32.53 15.0569C32.467 15.1041 32.3962 15.2353 32.3962 15.303C32.3962 15.3481 32.3942 15.3481 32.3391 15.2928C32.2426 15.1964 32.1915 15.2189 32.036 15.4343C31.8864 15.6414 31.8214 15.6886 31.5361 15.8055C31.1641 15.9553 31.0361 16.0845 30.8826 16.468C30.8039 16.6567 30.7783 16.6977 30.611 16.8864C29.8651 17.7233 28.9932 19.077 28.6645 19.9097C28.6251 20.0082 28.5877 20.0984 28.5818 20.1087C28.5779 20.1189 28.5484 20.002 28.5188 19.8523C28.3023 18.755 27.8516 17.5182 27.3281 16.5829L27.1785 16.3183L27.7237 14.8805C28.0229 14.0908 28.2984 13.3812 28.3378 13.3032C28.3909 13.1966 28.4657 13.1022 28.6487 12.9135C28.9125 12.6387 28.9892 12.5095 29.0739 12.1915C29.1152 12.0377 29.1172 11.9782 29.1231 11.1168L29.1309 10.2041L28.9735 10.4748C28.7393 10.8809 28.6684 10.9794 28.4559 11.2173C28.0662 11.6501 27.9245 11.8859 27.9264 12.1013C27.9264 12.2941 28.0071 12.4377 28.1764 12.5464C28.2118 12.5669 28.2059 12.5771 28.1075 12.6694C27.893 12.8684 27.8182 12.9607 27.7276 13.1391C27.6784 13.2396 27.4049 13.8652 27.1214 14.5318C26.838 15.1964 26.6018 15.746 26.5959 15.7522C26.5782 15.7707 26.1787 15.3215 26.0232 15.1061C25.5607 14.4621 25.2832 13.7627 25.1946 13.0038C25.1651 12.7576 25.169 12.3372 25.2044 11.8962C25.2655 11.1578 25.2379 10.2328 25.1454 9.82256L25.1198 9.7077L25.2851 9.3098C25.4465 8.91599 25.5607 8.58167 25.539 8.5591C25.5253 8.54475 25.3147 8.63499 25.1237 8.7355C25.049 8.77652 24.9801 8.81139 24.9722 8.81549C24.9663 8.81959 24.9289 8.75396 24.8895 8.66986C24.8147 8.50783 24.6868 8.31913 24.5766 8.20837L24.5097 8.14069L24.5569 7.96224C24.6179 7.73047 24.6258 7.45768 24.5766 7.30795C24.5313 7.17669 24.4191 7.03926 24.2951 6.96952C24.2085 6.9203 24.1515 6.90184 23.9665 6.86082C23.9212 6.85056 23.8759 6.79313 23.7165 6.53675C23.441 6.09577 23.4724 6.13064 23.4291 6.21063C23.3957 6.27011 23.0532 6.83006 23.0375 6.84646C23.0335 6.85056 22.9745 6.86492 22.9036 6.88133C22.6576 6.93466 22.4825 7.06798 22.3939 7.27103C22.3309 7.41461 22.3309 7.70996 22.3959 7.96224L22.4411 8.14274L22.3467 8.24939C22.2305 8.38476 22.1242 8.555 22.0613 8.70473C22.0357 8.76626 22.0081 8.81959 21.9983 8.81959C21.9904 8.81959 21.9058 8.77857 21.8113 8.72934C21.7149 8.68011 21.583 8.61448 21.5141 8.58577C21.4098 8.54065 21.3941 8.53859 21.4019 8.56936C21.4078 8.58782 21.4315 8.66576 21.4531 8.74165C21.4748 8.81549 21.5594 9.04521 21.6401 9.25031L21.7857 9.62156L21.7483 9.81025C21.6873 10.1138 21.6676 10.3599 21.6676 10.8214C21.6676 11.2152 21.7011 11.7342 21.7483 12.0808C21.7759 12.2797 21.7719 12.8007 21.7385 13.0468C21.6794 13.5165 21.5574 13.9267 21.3449 14.3718C21.0614 14.9707 20.6894 15.4609 20.2072 15.8814C20.0045 16.0578 19.9848 16.0804 19.8471 16.3244C19.6542 16.6608 19.2861 17.4382 19.1188 17.8545C18.9299 18.3324 18.676 19.1426 18.5579 19.6492C18.5028 19.8913 18.4536 20.1025 18.4497 20.1189C18.4438 20.1333 18.3631 19.9856 18.2686 19.7908C17.808 18.8411 17.1389 17.8463 16.3103 16.8823L16.0741 16.6095L16.0111 16.3983C15.9363 16.1542 15.8281 15.9286 15.7119 15.7789L15.6273 15.6702L15.958 15.301C16.139 15.0959 16.2847 14.9236 16.2827 14.9195C16.2807 14.9133 16.1253 14.7759 15.9383 14.6139L15.5978 14.3185L15.1884 14.7472L14.779 15.1758L14.7082 15.1266C14.6688 15.0979 14.6117 15.0753 14.5802 15.0753C14.5015 15.0753 14.4799 15.1471 14.4917 15.3481L14.5015 15.5081L14.3185 15.3256C14.1492 15.1533 14.0134 15.0548 13.9485 15.0548C13.9288 15.0548 13.915 15.02 13.9052 14.942C13.8874 14.7902 13.8284 14.5769 13.7674 14.4457C13.6827 14.2672 13.5292 14.1626 13.4663 14.2406C13.4131 14.3082 13.3836 14.9954 13.4229 15.2476C13.4348 15.3215 13.4584 15.3871 13.484 15.4158C13.5194 15.4548 13.5253 15.4774 13.5135 15.5471C13.4977 15.6578 13.5292 15.7809 13.5883 15.8301C13.6257 15.8609 13.6355 15.8876 13.6355 15.9635C13.6355 16.0291 13.6532 16.0906 13.6906 16.1624L13.7457 16.267L13.5784 16.4455C13.4879 16.5439 13.2911 16.7531 13.1415 16.9131L12.8699 17.2003L13.0569 17.3787C13.1612 17.4771 13.3285 17.6351 13.4308 17.7315L13.6158 17.9079L14.0154 17.4607C14.2338 17.2146 14.4188 17.0075 14.4267 16.9972C14.4346 16.989 14.4779 17.0054 14.5271 17.0321C14.7416 17.1572 15.0605 17.2495 15.3301 17.2679L15.5171 17.2802L15.5545 17.3828C15.7336 17.8771 15.9875 18.4699 16.2237 18.9519C16.8358 20.1989 17.4951 21.1527 18.1544 21.7372C18.2469 21.8193 18.2568 21.8234 18.3808 21.8234C18.8669 21.8234 20.1266 21.5957 20.8626 21.3742C21.0083 21.3291 21.1323 21.2983 21.1362 21.3024C21.1402 21.3065 21.0988 21.4788 21.0437 21.6839C20.9355 22.0838 20.8115 22.5966 20.7465 22.9043C20.7091 23.0786 20.6934 23.1094 20.5222 23.376C19.4692 24.9943 18.5796 27.3182 18.0974 29.7097C18.0127 30.1302 17.8671 31.0019 17.8415 31.248C17.7982 31.6521 17.6034 32.0172 17.3987 32.0807C17.129 32.1648 16.9637 31.8449 16.8082 30.9301C16.5897 29.642 16.3024 28.6985 15.8418 27.7509C15.399 26.8362 14.9089 26.1388 14.1827 25.3799C13.5332 24.7051 13.0116 24.2867 12.3208 23.8847C12.1318 23.776 11.8563 23.6098 11.7106 23.5196C9.23271 21.9751 7.6995 19.8789 7.28421 17.4648C7.19171 16.9254 7.174 16.6936 7.174 15.9983C7.174 15.2764 7.18581 15.1451 7.3039 14.5421C7.42002 13.9452 7.53614 13.5411 7.98685 12.1833C8.32735 11.1619 8.45134 9.99895 8.33719 8.90574C8.31357 8.67601 8.31357 8.67191 8.3549 8.68217C8.37655 8.68832 8.46315 8.71088 8.54581 8.7355C8.9611 8.85036 9.58895 8.88112 10.1046 8.81139C10.9135 8.70268 11.7539 8.42373 12.5196 8.01147C13.0706 7.71611 13.4485 7.56844 13.9248 7.47204C14.1807 7.41871 14.8617 7.42076 15.0959 7.47409C15.5171 7.56844 15.9166 7.74483 16.265 7.98685C16.5327 8.17555 16.7137 8.33554 17.0326 8.67396C17.1822 8.83395 17.3062 8.96317 17.3101 8.96317C17.3121 8.96317 17.2963 8.87292 17.2747 8.76216C17.2215 8.49552 17.2176 7.95814 17.2688 7.66074C17.3436 7.22181 17.5423 6.7193 17.7805 6.37267C18.2509 5.68556 18.8669 5.25893 19.9573 4.85898C20.9571 4.49389 21.6302 4.1411 22.2463 3.65705C22.6734 3.32273 23.0709 2.91457 23.3268 2.54948C23.3839 2.46743 23.437 2.39975 23.4449 2.39975C23.4508 2.39975 23.4862 2.44282 23.5236 2.49615ZM23.559 6.7275L23.6397 6.85056H23.4803C23.3937 6.85056 23.3229 6.84646 23.3229 6.84031C23.3229 6.82595 23.4646 6.60443 23.4724 6.60443C23.4764 6.60443 23.5157 6.65981 23.559 6.7275ZM23.8818 7.09669C24.2164 7.13361 24.3621 7.25668 24.3798 7.52332C24.3876 7.64638 24.3463 7.94378 24.3168 7.97455C24.3109 7.9807 24.2656 7.96224 24.2144 7.93148C24.0098 7.81662 23.8248 7.76739 23.5492 7.75714C23.2422 7.74688 23.0335 7.78995 22.7895 7.91507L22.636 7.99301L22.6045 7.85353C22.5435 7.57254 22.575 7.34282 22.6871 7.23616C22.7541 7.17258 22.9135 7.1131 23.0552 7.09669C23.2599 7.07413 23.6811 7.07413 23.8818 7.09669ZM40.0012 7.94788C40.1941 9.0247 40.6448 9.94152 41.3927 10.7784C41.6899 11.1106 41.8926 11.3814 42.1445 11.7854C42.8826 12.9689 43.3077 14.259 43.4612 15.7932C43.4986 16.1686 43.4927 17.311 43.4494 17.7417C43.3097 19.1795 42.9731 20.4758 42.4043 21.7618C42.2351 22.1454 42.1544 22.3033 42.1662 22.2233C42.2272 21.8069 42.2291 21.2819 42.1701 20.9435C42.0186 20.0861 41.6151 19.3231 40.9636 18.6647C40.8475 18.5458 40.7097 18.4104 40.6566 18.3673L40.5641 18.2853L40.6133 18.0596C40.7943 17.2331 40.875 16.2445 40.8377 15.2948C40.7943 14.1831 40.6212 13.4488 40.1606 12.45C39.6882 11.4224 39.4776 10.5363 39.4776 9.56823C39.4776 8.8483 39.5879 8.27401 39.8319 7.74483C39.9382 7.51101 39.9205 7.48845 40.0012 7.94788ZM7.07165 7.7879C7.30783 8.31708 7.41018 8.86882 7.40821 9.599C7.40624 10.0769 7.37081 10.403 7.27044 10.8645C7.17203 11.3301 6.93585 12.0418 6.78823 12.3269C6.42806 13.014 6.16629 13.9042 6.07772 14.7369C6.03639 15.1266 6.0423 16.4537 6.08756 16.8803C6.12693 17.2577 6.2155 17.8053 6.28635 18.1314L6.33359 18.3468L6.25289 18.4165C6.08363 18.5642 5.7392 18.9273 5.59946 19.1057C5.17236 19.6533 4.88304 20.2769 4.76298 20.9106C4.70197 21.2244 4.68819 21.7516 4.73149 22.0674C4.74921 22.1967 4.75905 22.3054 4.75708 22.3095C4.74724 22.3197 4.46776 21.7106 4.34967 21.4234C3.90092 20.3302 3.59979 19.1488 3.4758 17.9981C3.2593 15.9881 3.53091 14.2118 4.30046 12.6141C4.65867 11.8716 4.99916 11.3547 5.54435 10.7312C5.96554 10.2492 6.19581 9.90461 6.4379 9.38773C6.58354 9.07597 6.69967 8.76011 6.7902 8.42989C6.85318 8.20222 6.94766 7.72637 6.94766 7.64022C6.94766 7.54793 6.97915 7.5869 7.07165 7.7879ZM23.8799 8.04634C24.2617 8.1735 24.6041 8.50783 24.7281 8.87497L24.7577 8.96111L24.6199 9.07802C24.5451 9.14161 24.4841 9.19904 24.4841 9.20724C24.4841 9.21339 24.4605 9.24621 24.4349 9.27698L24.3857 9.33441L24.2558 9.25852C24.0078 9.11494 23.7204 8.86676 23.5433 8.64935L23.4803 8.57141L23.3052 8.76216C23.1221 8.96111 22.8918 9.14776 22.6891 9.26057L22.5671 9.32825L22.4785 9.22365C22.4293 9.16622 22.3467 9.08623 22.2955 9.04521L22.2049 8.96932L22.2482 8.85446C22.386 8.50578 22.6517 8.22478 22.9745 8.08736C23.2579 7.96635 23.5925 7.95199 23.8799 8.04634ZM23.5413 8.99598C23.7775 9.26057 24.2951 9.58874 24.6907 9.72206C24.7675 9.74872 24.8305 9.77129 24.8344 9.77333C24.8403 9.77949 24.7655 9.94357 24.7498 9.96408C24.7478 9.96614 24.6789 9.93742 24.5982 9.8964C24.3483 9.77744 24.1712 9.73642 23.9487 9.74667C23.7775 9.75488 23.7401 9.76513 23.6142 9.83076L23.4724 9.90255L23.3918 9.85538C23.1123 9.68719 22.699 9.70975 22.3191 9.91896C22.2601 9.95178 22.2049 9.98049 22.199 9.9846C22.1931 9.98665 22.1675 9.94357 22.1439 9.88409C22.1203 9.82666 22.1026 9.77744 22.1065 9.77744C22.1105 9.77539 22.1872 9.74667 22.2797 9.71386C22.6517 9.58259 23.0198 9.36107 23.313 9.09033C23.3996 9.01034 23.4764 8.94471 23.4823 8.94471C23.4882 8.94265 23.5138 8.96727 23.5413 8.99598ZM22.0829 9.17442C22.2089 9.26877 22.3388 9.39389 22.3388 9.42055C22.3388 9.44106 22.2502 9.48003 22.1105 9.52311L22.0081 9.55387L21.8979 9.28108C21.8369 9.13135 21.7877 9.00213 21.7877 8.99393C21.7877 8.97342 21.951 9.07392 22.0829 9.17442ZM25.106 9.14161C25.0686 9.2298 25.0155 9.35902 24.986 9.42876L24.9328 9.55387L24.7931 9.50465C24.7144 9.47798 24.6396 9.44927 24.6238 9.44516C24.5845 9.42876 24.7557 9.25237 24.9171 9.14161C24.9879 9.09238 25.0667 9.03905 25.0942 9.01854C25.1218 9.00008 25.1493 8.98573 25.1572 8.98573C25.1651 8.98367 25.1415 9.05546 25.106 9.14161ZM23.2146 10.0277C23.2579 10.0482 23.3327 10.0974 23.378 10.1384C23.4252 10.1815 23.4685 10.2143 23.4744 10.2143C23.4784 10.2143 23.5217 10.1815 23.5669 10.1425C23.6122 10.1036 23.6949 10.0502 23.748 10.0256C23.9487 9.93332 24.2833 9.9846 24.5727 10.1548L24.6829 10.2184L24.6711 10.3148C24.5628 11.1352 24.24 11.8388 23.7244 12.3864C23.4665 12.6571 23.5118 12.6571 23.2559 12.3925C22.9095 12.0377 22.6478 11.6131 22.4706 11.1168C22.3998 10.9178 22.3132 10.5425 22.2896 10.3353L22.2758 10.2184L22.3644 10.1651C22.6655 9.98049 22.9981 9.92717 23.2146 10.0277ZM22.0731 10.4399C22.1439 10.9404 22.3132 11.447 22.5336 11.8244L22.6183 11.968L22.5651 12.3269C22.3781 13.6129 22.1321 15.1471 22.0829 15.344L22.0632 15.4199L21.6932 15.5143C21.4905 15.5676 21.1776 15.6517 20.9965 15.7009C20.8154 15.7522 20.6619 15.7932 20.654 15.7932C20.6462 15.7932 20.6973 15.7317 20.7662 15.6537C21.3468 15.022 21.7562 14.2139 21.9137 13.3873C22.014 12.8704 22.0278 12.5033 21.9648 11.9577C21.8979 11.3711 21.8763 10.8112 21.9018 10.4297C21.9156 10.2451 21.9314 10.0789 21.9392 10.0584C21.9609 9.9969 22.0416 10.2225 22.0731 10.4399ZM24.9978 10.4933C25.0234 10.8625 25.0116 11.4573 24.9663 11.9782C24.9289 12.411 24.9289 12.6818 24.9663 13.014C25.0765 13.9965 25.5016 14.9215 26.1767 15.6578C26.2791 15.7686 26.346 15.8548 26.3243 15.8486C26.3027 15.8424 25.9838 15.746 25.6158 15.6373C25.2477 15.5286 24.9328 15.4322 24.9151 15.422C24.8935 15.4097 24.8679 15.3215 24.8325 15.1328C24.7655 14.7882 24.5786 13.617 24.4428 12.6941L24.3384 11.9844L24.429 11.8224C24.6534 11.4244 24.8403 10.8378 24.8876 10.3887C24.8954 10.321 24.9092 10.2287 24.921 10.1835C24.9525 10.0543 24.9722 10.1323 24.9978 10.4933ZM28.8633 12.0705C28.8456 12.1608 28.8003 12.3044 28.7609 12.3884C28.7019 12.5177 28.6527 12.5812 28.4519 12.7884C28.2669 12.9792 28.1961 13.0674 28.141 13.1781C28.0819 13.295 27.4856 14.8661 26.3401 17.9058C26.2712 18.0925 26.2062 18.2524 26.1964 18.2607C26.1885 18.2709 26.161 18.2648 26.1354 18.2483C26.1098 18.2319 26.035 18.2012 25.9701 18.1807C25.9051 18.1602 25.85 18.1417 25.8461 18.1396C25.8343 18.1314 27.8103 13.494 27.9146 13.2868C27.9717 13.1699 28.0465 13.055 28.0918 13.0099C28.3712 12.7371 28.6448 12.4213 28.6763 12.3372C28.6861 12.3085 28.696 12.249 28.696 12.2059C28.696 12.1136 28.6428 11.9167 28.6173 11.9167C28.6074 11.9167 28.5582 11.9372 28.509 11.9618C28.4441 11.9946 28.4224 12.0152 28.4322 12.0398C28.4401 12.0562 28.45 12.1177 28.4539 12.1772C28.4637 12.2736 28.4598 12.2859 28.4126 12.3167C28.324 12.3782 28.1843 12.3003 28.1528 12.1751C28.1173 12.0275 28.2472 11.7998 28.5661 11.447C28.6783 11.3239 28.7944 11.1886 28.8259 11.1455L28.883 11.0696L28.8889 11.488C28.8928 11.808 28.8869 11.9454 28.8633 12.0705ZM23.3327 12.7884C23.4705 12.8992 23.4843 12.9053 23.5295 12.8807C23.6142 12.8335 23.9212 12.5423 24.0314 12.4028C24.0905 12.329 24.1416 12.2695 24.1436 12.2736C24.1456 12.2756 24.1987 12.6059 24.2577 13.0058C24.4113 14.0252 24.5136 14.6528 24.5963 15.1041L24.6671 15.4917L24.6002 15.5512C24.3168 15.8014 23.7008 16.0229 23.3918 15.9881C23.0217 15.9429 22.5553 15.744 22.3368 15.5327L22.2856 15.4835L22.3211 15.3153C22.3683 15.0938 22.5907 13.7237 22.7029 12.9627C22.7521 12.6305 22.7974 12.3351 22.8033 12.3085C22.8111 12.2654 22.8289 12.2797 22.9981 12.4643C23.1005 12.5771 23.25 12.7228 23.3327 12.7884ZM2.34016 14.9236C2.31261 15.4897 2.32638 16.4865 2.37165 17.0136C2.58618 19.5508 3.39904 21.7372 4.76102 23.4437C4.9598 23.6939 5.40461 24.1698 5.64669 24.3892L5.79234 24.5226L5.69393 24.6764C5.25306 25.3615 4.92831 26.1655 4.79054 26.9285C4.72756 27.2689 4.70591 27.8679 4.74133 28.1981C4.80235 28.7416 5.00113 29.32 5.28652 29.7877L5.37509 29.9353L5.07396 29.6174C3.26717 27.714 2.00557 25.4907 1.44661 23.2283C1.18484 22.172 1.07659 21.2819 1.07659 20.1722C1.07659 19.5282 1.09234 19.2288 1.16122 18.6319C1.28719 17.5407 1.5588 16.4291 1.95243 15.3933C2.08233 15.0487 2.3441 14.4354 2.35591 14.4477C2.36181 14.4518 2.35394 14.6672 2.34016 14.9236ZM44.9236 15.0774C45.453 16.3675 45.7876 17.7971 45.8998 19.2595C45.9352 19.7169 45.9293 20.724 45.89 21.1875C45.6813 23.6057 44.8468 25.8045 43.3471 27.8945C42.8629 28.5693 42.4535 29.0595 41.804 29.7466C41.3691 30.2081 41.1821 30.3845 41.3454 30.1794C41.7607 29.6584 42.056 28.9508 42.1504 28.2494C42.1937 27.9232 42.1799 27.351 42.1189 26.9941C41.989 26.227 41.68 25.4271 41.2451 24.7379L41.1348 24.5656L41.1801 24.5328C41.2943 24.4487 41.6387 24.1226 41.8335 23.9134C42.4909 23.2058 43.0105 22.4243 43.475 21.4521C44.1776 19.9815 44.5595 18.3796 44.6598 16.5008C44.6815 16.0988 44.6736 15.061 44.648 14.6036L44.6382 14.4293L44.7287 14.6241C44.7779 14.7308 44.8665 14.9359 44.9236 15.0774ZM33.333 14.5257C33.3271 14.5626 33.3173 14.6446 33.3114 14.7062C33.2956 14.8682 33.2228 15.2456 33.2031 15.2681C33.1933 15.2764 33.1677 15.2456 33.1441 15.1964C33.1204 15.1471 33.087 15.0897 33.0693 15.0692C33.0417 15.0384 33.0417 15.0138 33.0614 14.8928C33.1008 14.6467 33.207 14.46 33.3054 14.46C33.3369 14.46 33.3409 14.4723 33.333 14.5257ZM13.6965 14.5995C13.7221 14.6692 13.7772 14.9215 13.7772 14.9748C13.7772 14.9954 13.7674 15.0138 13.7556 15.0138C13.7438 15.0138 13.7103 15.0323 13.6827 15.0548C13.6355 15.0959 13.6316 15.0959 13.6119 15.061C13.5883 15.0159 13.5706 14.6077 13.5883 14.5318C13.6021 14.4785 13.604 14.4785 13.6394 14.5113C13.6591 14.5298 13.6847 14.5687 13.6965 14.5995ZM15.8497 14.8272L16.0013 14.9564L15.9442 15.0323C15.9127 15.0733 15.7907 15.2046 15.6726 15.3276L15.458 15.5471L15.3518 15.5102C15.2927 15.4876 15.1786 15.4363 15.0979 15.3953L14.9522 15.3174L15.2829 14.9728C15.6076 14.6344 15.6155 14.6282 15.6568 14.661C15.6785 14.6795 15.767 14.7554 15.8497 14.8272ZM32.8292 15.1164C32.9827 15.1615 33.1244 15.3194 33.1244 15.4466C33.1244 15.4897 33.1165 15.5286 33.1067 15.5348C33.0968 15.543 33.0594 15.5102 33.026 15.465C32.9118 15.3153 32.8114 15.2907 32.6284 15.3625C32.5713 15.3851 32.5182 15.4035 32.5103 15.4035C32.4827 15.4035 32.4946 15.2292 32.5241 15.182C32.5753 15.1102 32.7071 15.0815 32.8292 15.1164ZM14.0449 15.2476C14.1354 15.2907 14.2299 15.383 14.2299 15.4261C14.2299 15.4527 14.1531 15.4486 14.0488 15.4138C13.9642 15.3892 13.9445 15.3892 13.8678 15.4179C13.8205 15.4363 13.7693 15.4466 13.7536 15.4384C13.7142 15.424 13.6946 15.3153 13.7182 15.2497C13.7339 15.2046 13.7477 15.1984 13.8402 15.1984C13.9091 15.1984 13.9799 15.2148 14.0449 15.2476ZM14.7987 15.4753C14.8518 15.5143 14.9857 15.5902 15.0979 15.6394C15.3655 15.7625 15.4482 15.8137 15.5387 15.9183C15.6352 16.0311 15.7572 16.3019 15.8143 16.5357C15.8576 16.7203 15.8615 16.7265 16.015 16.8987C16.9716 17.9715 17.808 19.2452 18.2568 20.3158L18.367 20.5825L18.3355 20.8491C18.3158 20.9947 18.2962 21.206 18.2902 21.3147C18.2843 21.4255 18.2706 21.5157 18.2607 21.5157C18.2292 21.5157 17.8218 21.0747 17.6526 20.8594C17.0345 20.0697 16.4205 18.9539 15.9304 17.7212C15.8595 17.5469 15.7946 17.3848 15.7828 17.3623C15.773 17.3397 15.7434 17.2556 15.7198 17.1777L15.6726 17.0341L15.4699 17.03C15.2278 17.0259 15.0034 16.9808 14.8007 16.8987C14.5704 16.8064 14.5743 16.8208 14.7416 16.6444C14.8223 16.5583 14.905 16.4783 14.9247 16.468C14.9955 16.427 15.2829 16.4455 15.4364 16.5008C15.706 16.5972 15.7375 16.5521 15.5407 16.3573C15.4718 16.2896 15.397 16.1973 15.3754 16.1522C15.3222 16.0434 15.2829 16.0065 14.9857 15.7973C14.7278 15.6148 14.6393 15.5163 14.6688 15.4384C14.6865 15.3912 14.6885 15.3933 14.7987 15.4753ZM32.9138 15.4979C32.9964 15.5553 33.0516 15.662 33.0417 15.7481C33.0319 15.8424 32.9709 15.8301 32.8764 15.7194C32.8016 15.6271 32.7859 15.6189 32.7071 15.6189C32.6422 15.6189 32.591 15.6373 32.5162 15.6845C32.4591 15.7214 32.4001 15.7522 32.3843 15.7522C32.3155 15.7522 32.3784 15.5779 32.469 15.5163C32.6166 15.4158 32.7839 15.4076 32.9138 15.4979ZM32.2348 15.6394C32.2269 15.7912 32.1954 15.8363 32.032 15.947C31.9199 16.0229 31.8746 16.0722 31.8569 16.1337C31.849 16.1604 31.8214 16.1829 31.786 16.1891C31.6758 16.2137 31.4199 16.3265 31.3392 16.388C31.2487 16.4578 31.1759 16.5931 31.1759 16.6916C31.1759 16.8147 31.2507 16.7654 31.4357 16.5275C31.5242 16.4147 31.6049 16.3716 31.9179 16.2773L32.158 16.2034L32.2289 16.2465C32.404 16.3552 32.715 16.1727 32.6894 15.9778C32.6796 15.906 32.6323 15.9142 32.5812 15.9983C32.5103 16.1111 32.4788 16.1419 32.4257 16.1419C32.3548 16.1419 32.3607 16.0783 32.4473 15.9081C32.532 15.744 32.5989 15.6989 32.717 15.7337C32.7918 15.7542 32.8803 15.8486 32.9 15.9245C32.9295 16.0496 32.7878 16.3265 32.5871 16.5357C32.341 16.79 32.1029 16.9275 31.662 17.0649C31.3609 17.1592 31.2526 17.2126 31.1641 17.3049C31.0716 17.3992 31.048 17.4546 30.9791 17.7335C30.8866 18.0966 30.7271 18.517 30.4772 19.0442C30.1642 19.7046 29.873 20.1866 29.4754 20.7035C29.3199 20.9045 28.7629 21.5157 28.7353 21.5157C28.7275 21.5157 28.7157 21.4214 28.7078 21.3044C28.7019 21.1896 28.6861 21.0009 28.6743 20.886C28.6547 20.6973 28.6566 20.6625 28.694 20.523C28.8219 20.0369 29.1959 19.2616 29.621 18.6032C29.9615 18.0761 30.4398 17.432 30.7527 17.0813C30.8807 16.9377 30.9495 16.8434 30.9712 16.7777C31.0696 16.4906 31.2369 16.2301 31.4062 16.0968C31.5026 16.0209 31.6286 15.9553 31.8116 15.8855C31.8766 15.8609 31.9277 15.8219 31.9789 15.7563C32.2151 15.4527 32.2466 15.4384 32.2348 15.6394ZM14.346 15.584C14.4641 15.6332 14.5645 15.7194 14.5645 15.7768C14.5645 15.824 14.5212 15.824 14.3775 15.7727C14.2417 15.7235 14.1335 15.7214 14.0016 15.7625C13.8717 15.8035 13.8225 15.8014 13.7969 15.7542C13.7654 15.6927 13.7733 15.6394 13.8205 15.5779C13.8619 15.5225 13.8638 15.5225 14.0508 15.5307C14.1748 15.5389 14.2752 15.5573 14.346 15.584ZM22.2463 15.7625C22.5277 15.9881 22.9115 16.1522 23.2894 16.2096C23.4508 16.2342 23.5079 16.2342 23.6535 16.2116C24.0806 16.146 24.5097 15.9553 24.7557 15.7235L24.8325 15.6517L25.6256 15.8876C26.0626 16.0168 26.4247 16.1275 26.4286 16.1316C26.4385 16.1419 25.8992 17.4136 25.8854 17.4136C25.8815 17.4136 25.8244 17.3807 25.7614 17.3418C25.5961 17.2351 25.415 17.1551 25.2281 17.1018C24.9998 17.0362 24.5116 17.0362 24.2873 17.0998C24.0472 17.1695 23.8307 17.2638 23.6437 17.3828L23.4665 17.4915L23.2363 17.3725C22.4293 16.9562 21.7208 16.9357 21.1717 17.311C21.028 17.4095 20.78 17.6617 20.7131 17.7807C20.6934 17.8156 20.6717 17.8443 20.6658 17.8443C20.6599 17.8443 20.6147 17.7869 20.5674 17.7171C20.4001 17.4792 20.1108 17.2761 19.8195 17.1961C19.7487 17.1756 19.6876 17.1572 19.6837 17.1551C19.6739 17.1469 19.8982 16.708 20.0518 16.4332C20.1777 16.2116 20.1856 16.2014 20.282 16.1645C20.4297 16.107 20.8941 15.9717 21.5279 15.8035C21.8389 15.7214 22.0947 15.6517 22.0987 15.6517C22.1006 15.6496 22.1675 15.7009 22.2463 15.7625ZM14.348 15.8773C14.4503 15.9101 14.535 15.9819 14.5192 16.025C14.5094 16.0537 14.472 16.0599 14.285 16.0599C14.1295 16.0619 14.0469 16.0701 14.0134 16.0906C13.9445 16.1316 13.9209 16.1275 13.8835 16.0701C13.854 16.0229 13.854 16.0147 13.8855 15.9655C13.9032 15.9368 13.9465 15.8999 13.9799 15.8855C14.0567 15.8507 14.2476 15.8465 14.348 15.8773ZM14.9601 16.0311C14.9975 16.0742 14.9995 16.0845 14.9758 16.1152C14.9601 16.1357 14.657 16.4783 14.3027 16.8741C13.726 17.5202 13.6513 17.5961 13.6217 17.5735C13.6021 17.5592 13.4997 17.4607 13.3934 17.3582L13.2025 17.1674L13.6198 16.7224C13.8481 16.4762 14.0567 16.265 14.0823 16.2506C14.1059 16.2363 14.222 16.2157 14.3382 16.2034C14.596 16.1788 14.6688 16.144 14.6786 16.0393C14.6826 16.0004 14.6983 15.9594 14.7141 15.9512C14.7298 15.9429 14.7416 15.9163 14.7416 15.8937C14.7416 15.8548 14.7495 15.8589 14.8302 15.9183C14.8774 15.9532 14.9365 16.0045 14.9601 16.0311ZM27.2454 16.9172C27.3065 17.0362 27.3517 17.1387 27.3438 17.1469C27.334 17.1531 27.2848 17.1715 27.2297 17.1838C27.1214 17.2126 26.9325 17.3028 26.8282 17.3746C26.7809 17.4074 26.7632 17.4136 26.7711 17.3931C26.777 17.3766 26.8479 17.192 26.9266 16.9849C27.0919 16.548 27.0545 16.5562 27.2454 16.9172ZM22.4372 17.3254C22.7068 17.3807 23.0709 17.5325 23.3583 17.7069L23.4803 17.7807L23.6437 17.6658C23.8523 17.5161 24.0924 17.4013 24.3266 17.3377C24.4802 17.2946 24.5589 17.2843 24.7695 17.2843C24.9919 17.2843 25.049 17.2926 25.2025 17.3397C25.3796 17.3951 25.6335 17.5243 25.7378 17.6084L25.7929 17.6556L25.7024 17.8668L25.6138 18.0802L25.3678 18.072C25.0057 18.0617 24.6967 18.1314 24.3857 18.2955C24.0255 18.4842 23.5217 18.9231 23.1182 19.401L23.0434 19.4892L22.7737 19.52C22.4982 19.5487 22.1124 19.6123 21.6519 19.7026C21.5062 19.7313 21.3822 19.7477 21.3744 19.7374C21.3665 19.7292 21.3055 19.5549 21.2366 19.3518C21.1244 19.0134 20.8902 18.3694 20.8174 18.1909C20.7859 18.1191 20.7879 18.1171 20.8686 17.9756C20.9119 17.8976 21.0122 17.7684 21.089 17.6905C21.4413 17.3254 21.8743 17.2085 22.4372 17.3254ZM27.5623 17.5776C28.0918 18.7509 28.4795 20.4143 28.4795 21.5219V21.7413L28.326 21.8603C27.9914 22.1187 27.3832 22.4489 26.8794 22.6438C26.3853 22.8345 25.7418 23.0109 25.1828 23.1073C24.9348 23.1483 24.8305 23.1566 24.5333 23.1545L24.179 23.1504L23.8936 23.2694C23.6358 23.376 23.5905 23.3883 23.4252 23.3986C23.1142 23.415 22.7088 23.3165 22.4706 23.1668C22.4077 23.1278 22.3467 23.095 22.3348 23.095C22.323 23.095 22.199 23.2099 22.0613 23.3514C21.8133 23.6037 21.6676 23.7083 21.6027 23.6837C21.5653 23.6693 21.5633 23.616 21.5968 23.5524C21.6106 23.5278 21.709 23.4047 21.8172 23.2796C22.0869 22.9658 22.1577 22.8509 22.1105 22.8017C22.0849 22.7751 21.9845 22.8366 21.8861 22.9412C21.8271 23.0027 21.7719 23.054 21.7621 23.054C21.6952 23.054 21.9058 22.5884 22.0416 22.4346C22.2502 22.1967 22.4588 22.1597 22.9686 22.2746C23.4784 22.3874 23.7401 22.4797 24.1259 22.6889C24.425 22.8509 24.3601 22.855 24.6986 22.6458C24.9742 22.4735 25.5902 22.1372 25.9327 21.971C26.7258 21.5854 27.2317 21.407 27.7847 21.3167L27.8871 21.3003L27.5997 20.6337C27.2572 19.8338 26.6983 18.4781 26.6077 18.2299C26.529 18.0084 26.529 18.0104 26.777 17.752C26.9699 17.5489 27.1549 17.4341 27.3478 17.3972C27.4029 17.3848 27.4521 17.3766 27.458 17.3746C27.4639 17.3746 27.5111 17.4648 27.5623 17.5776ZM19.8057 17.4361C19.975 17.4956 20.1167 17.5838 20.2525 17.7151C20.3627 17.8217 20.5281 18.0535 20.5281 18.1027C20.5281 18.113 20.3745 18.4186 20.1856 18.7796C19.607 19.8913 19.3885 20.3302 19.3353 20.4963C19.3078 20.5845 19.2881 20.6604 19.294 20.6666C19.2999 20.6727 19.4003 20.6255 19.5184 20.564C19.8845 20.3712 20.4631 20.1928 21.2858 20.0184C22.0869 19.8482 22.7068 19.7518 23.006 19.7518H23.1359L23.254 19.5836C23.4075 19.3641 23.7598 18.997 23.9763 18.8267C24.2873 18.5868 24.616 18.4042 24.8895 18.3242C25.0686 18.2709 25.5626 18.2607 25.7555 18.3058C25.9366 18.3468 26.0508 18.394 26.0271 18.4186C26.0173 18.4268 25.9248 18.4391 25.8224 18.4452C25.1316 18.4863 24.9053 18.5211 24.8659 18.5868C24.8344 18.6381 24.9053 18.6545 25.1493 18.6545C25.3973 18.6545 25.4013 18.6545 25.5233 18.7242C25.6748 18.8103 25.7791 18.9293 25.8717 19.1201C25.9523 19.2903 25.974 19.3908 25.9405 19.4339C25.9031 19.479 25.8736 19.4441 25.8126 19.2841C25.7103 19.0175 25.5863 18.8616 25.3855 18.7529C25.2438 18.677 25.0627 18.6729 24.9427 18.7447C24.8954 18.7734 24.8561 18.8021 24.8561 18.8124C24.8443 18.878 24.8502 18.8801 25.0647 18.8801C25.2517 18.8801 25.295 18.8862 25.3737 18.9273C25.5469 19.0175 25.7437 19.2349 25.7732 19.3744C25.7851 19.4236 25.7752 19.4175 25.7181 19.3293C25.5666 19.1016 25.2615 18.9826 25.0135 19.0544C24.9328 19.077 24.862 19.1488 24.8895 19.1754C24.8994 19.1857 24.9643 19.1816 25.047 19.1631C25.173 19.1344 25.1946 19.1344 25.2969 19.1652C25.4308 19.2062 25.602 19.36 25.724 19.5508C25.7969 19.6656 25.8303 19.7928 25.7851 19.7928C25.7752 19.7928 25.728 19.7354 25.6788 19.6636C25.4938 19.3928 25.3796 19.3313 25.1041 19.3457C24.9013 19.3559 24.7616 19.4236 24.4546 19.6492C24.3325 19.7395 24.2007 19.8277 24.1633 19.8441C24.1239 19.8605 23.9743 19.8892 23.8307 19.9077C23.5354 19.9446 23.3032 20.0266 22.9922 20.2071C22.7068 20.3733 22.1282 20.6645 21.8664 20.7732C20.9906 21.1404 19.8608 21.4275 18.8354 21.5465C18.4556 21.5895 18.4949 21.6059 18.5107 21.407C18.6071 20.1517 18.9319 18.8637 19.4593 17.6453C19.5833 17.3561 19.5814 17.3582 19.8057 17.4361ZM26.4719 18.5109C26.5526 18.7283 26.9719 19.7436 27.2592 20.4184C27.4127 20.7794 27.5426 21.085 27.5485 21.0973C27.5525 21.1116 27.521 21.126 27.4619 21.1363C27.212 21.1752 26.6097 21.3906 26.1177 21.6183L25.9031 21.7167L25.8303 21.487C25.791 21.3619 25.7103 21.1321 25.6532 20.9763C25.5941 20.8183 25.5469 20.683 25.5469 20.6748C25.5469 20.6645 25.6 20.5148 25.667 20.3404C25.7614 20.0882 25.7969 20.0184 25.8343 20C25.8992 19.9692 25.9445 19.8523 25.9386 19.7272C25.9346 19.6451 25.9405 19.6226 25.976 19.5959C26.0429 19.5487 26.0783 19.4564 26.0783 19.3375C26.0783 19.2493 26.1078 19.1467 26.2397 18.7939C26.3302 18.556 26.409 18.3673 26.4149 18.3735C26.4208 18.3817 26.4464 18.4432 26.4719 18.5109ZM20.6658 18.4247C20.6658 18.4288 20.7268 18.597 20.8016 18.8001C20.9335 19.159 21.1382 19.76 21.1382 19.7908C21.1382 19.801 21.026 19.8318 20.8882 19.8646C20.5812 19.9343 20.1462 20.0574 19.9101 20.1415C19.8136 20.1743 19.7309 20.1989 19.727 20.1948C19.7113 20.1805 20.6284 18.4186 20.6501 18.4186C20.658 18.4186 20.6658 18.4227 20.6658 18.4247ZM40.7097 18.7345C41.1565 19.1488 41.5777 19.7928 41.7902 20.3876C41.9142 20.7363 41.9654 21.0255 41.9772 21.4378C41.9871 21.8664 41.9654 22.0941 41.8729 22.4694C41.7233 23.0807 41.4694 23.5955 40.9439 24.3523C40.818 24.5349 40.818 24.5349 40.8534 24.58C41.0384 24.7974 41.4261 25.5112 41.5875 25.9357C42.1189 27.3202 42.0678 28.5714 41.434 29.6318C41.2687 29.9128 41.1014 30.1261 40.8317 30.4091C40.5326 30.7188 40.3436 30.8809 39.9736 31.1393L39.7079 31.3239L39.7591 31.5413C40.0307 32.6715 39.9264 33.9411 39.4875 34.8558C39.2946 35.2558 39.1234 35.506 38.8124 35.8404C38.4621 36.2157 38.1216 36.4741 37.6315 36.7326C37.1493 36.989 36.8068 37.1202 36.2046 37.2782L35.7913 37.3869L35.7794 37.6494C35.746 38.3632 35.4901 39.1651 35.1004 39.7702C34.5356 40.6501 33.6755 41.2408 32.5438 41.5239C32.3922 41.5628 32.1954 41.6039 32.1068 41.6182C32.0183 41.6326 31.9356 41.649 31.9238 41.6572C31.908 41.6674 31.91 41.7146 31.9258 41.8233C31.9395 41.9197 31.9435 42.1125 31.9376 42.3545C31.9238 42.8796 31.847 43.2098 31.6482 43.6262C31.3845 44.1697 30.9791 44.5779 30.3985 44.8774C29.9851 45.0886 29.5561 45.224 29.0443 45.2999L28.7924 45.3389L28.694 45.5358C28.4539 46.0239 28.1193 46.4874 27.6745 46.951C26.6904 47.9724 25.4505 48.5877 24.0826 48.7334C23.7893 48.7662 23.0178 48.7477 22.7423 48.7047C22.1105 48.6062 21.5633 48.4298 21.0103 48.1488C19.3629 47.3079 18.182 45.6588 17.8927 43.7944C17.7057 42.6027 17.8632 41.4746 18.3552 40.4471C18.9279 39.2533 19.9081 38.2832 21.2563 37.5776C21.6932 37.3479 22.077 37.1879 22.634 37.0013C23.3288 36.7674 23.6555 36.6075 24.0294 36.3121C24.6593 35.8178 25.0864 35.0794 25.2222 34.2446C25.3009 33.7565 25.2969 33.0755 25.2143 32.6756C25.0273 31.7854 24.4802 31.0614 23.6771 30.6388L23.5098 30.5527L23.2107 30.5383C22.0534 30.4789 21.028 30.124 20.221 29.5026C20.0518 29.3733 19.8549 29.1928 19.9041 29.2134C20.0773 29.2831 21.9215 29.7528 21.9392 29.7323C21.9451 29.7261 21.9255 29.6502 21.894 29.562C21.8507 29.4328 21.8389 29.3672 21.8389 29.2175C21.8389 28.9898 21.892 28.8544 22.0455 28.6842C22.2443 28.4647 22.4293 28.395 22.7619 28.4134C23.2815 28.4442 23.8326 28.6698 24.4742 29.1149C25.8028 30.0338 26.531 31.1639 26.7514 32.6427C26.7849 32.8704 26.7928 33.0242 26.7947 33.3811C26.7947 33.9821 26.7455 34.3779 26.5979 34.9379C26.47 35.4199 26.3263 35.7665 26.0685 36.2116C25.8106 36.6567 25.6709 36.9869 25.5745 37.3807C25.5253 37.5776 25.5194 37.6432 25.5194 37.8935C25.5213 38.2319 25.5587 38.4083 25.6847 38.6585C25.9287 39.1487 26.4621 39.5241 27.1018 39.6574C27.4659 39.7333 28.0366 39.7169 28.5149 39.6143C29.4675 39.4154 30.55 38.7365 31.1877 37.9386C31.7447 37.2453 32.0832 36.3593 32.2111 35.2579C32.2505 34.9215 32.2544 34.1728 32.221 33.8631C32.2072 33.7442 32.1678 33.4632 32.1304 33.2376C31.8293 31.3649 31.9612 29.7364 32.5339 28.2863C32.902 27.353 33.4294 26.5203 34.1281 25.7737C34.7304 25.1297 35.315 24.6661 36.1652 24.1616C37.4406 23.4047 38.6569 22.2233 39.4304 20.9886C39.8457 20.3281 40.2157 19.5098 40.4204 18.8042C40.4834 18.5847 40.4991 18.5499 40.5247 18.5683C40.5405 18.5806 40.6231 18.6565 40.7097 18.7345ZM6.41625 18.6298C6.41625 18.7324 6.71738 19.5692 6.90239 19.9774C7.65226 21.6367 9.08116 23.1996 10.7561 24.1923C12.12 25.0005 13.1218 25.9911 13.8461 27.2464C14.8381 28.9652 15.1333 30.9301 14.7515 33.2786C14.6609 33.8365 14.6432 34.0436 14.6432 34.5379C14.6432 36.0824 15.0939 37.3499 15.956 38.234C16.6134 38.9108 17.499 39.4277 18.304 39.6082C18.4182 39.6348 18.5146 39.6574 18.5166 39.6594C18.5205 39.6635 18.4693 39.7558 18.4024 39.8666C18.2528 40.1127 18.0167 40.6111 17.9202 40.886C17.8179 41.1731 17.7195 41.5587 17.6604 41.9033C17.6112 42.1802 17.6073 42.2417 17.6073 42.8263C17.6053 43.3329 17.6112 43.497 17.6407 43.6877C17.7155 44.1882 17.8395 44.6702 17.999 45.0907C18.0462 45.2158 18.0816 45.3224 18.0757 45.3265C18.058 45.345 17.5955 45.2589 17.3101 45.185C15.8753 44.8056 15.0664 43.8785 14.9581 42.492C14.9384 42.2438 14.9542 41.8377 14.9896 41.7044C15.0034 41.6531 15.0093 41.6551 14.7219 41.6059C13.9898 41.4787 13.2852 41.1854 12.7282 40.7752C12.49 40.5988 12.1161 40.2194 11.935 39.9712C11.4626 39.3149 11.1851 38.5375 11.1182 37.6761L11.0946 37.3746L10.8565 37.3212C9.62831 37.0443 8.57534 36.4536 7.93568 35.6783C7.44561 35.0856 7.15825 34.4067 7.03229 33.5555C6.99096 33.2663 6.98505 32.5012 7.02442 32.1915C7.05394 31.9433 7.1366 31.5147 7.174 31.4039L7.20155 31.3239L7.02048 31.2049C6.5678 30.9055 6.0423 30.4317 5.76085 30.0687C5.36721 29.56 5.09757 28.9631 4.9972 28.3745C4.94209 28.0525 4.93618 27.4802 4.98736 27.1418C5.10938 26.3111 5.48924 25.3615 5.96947 24.6805C6.01868 24.6128 6.06395 24.5287 6.06985 24.4959C6.08166 24.4405 6.07576 24.4282 6.01671 24.3892C5.89665 24.3134 5.53254 23.737 5.3436 23.3309C5.05624 22.7074 4.93618 22.1926 4.93815 21.5772C4.93815 20.7589 5.20582 20.0143 5.75494 19.2903C5.90649 19.0913 6.36311 18.6032 6.39854 18.6032C6.40838 18.6032 6.41625 18.6155 6.41625 18.6298ZM26.0409 18.6996C26.0212 18.755 25.9917 18.8288 25.976 18.8678L25.9484 18.9375L25.8461 18.8001C25.789 18.7242 25.726 18.6565 25.7083 18.6483C25.6768 18.636 25.8126 18.6155 26.0035 18.6073L26.0783 18.6032L26.0409 18.6996ZM25.0155 19.5815C25.0155 19.5918 24.8935 19.8851 24.7439 20.2358L24.4723 20.8758L24.4309 20.7076C24.4073 20.6153 24.3758 20.5045 24.3581 20.4635C24.3306 20.3897 24.3266 20.3876 24.2735 20.4122C24.1672 20.4594 24.0117 20.5722 23.9133 20.6727C23.8326 20.7507 23.809 20.765 23.8011 20.7383C23.7637 20.6153 23.6653 20.445 23.5807 20.3589L23.4823 20.2584L23.4095 20.3158C23.3209 20.3876 23.1989 20.5804 23.1654 20.7035C23.1516 20.7548 23.1359 20.7978 23.132 20.7978C23.128 20.7978 23.0828 20.7609 23.0316 20.7158C22.9804 20.6727 22.9194 20.6194 22.8938 20.5989L22.8485 20.562L23.1595 20.3835C23.3307 20.2851 23.498 20.1948 23.5295 20.1805C23.563 20.1681 23.7086 20.1517 23.8562 20.1435C24.0964 20.1292 24.1357 20.123 24.2499 20.0656C24.3188 20.0328 24.4605 19.9323 24.5628 19.8441C24.7655 19.6718 25.0155 19.5262 25.0155 19.5815ZM25.358 19.6267C25.4367 19.682 25.5882 19.8789 25.5804 19.9159C25.5587 19.9959 24.6553 22.3689 24.6376 22.3915C24.6258 22.4059 24.551 22.4551 24.4703 22.5023C24.3011 22.5987 24.2912 22.5987 24.0629 22.4941L23.9114 22.4243L24.055 22.3525C24.4073 22.1782 24.7242 21.8049 24.9171 21.3352C24.9938 21.1506 25.1021 20.7999 25.0883 20.7855C25.0804 20.7773 24.8187 20.8429 24.7537 20.8696C24.7144 20.886 24.6829 20.9701 25.0253 20.162C25.1513 19.8646 25.2596 19.6123 25.2635 19.6041C25.2792 19.5795 25.295 19.5836 25.358 19.6267ZM23.5374 20.6891C23.6299 20.8901 23.6614 21.2634 23.6161 21.6388C23.5925 21.8521 23.5217 22.2172 23.502 22.2397C23.4685 22.2746 23.4252 22.2274 23.4154 22.1454C23.4095 22.0982 23.3858 21.9485 23.3642 21.8131C23.317 21.5362 23.3091 21.0952 23.3445 20.9168C23.3681 20.8019 23.4547 20.5927 23.4784 20.5927C23.4862 20.5927 23.5118 20.6358 23.5374 20.6891ZM22.4884 20.8676L22.4687 20.9968L22.3545 20.9435C22.2935 20.9147 22.2423 20.884 22.2404 20.8778C22.2404 20.8717 22.2994 20.8388 22.3742 20.804C22.447 20.7691 22.5061 20.7383 22.5061 20.7383C22.5061 20.7363 22.4982 20.7958 22.4884 20.8676ZM24.2243 20.8224C24.2361 20.8717 24.2518 20.9681 24.2597 21.0378L24.2715 21.165L24.1593 21.2737C24.0964 21.3332 24.0019 21.4357 23.9507 21.4993L23.8562 21.6162L23.8641 21.3578C23.87 21.1609 23.8799 21.087 23.9054 21.046C23.9487 20.9804 24.1712 20.7363 24.1889 20.7363C24.1967 20.7363 24.2125 20.7753 24.2243 20.8224ZM23.0001 21.0111L23.0867 21.1096V21.3208C23.0867 21.4378 23.0926 21.5506 23.1005 21.5711C23.1083 21.5916 23.0198 21.5054 22.9036 21.3824L22.6911 21.1568L22.7029 21.0132C22.7088 20.9332 22.7186 20.8491 22.7245 20.8245C22.7364 20.7773 22.7364 20.7794 22.8249 20.845C22.8741 20.8799 22.9529 20.9558 23.0001 21.0111ZM22.1183 21.5075C22.1616 21.5977 22.2482 21.7413 22.3073 21.8254C22.3978 21.9485 22.4116 21.9792 22.384 21.9833C22.1951 22.0182 21.77 22.209 21.5082 22.3751C21.1264 22.6151 20.9729 22.8181 21.0103 23.0273C21.0437 23.2119 21.2051 23.2242 21.459 23.0663L21.5712 22.9945V23.1299C21.5712 23.2447 21.5594 23.2878 21.4944 23.4252C21.3921 23.6345 21.3586 23.7862 21.396 23.8642C21.4393 23.9565 21.5121 23.9688 21.6342 23.9093C21.6912 23.8806 21.766 23.8375 21.7995 23.8129L21.8625 23.7698L21.8152 23.9011C21.7503 24.0918 21.709 24.3441 21.709 24.5595C21.709 24.9 21.7916 25.1953 22.0514 25.8086C22.1577 26.0547 22.5454 26.8833 22.5671 26.908C22.575 26.9182 22.6576 26.8854 23.1949 26.6639C24.0413 26.3131 24.5313 26.065 24.7262 25.8865C25.0194 25.6178 25.1867 25.343 25.2733 24.982C25.3088 24.8384 25.3127 24.7707 25.3048 24.5738C25.291 24.2272 25.2025 23.936 25.0057 23.5893C24.9466 23.4847 24.8974 23.3965 24.8974 23.3924C24.8974 23.3904 24.9565 23.3822 25.0312 23.374C25.1041 23.3658 25.3402 23.3227 25.5567 23.2755C26.0626 23.1689 26.0586 23.1689 26.0586 23.1914C26.0586 23.1996 26.0862 23.3329 26.1196 23.4847C26.3853 24.7113 26.5822 26.3419 26.6491 27.8802C26.6865 28.7355 26.6707 30.2204 26.6176 31.0552L26.6058 31.2501L26.4916 31.0203C26.1255 30.2779 25.6138 29.6769 24.8541 29.1005C24.1259 28.5447 23.4606 28.2432 22.8328 28.1776C22.5612 28.1509 22.3781 28.1796 22.1754 28.2842C21.8192 28.4668 21.6106 28.8175 21.6106 29.2298C21.6106 29.361 21.6047 29.4123 21.5869 29.4123C21.5732 29.4123 21.2838 29.3405 20.9433 29.2544L20.3253 29.0944L20.3371 28.3868C20.3745 26.3296 20.6363 24.2826 21.1185 22.3054C21.215 21.9136 21.4059 21.208 21.4177 21.1998C21.4216 21.1978 21.5338 21.1547 21.6696 21.1034L21.9156 21.0111L21.9766 21.1752C22.0101 21.2675 22.0731 21.4152 22.1183 21.5075ZM25.4997 21.2203C25.539 21.3311 25.6 21.5116 25.6355 21.6183L25.6985 21.8131L25.3304 22.0121L24.9604 22.211L25.1178 21.7967C25.2044 21.569 25.3068 21.2962 25.3442 21.1916C25.3835 21.087 25.417 21.005 25.4209 21.0091C25.4249 21.0132 25.4603 21.1075 25.4997 21.2203ZM22.4766 21.2962C22.6065 21.3865 22.8663 21.6695 22.9706 21.8336C23.0965 22.0346 23.1516 22.131 23.1379 22.131C23.0867 22.131 22.8387 22.0428 22.7934 22.01C22.6163 21.8787 22.3171 21.4439 22.2187 21.1732L22.201 21.1219L22.2935 21.1793C22.3467 21.2101 22.4273 21.2634 22.4766 21.2962ZM24.74 21.1568C24.74 21.1957 24.6041 21.4665 24.5136 21.608C24.3404 21.8808 24.0472 22.129 23.8169 22.2028C23.7696 22.2172 23.7696 22.2172 23.8346 22.0982C24.0275 21.7372 24.2833 21.4378 24.553 21.2532C24.7006 21.1527 24.74 21.1321 24.74 21.1568ZM21.768 22.5064C21.768 22.6602 21.398 23.013 21.2366 23.013C21.1815 23.013 21.1776 23.0089 21.1776 22.9371C21.1776 22.8735 21.1933 22.8468 21.2819 22.7566C21.3665 22.6705 21.6972 22.4633 21.7542 22.4592C21.7621 22.4592 21.768 22.4797 21.768 22.5064ZM22.6537 23.4847C22.9647 23.5934 23.1457 23.6283 23.4016 23.6283C23.6614 23.6283 23.7303 23.6119 24.0452 23.4827C24.2617 23.3924 24.2991 23.3822 24.4428 23.3822H24.6002L24.7026 23.5298C24.8364 23.7309 24.986 24.0529 25.0371 24.2539C25.0883 24.4631 25.0942 24.7728 25.047 24.9594C24.9899 25.1912 24.8679 25.4025 24.6809 25.5973C24.4388 25.8496 24.1515 26.0055 23.1654 26.4198L22.6832 26.6229L22.5671 26.3808C22.2699 25.7676 22.0317 25.181 21.9747 24.9205C21.8979 24.5738 21.9432 24.1452 22.0908 23.8252C22.1931 23.6057 22.3545 23.376 22.3939 23.3924C22.4116 23.4006 22.5297 23.4417 22.6537 23.4847ZM0.356242 23.9667C1.32065 26.8936 3.11169 29.2708 5.43216 30.7106C5.83564 30.9588 6.44184 31.2665 6.80201 31.4018L6.92207 31.447L6.8768 31.6664C6.65834 32.7207 6.74494 33.8529 7.11495 34.7553C7.43773 35.543 7.94749 36.1583 8.7072 36.6772C8.8371 36.7654 8.93748 36.8372 8.93158 36.8372C8.92567 36.8372 8.76822 36.7818 8.57927 36.7162C6.37492 35.9368 4.57798 34.6897 3.21994 32.9955C1.57454 30.9404 0.572741 28.2432 0.305069 25.1563C0.259801 24.6231 0.220438 23.6242 0.246024 23.6509C0.24996 23.657 0.299165 23.7985 0.356242 23.9667ZM46.756 24.0529C46.6831 26.2373 46.3033 28.1386 45.5888 29.8841C44.3016 33.0304 42.0579 35.2743 38.96 36.5152C38.6668 36.63 37.8519 36.9192 37.8145 36.9192C37.8067 36.9192 37.8795 36.872 37.9759 36.8146C38.7711 36.3388 39.3556 35.6988 39.7158 34.9071C40.139 33.978 40.2511 32.7986 40.0228 31.6705C40.0071 31.5885 39.9933 31.5106 39.9933 31.4962C39.9933 31.4818 40.0307 31.4593 40.0779 31.4449C40.2433 31.3936 40.6585 31.209 40.9577 31.0532C43.2211 29.8759 45.0869 27.7653 46.2088 25.1153C46.3761 24.7236 46.5788 24.178 46.6831 23.8478C46.7186 23.7391 46.752 23.6488 46.7579 23.6488C46.7638 23.6488 46.7638 23.8314 46.756 24.0529ZM26.9896 24.8794C27.8733 26.7193 28.5031 28.879 28.8042 31.0942C28.881 31.6685 28.9696 31.9105 29.1782 32.132C29.4203 32.3884 29.7175 32.3987 29.9261 32.1587C30.0914 31.9679 30.2016 31.6275 30.3197 30.9404C30.4083 30.4337 30.4673 30.1363 30.5559 29.7897C30.9259 28.3314 31.5676 27.0577 32.469 25.987C32.6914 25.7224 33.1362 25.263 33.3606 25.064C33.4609 24.9738 33.4314 25.0148 33.2149 25.2589C32.0537 26.5695 31.351 27.9602 31.048 29.5456C30.8196 30.7414 30.8275 31.7854 31.0775 33.1555C31.1582 33.6067 31.1818 33.8672 31.1818 34.3144C31.1838 34.8764 31.1267 35.2804 30.9889 35.7193C30.7429 36.5049 30.2351 37.1407 29.5817 37.4833C29.3199 37.6207 29.1821 37.6617 28.9381 37.672C28.5208 37.6925 28.2492 37.5858 27.9678 37.2905C27.4915 36.7941 27.3734 36.0311 27.5426 34.5646C27.6686 33.4837 27.6863 31.3301 27.582 29.761C27.4501 27.7448 27.1411 25.8681 26.7081 24.4631C26.6629 24.3175 26.6215 24.1841 26.6176 24.1657C26.592 24.0795 26.7711 24.4221 26.9896 24.8794ZM20.1502 24.6374C19.9711 25.2589 19.8097 25.9604 19.6699 26.7459C19.5932 27.1725 19.4593 28.1263 19.4239 28.5037L19.4003 28.7539L19.2547 28.6698C19.1759 28.6247 19.111 28.5939 19.111 28.6001C19.111 28.6083 19.17 28.6965 19.2409 28.799L19.3727 28.9857L19.3393 29.4082C19.2665 30.3784 19.2586 30.6204 19.2586 32.0172C19.2586 33.4837 19.2763 33.9657 19.3472 34.5605C19.483 35.6845 19.4377 36.4065 19.1995 36.8987C19.0263 37.2597 18.7488 37.5161 18.4083 37.6289C18.2568 37.6781 17.9045 37.6904 17.7313 37.6494C17.2825 37.5448 16.7393 37.153 16.391 36.6874C16.0721 36.2547 15.8714 35.7563 15.7631 35.1225C15.7218 34.8907 15.7178 34.7923 15.7178 34.3144C15.7178 33.7401 15.7336 33.5534 15.834 33.0427C15.8969 32.7207 15.954 32.2818 15.9835 31.9064C16.017 31.4654 15.9954 30.5609 15.9422 30.1507C15.6942 28.235 14.9148 26.59 13.5607 25.1379L13.3147 24.8712L13.5017 25.0353C13.9327 25.4086 14.4405 25.9686 14.7948 26.4526C15.1628 26.9572 15.4088 27.3715 15.6883 27.9643C16.1154 28.8667 16.3536 29.6605 16.5819 30.9547C16.7059 31.6664 16.8082 31.9761 16.9834 32.1669C17.1271 32.3248 17.2904 32.3658 17.501 32.292C17.69 32.2264 17.8848 31.9741 17.9911 31.6541C18.0127 31.5885 18.056 31.3506 18.0875 31.125C18.3887 29.0062 18.9299 27.0946 19.7309 25.3307C19.8235 25.1297 19.914 24.9348 19.9337 24.8959C19.9553 24.8589 20.0301 24.7113 20.1029 24.5656C20.1758 24.4221 20.2368 24.3052 20.2407 24.3052C20.2427 24.3052 20.2033 24.4549 20.1502 24.6374ZM20.3903 24.8794C20.225 26.028 20.1305 27.191 20.1029 28.434C20.0892 29.0185 20.0892 29.0226 20.0478 29.0103C20.0242 29.0041 19.9199 28.9693 19.8156 28.9344C19.6384 28.8749 19.6227 28.8667 19.6227 28.8175C19.6227 28.7355 19.7132 27.9622 19.7703 27.5663C19.8746 26.8464 20.0262 26.0486 20.1836 25.3963C20.2722 25.0333 20.4316 24.4651 20.4415 24.4754C20.4454 24.4774 20.4218 24.66 20.3903 24.8794ZM20.8922 30.1938C21.5358 30.5178 22.2935 30.7168 23.0788 30.766L23.4311 30.7886L23.6299 30.8911C23.8897 31.0265 24.12 31.209 24.3581 31.4695C24.7616 31.9126 24.9781 32.4151 25.0371 33.0509C25.0667 33.3606 25.0371 33.9841 24.9781 34.298C24.8206 35.1163 24.4014 35.7747 23.75 36.228C23.4154 36.4598 23.1005 36.6013 22.388 36.8372C22.2148 36.8946 21.953 36.9931 21.8074 37.0546C21.6617 37.1182 21.524 37.1735 21.5003 37.1797C21.461 37.1879 21.4511 37.1592 21.3389 36.7408C20.9 35.104 20.5969 33.3504 20.4415 31.5352C20.4021 31.0962 20.3509 30.2286 20.3509 30.0338V29.8861L20.4848 29.9702C20.5576 30.0174 20.7406 30.1179 20.8922 30.1938ZM1.71822 32.934C3.89896 35.7152 6.49891 37.3233 9.29963 37.6268C9.64799 37.6658 10.3231 37.6761 10.6596 37.6514L10.8761 37.635L10.9017 37.8566C11.0297 39.0175 11.5532 40.0717 12.3365 40.7568C12.801 41.1608 13.2675 41.4234 13.9248 41.649L14.1807 41.7372H13.5017C12.8128 41.7392 12.431 41.7228 11.8976 41.6674C9.40984 41.407 7.25076 40.4901 5.45775 38.9334C3.9206 37.5981 2.66294 35.7563 1.8304 33.617C1.70247 33.2888 1.48991 32.6735 1.50369 32.6735C1.50959 32.6735 1.60406 32.7904 1.71822 32.934ZM45.4078 32.9545C44.9275 34.38 44.2387 35.7316 43.4179 36.8679C42.0323 38.7816 40.2688 40.1538 38.1629 40.9557C37.1867 41.327 36.1022 41.571 34.8957 41.69C34.4942 41.729 32.7898 41.7577 32.7898 41.7249C32.7898 41.7126 32.8587 41.6838 32.9433 41.6592C33.148 41.5957 33.5082 41.4459 33.7227 41.3352C34.7009 40.8245 35.4035 39.9835 35.7716 38.8882C35.8739 38.5785 35.9526 38.2278 35.992 37.8996L36.0255 37.6125L36.0845 37.6248C36.2321 37.6535 36.8797 37.6802 37.1296 37.6679C37.7004 37.6412 38.2436 37.5694 38.7534 37.4504C41.1585 36.8946 43.3825 35.3543 45.2818 32.934C45.3959 32.7904 45.4904 32.6735 45.4963 32.6735C45.5003 32.6735 45.4609 32.8007 45.4078 32.9545ZM40.5326 41.2101C40.4361 41.3803 40.0051 41.889 39.6764 42.2212C38.592 43.3144 37.2516 44.141 35.6633 44.6928C34.5769 45.0722 33.5534 45.2814 32.219 45.4024C31.7919 45.4394 30.4044 45.4619 29.9655 45.4373L29.6702 45.4209L29.9556 45.3224C30.491 45.1399 30.9358 44.8733 31.2802 44.5287C31.5203 44.2908 31.6915 44.0549 31.8313 43.7718C32.0616 43.3103 32.16 42.9001 32.1737 42.3279C32.1796 42.1289 32.1895 41.9648 32.1934 41.9648C32.1993 41.9648 32.2289 41.9833 32.2603 42.0059C32.4631 42.1576 33.0378 42.3853 33.5259 42.5084C35.4921 43.0047 37.7161 42.6889 39.7866 41.6141C39.9815 41.5136 40.2295 41.3762 40.3377 41.3106C40.566 41.1711 40.5503 41.1793 40.5326 41.2101ZM6.70754 41.3413C7.87073 42.0223 9.21696 42.4961 10.4569 42.6622C11.9153 42.8571 13.4466 42.6622 14.4779 42.1494L14.716 42.0325L14.7278 42.3833C14.7731 43.817 15.5505 44.8445 16.9539 45.3265L17.2471 45.427L16.8948 45.4414C16.4146 45.4619 15.2258 45.4394 14.781 45.4024C13.48 45.2876 12.4192 45.0702 11.3367 44.6928C9.54958 44.0713 8.03803 43.0765 6.91813 41.7864C6.73116 41.571 6.44577 41.2059 6.46545 41.2059C6.47136 41.2059 6.57961 41.2675 6.70754 41.3413Z" fill="black"/>
<path d="M33.394 16.4085C33.2956 16.4885 33.3113 16.6485 33.4235 16.7079C33.5416 16.7715 33.6754 16.6813 33.6754 16.5377C33.6754 16.3941 33.5062 16.3162 33.394 16.4085Z" fill="white"/>
<path d="M33.4078 17.0116C33.2916 17.0649 33.2739 17.229 33.3743 17.311C33.4904 17.4054 33.6558 17.3274 33.6558 17.1797C33.6558 17.0423 33.5278 16.9562 33.4078 17.0116Z" fill="white"/>
<path d="M33.3054 17.711C33.2169 17.7889 33.2169 17.8997 33.3035 17.9756C33.3979 18.0597 33.5121 18.0371 33.5672 17.9263C33.6263 17.8074 33.5672 17.6884 33.4353 17.6679C33.3822 17.6577 33.3566 17.6659 33.3054 17.711Z" fill="white"/>
<path d="M31.8825 17.8423C31.8432 17.8833 31.8254 17.9223 31.8254 17.9674C31.8254 18.0125 31.8432 18.0515 31.8825 18.0925C31.9219 18.1335 31.9593 18.152 32.0026 18.152C32.0459 18.152 32.0833 18.1335 32.1226 18.0925C32.162 18.0515 32.1797 18.0125 32.1797 17.9674C32.1797 17.9223 32.162 17.8833 32.1226 17.8423C32.0833 17.8012 32.0459 17.7828 32.0026 17.7828C31.9593 17.7828 31.9219 17.8012 31.8825 17.8423Z" fill="white"/>
<path d="M33.1145 18.2996C33.085 18.3284 33.0594 18.3776 33.0535 18.4206C33.0437 18.4822 33.0516 18.5068 33.0988 18.5622C33.1441 18.6155 33.1697 18.6278 33.2326 18.6278C33.2956 18.6278 33.3212 18.6155 33.3665 18.5622C33.4137 18.5068 33.4216 18.4822 33.4117 18.4206C33.398 18.3263 33.3212 18.2545 33.2326 18.2545C33.1913 18.2545 33.146 18.273 33.1145 18.2996Z" fill="white"/>
<path d="M32.1856 18.3878C32.1128 18.4206 32.0813 18.4739 32.0813 18.5662C32.0833 18.7282 32.2525 18.8021 32.3746 18.6934C32.4789 18.6031 32.4533 18.4411 32.3273 18.3857C32.2486 18.3529 32.2643 18.3508 32.1856 18.3878Z" fill="white"/>
<path d="M32.7052 18.6873C32.6875 18.6976 32.6579 18.7365 32.6402 18.7693C32.5772 18.8965 32.6658 19.0339 32.8095 19.0339C32.8685 19.0339 32.8961 19.0216 32.9355 18.9704C33.0043 18.8863 33.0024 18.8001 32.9295 18.7242C32.8685 18.6606 32.7741 18.6463 32.7052 18.6873Z" fill="white"/>
<path d="M31.8372 16.4311C31.7683 16.5152 31.7703 16.6013 31.8431 16.6772C31.9632 16.8003 32.1502 16.7244 32.1502 16.5521C32.1502 16.4393 32.0773 16.3675 31.9632 16.3675C31.9041 16.3675 31.8785 16.3798 31.8372 16.4311Z" fill="white"/>
<path d="M22.4667 29.2461C22.445 29.2564 22.4017 29.2933 22.3682 29.3302C22.3171 29.3856 22.3092 29.4082 22.3092 29.5148C22.3092 29.6276 22.3151 29.642 22.382 29.7117C22.5552 29.8943 22.8505 29.7712 22.8505 29.5189C22.8505 29.4287 22.8032 29.3302 22.7383 29.281C22.6812 29.2379 22.5277 29.2174 22.4667 29.2461Z" fill="white"/>
</g>
<path d="M52.68 30.03V37H51.77V30.03H52.68ZM56.9009 31.42C57.5676 31.42 58.1076 31.6233 58.5209 32.03C58.9343 32.43 59.1409 33.01 59.1409 33.77V37H58.2409V33.9C58.2409 33.3533 58.1043 32.9367 57.8309 32.65C57.5576 32.3567 57.1843 32.21 56.7109 32.21C56.2309 32.21 55.8476 32.36 55.5609 32.66C55.2809 32.96 55.1409 33.3967 55.1409 33.97V37H54.2309V31.52H55.1409V32.3C55.3209 32.02 55.5643 31.8033 55.8709 31.65C56.1843 31.4967 56.5276 31.42 56.9009 31.42ZM62.5674 37.09C62.1474 37.09 61.7708 37.02 61.4374 36.88C61.1041 36.7333 60.8408 36.5333 60.6474 36.28C60.4541 36.02 60.3474 35.7233 60.3274 35.39H61.2674C61.2941 35.6633 61.4208 35.8867 61.6474 36.06C61.8808 36.2333 62.1841 36.32 62.5574 36.32C62.9041 36.32 63.1774 36.2433 63.3774 36.09C63.5774 35.9367 63.6774 35.7433 63.6774 35.51C63.6774 35.27 63.5708 35.0933 63.3574 34.98C63.1441 34.86 62.8141 34.7433 62.3674 34.63C61.9608 34.5233 61.6274 34.4167 61.3674 34.31C61.1141 34.1967 60.8941 34.0333 60.7074 33.82C60.5274 33.6 60.4374 33.3133 60.4374 32.96C60.4374 32.68 60.5208 32.4233 60.6874 32.19C60.8541 31.9567 61.0908 31.7733 61.3974 31.64C61.7041 31.5 62.0541 31.43 62.4474 31.43C63.0541 31.43 63.5441 31.5833 63.9174 31.89C64.2908 32.1967 64.4908 32.6167 64.5174 33.15H63.6074C63.5874 32.8633 63.4708 32.6333 63.2574 32.46C63.0508 32.2867 62.7708 32.2 62.4174 32.2C62.0908 32.2 61.8308 32.27 61.6374 32.41C61.4441 32.55 61.3474 32.7333 61.3474 32.96C61.3474 33.14 61.4041 33.29 61.5174 33.41C61.6374 33.5233 61.7841 33.6167 61.9574 33.69C62.1374 33.7567 62.3841 33.8333 62.6974 33.92C63.0908 34.0267 63.4108 34.1333 63.6574 34.24C63.9041 34.34 64.1141 34.4933 64.2874 34.7C64.4674 34.9067 64.5608 35.1767 64.5674 35.51C64.5674 35.81 64.4841 36.08 64.3174 36.32C64.1508 36.56 63.9141 36.75 63.6074 36.89C63.3074 37.0233 62.9608 37.09 62.5674 37.09ZM66.962 32.27V35.5C66.962 35.7667 67.0187 35.9567 67.132 36.07C67.2454 36.1767 67.442 36.23 67.722 36.23H68.392V37H67.572C67.0654 37 66.6854 36.8833 66.432 36.65C66.1787 36.4167 66.052 36.0333 66.052 35.5V32.27H65.342V31.52H66.052V30.14H66.962V31.52H68.392V32.27H66.962ZM69.9646 30.63C69.7913 30.63 69.6446 30.57 69.5246 30.45C69.4046 30.33 69.3446 30.1833 69.3446 30.01C69.3446 29.8367 69.4046 29.69 69.5246 29.57C69.6446 29.45 69.7913 29.39 69.9646 29.39C70.1313 29.39 70.2713 29.45 70.3846 29.57C70.5046 29.69 70.5646 29.8367 70.5646 30.01C70.5646 30.1833 70.5046 30.33 70.3846 30.45C70.2713 30.57 70.1313 30.63 69.9646 30.63ZM70.4046 31.52V37H69.4946V31.52H70.4046ZM73.0655 32.27V35.5C73.0655 35.7667 73.1222 35.9567 73.2355 36.07C73.3489 36.1767 73.5455 36.23 73.8255 36.23H74.4955V37H73.6755C73.1689 37 72.7889 36.8833 72.5355 36.65C72.2822 36.4167 72.1555 36.0333 72.1555 35.5V32.27H71.4455V31.52H72.1555V30.14H73.0655V31.52H74.4955V32.27H73.0655ZM80.4581 31.52V37H79.5481V36.19C79.3748 36.47 79.1315 36.69 78.8181 36.85C78.5115 37.0033 78.1715 37.08 77.7981 37.08C77.3715 37.08 76.9881 36.9933 76.6481 36.82C76.3081 36.64 76.0381 36.3733 75.8381 36.02C75.6448 35.6667 75.5481 35.2367 75.5481 34.73V31.52H76.4481V34.61C76.4481 35.15 76.5848 35.5667 76.8581 35.86C77.1315 36.1467 77.5048 36.29 77.9781 36.29C78.4648 36.29 78.8481 36.14 79.1281 35.84C79.4081 35.54 79.5481 35.1033 79.5481 34.53V31.52H80.4581ZM83.1046 32.27V35.5C83.1046 35.7667 83.1613 35.9567 83.2746 36.07C83.3879 36.1767 83.5846 36.23 83.8646 36.23H84.5346V37H83.7146C83.2079 37 82.8279 36.8833 82.5746 36.65C82.3213 36.4167 82.1946 36.0333 82.1946 35.5V32.27H81.4846V31.52H82.1946V30.14H83.1046V31.52H84.5346V32.27H83.1046ZM90.5132 37.07C90.0532 37.07 89.6399 36.99 89.2732 36.83C88.9132 36.6633 88.6299 36.4367 88.4232 36.15C88.2165 35.8567 88.1099 35.52 88.1032 35.14H89.0732C89.1065 35.4667 89.2399 35.7433 89.4732 35.97C89.7132 36.19 90.0599 36.3 90.5132 36.3C90.9465 36.3 91.2865 36.1933 91.5332 35.98C91.7865 35.76 91.9132 35.48 91.9132 35.14C91.9132 34.8733 91.8399 34.6567 91.6932 34.49C91.5465 34.3233 91.3632 34.1967 91.1432 34.11C90.9232 34.0233 90.6265 33.93 90.2532 33.83C89.7932 33.71 89.4232 33.59 89.1432 33.47C88.8699 33.35 88.6332 33.1633 88.4332 32.91C88.2399 32.65 88.1432 32.3033 88.1432 31.87C88.1432 31.49 88.2399 31.1533 88.4332 30.86C88.6265 30.5667 88.8965 30.34 89.2432 30.18C89.5965 30.02 89.9999 29.94 90.4532 29.94C91.1065 29.94 91.6399 30.1033 92.0532 30.43C92.4732 30.7567 92.7099 31.19 92.7632 31.73H91.7632C91.7299 31.4633 91.5899 31.23 91.3432 31.03C91.0965 30.8233 90.7699 30.72 90.3632 30.72C89.9832 30.72 89.6732 30.82 89.4332 31.02C89.1932 31.2133 89.0732 31.4867 89.0732 31.84C89.0732 32.0933 89.1432 32.3 89.2832 32.46C89.4299 32.62 89.6065 32.7433 89.8132 32.83C90.0265 32.91 90.3232 33.0033 90.7032 33.11C91.1632 33.2367 91.5332 33.3633 91.8132 33.49C92.0932 33.61 92.3332 33.8 92.5332 34.06C92.7332 34.3133 92.8332 34.66 92.8332 35.1C92.8332 35.44 92.7432 35.76 92.5632 36.06C92.3832 36.36 92.1165 36.6033 91.7632 36.79C91.4099 36.9767 90.9932 37.07 90.5132 37.07ZM99.1723 34.05C99.1723 34.2233 99.1623 34.4067 99.1423 34.6H94.7623C94.7957 35.14 94.979 35.5633 95.3123 35.87C95.6523 36.17 96.0623 36.32 96.5423 36.32C96.9357 36.32 97.2623 36.23 97.5223 36.05C97.789 35.8633 97.9757 35.6167 98.0823 35.31H99.0623C98.9157 35.8367 98.6223 36.2667 98.1823 36.6C97.7423 36.9267 97.1957 37.09 96.5423 37.09C96.0223 37.09 95.5557 36.9733 95.1423 36.74C94.7357 36.5067 94.4157 36.1767 94.1823 35.75C93.949 35.3167 93.8323 34.8167 93.8323 34.25C93.8323 33.6833 93.9457 33.1867 94.1723 32.76C94.399 32.3333 94.7157 32.0067 95.1223 31.78C95.5357 31.5467 96.009 31.43 96.5423 31.43C97.0623 31.43 97.5223 31.5433 97.9223 31.77C98.3223 31.9967 98.629 32.31 98.8423 32.71C99.0623 33.1033 99.1723 33.55 99.1723 34.05ZM98.2323 33.86C98.2323 33.5133 98.1557 33.2167 98.0023 32.97C97.849 32.7167 97.639 32.5267 97.3723 32.4C97.1123 32.2667 96.8223 32.2 96.5023 32.2C96.0423 32.2 95.649 32.3467 95.3223 32.64C95.0023 32.9333 94.819 33.34 94.7723 33.86H98.2323ZM103.044 31.42C103.71 31.42 104.25 31.6233 104.664 32.03C105.077 32.43 105.284 33.01 105.284 33.77V37H104.384V33.9C104.384 33.3533 104.247 32.9367 103.974 32.65C103.7 32.3567 103.327 32.21 102.854 32.21C102.374 32.21 101.99 32.36 101.704 32.66C101.424 32.96 101.284 33.3967 101.284 33.97V37H100.374V31.52H101.284V32.3C101.464 32.02 101.707 31.8033 102.014 31.65C102.327 31.4967 102.67 31.42 103.044 31.42ZM107.24 30.63C107.067 30.63 106.92 30.57 106.8 30.45C106.68 30.33 106.62 30.1833 106.62 30.01C106.62 29.8367 106.68 29.69 106.8 29.57C106.92 29.45 107.067 29.39 107.24 29.39C107.407 29.39 107.547 29.45 107.66 29.57C107.78 29.69 107.84 29.8367 107.84 30.01C107.84 30.1833 107.78 30.33 107.66 30.45C107.547 30.57 107.407 30.63 107.24 30.63ZM107.68 31.52V37H106.77V31.52H107.68ZM112.807 30.03V37H111.897V30.03H112.807ZM117.028 31.42C117.695 31.42 118.235 31.6233 118.648 32.03C119.061 32.43 119.268 33.01 119.268 33.77V37H118.368V33.9C118.368 33.3533 118.231 32.9367 117.958 32.65C117.685 32.3567 117.311 32.21 116.838 32.21C116.358 32.21 115.975 32.36 115.688 32.66C115.408 32.96 115.268 33.3967 115.268 33.97V37H114.358V31.52H115.268V32.3C115.448 32.02 115.691 31.8033 115.998 31.65C116.311 31.4967 116.655 31.42 117.028 31.42ZM120.414 34.24C120.414 33.68 120.528 33.19 120.754 32.77C120.981 32.3433 121.291 32.0133 121.684 31.78C122.084 31.5467 122.531 31.43 123.024 31.43C123.451 31.43 123.848 31.53 124.214 31.73C124.581 31.9233 124.861 32.18 125.054 32.5V29.6H125.974V37H125.054V35.97C124.874 36.2967 124.608 36.5667 124.254 36.78C123.901 36.9867 123.488 37.09 123.014 37.09C122.528 37.09 122.084 36.97 121.684 36.73C121.291 36.49 120.981 36.1533 120.754 35.72C120.528 35.2867 120.414 34.7933 120.414 34.24ZM125.054 34.25C125.054 33.8367 124.971 33.4767 124.804 33.17C124.638 32.8633 124.411 32.63 124.124 32.47C123.844 32.3033 123.534 32.22 123.194 32.22C122.854 32.22 122.544 32.3 122.264 32.46C121.984 32.62 121.761 32.8533 121.594 33.16C121.428 33.4667 121.344 33.8267 121.344 34.24C121.344 34.66 121.428 35.0267 121.594 35.34C121.761 35.6467 121.984 35.8833 122.264 36.05C122.544 36.21 122.854 36.29 123.194 36.29C123.534 36.29 123.844 36.21 124.124 36.05C124.411 35.8833 124.638 35.6467 124.804 35.34C124.971 35.0267 125.054 34.6633 125.054 34.25ZM129.902 37.09C129.389 37.09 128.922 36.9733 128.502 36.74C128.089 36.5067 127.762 36.1767 127.522 35.75C127.289 35.3167 127.172 34.8167 127.172 34.25C127.172 33.69 127.292 33.1967 127.532 32.77C127.779 32.3367 128.112 32.0067 128.532 31.78C128.952 31.5467 129.422 31.43 129.942 31.43C130.462 31.43 130.932 31.5467 131.352 31.78C131.772 32.0067 132.102 32.3333 132.342 32.76C132.589 33.1867 132.712 33.6833 132.712 34.25C132.712 34.8167 132.586 35.3167 132.332 35.75C132.086 36.1767 131.749 36.5067 131.322 36.74C130.896 36.9733 130.422 37.09 129.902 37.09ZM129.902 36.29C130.229 36.29 130.536 36.2133 130.822 36.06C131.109 35.9067 131.339 35.6767 131.512 35.37C131.692 35.0633 131.782 34.69 131.782 34.25C131.782 33.81 131.696 33.4367 131.522 33.13C131.349 32.8233 131.122 32.5967 130.842 32.45C130.562 32.2967 130.259 32.22 129.932 32.22C129.599 32.22 129.292 32.2967 129.012 32.45C128.739 32.5967 128.519 32.8233 128.352 33.13C128.186 33.4367 128.102 33.81 128.102 34.25C128.102 34.6967 128.182 35.0733 128.342 35.38C128.509 35.6867 128.729 35.9167 129.002 36.07C129.276 36.2167 129.576 36.29 129.902 36.29ZM136.579 31.42C137.245 31.42 137.785 31.6233 138.199 32.03C138.612 32.43 138.819 33.01 138.819 33.77V37H137.919V33.9C137.919 33.3533 137.782 32.9367 137.509 32.65C137.235 32.3567 136.862 32.21 136.389 32.21C135.909 32.21 135.525 32.36 135.239 32.66C134.959 32.96 134.819 33.3967 134.819 33.97V37H133.909V31.52H134.819V32.3C134.999 32.02 135.242 31.8033 135.549 31.65C135.862 31.4967 136.205 31.42 136.579 31.42ZM145.305 34.05C145.305 34.2233 145.295 34.4067 145.275 34.6H140.895C140.928 35.14 141.112 35.5633 141.445 35.87C141.785 36.17 142.195 36.32 142.675 36.32C143.068 36.32 143.395 36.23 143.655 36.05C143.922 35.8633 144.108 35.6167 144.215 35.31H145.195C145.048 35.8367 144.755 36.2667 144.315 36.6C143.875 36.9267 143.328 37.09 142.675 37.09C142.155 37.09 141.688 36.9733 141.275 36.74C140.868 36.5067 140.548 36.1767 140.315 35.75C140.082 35.3167 139.965 34.8167 139.965 34.25C139.965 33.6833 140.078 33.1867 140.305 32.76C140.532 32.3333 140.848 32.0067 141.255 31.78C141.668 31.5467 142.142 31.43 142.675 31.43C143.195 31.43 143.655 31.5433 144.055 31.77C144.455 31.9967 144.762 32.31 144.975 32.71C145.195 33.1033 145.305 33.55 145.305 34.05ZM144.365 33.86C144.365 33.5133 144.288 33.2167 144.135 32.97C143.982 32.7167 143.772 32.5267 143.505 32.4C143.245 32.2667 142.955 32.2 142.635 32.2C142.175 32.2 141.782 32.3467 141.455 32.64C141.135 32.9333 140.952 33.34 140.905 33.86H144.365ZM148.446 37.09C148.026 37.09 147.65 37.02 147.316 36.88C146.983 36.7333 146.72 36.5333 146.526 36.28C146.333 36.02 146.226 35.7233 146.206 35.39H147.146C147.173 35.6633 147.3 35.8867 147.526 36.06C147.76 36.2333 148.063 36.32 148.436 36.32C148.783 36.32 149.056 36.2433 149.256 36.09C149.456 35.9367 149.556 35.7433 149.556 35.51C149.556 35.27 149.45 35.0933 149.236 34.98C149.023 34.86 148.693 34.7433 148.246 34.63C147.84 34.5233 147.506 34.4167 147.246 34.31C146.993 34.1967 146.773 34.0333 146.586 33.82C146.406 33.6 146.316 33.3133 146.316 32.96C146.316 32.68 146.4 32.4233 146.566 32.19C146.733 31.9567 146.97 31.7733 147.276 31.64C147.583 31.5 147.933 31.43 148.326 31.43C148.933 31.43 149.423 31.5833 149.796 31.89C150.17 32.1967 150.37 32.6167 150.396 33.15H149.486C149.466 32.8633 149.35 32.6333 149.136 32.46C148.93 32.2867 148.65 32.2 148.296 32.2C147.97 32.2 147.71 32.27 147.516 32.41C147.323 32.55 147.226 32.7333 147.226 32.96C147.226 33.14 147.283 33.29 147.396 33.41C147.516 33.5233 147.663 33.6167 147.836 33.69C148.016 33.7567 148.263 33.8333 148.576 33.92C148.97 34.0267 149.29 34.1333 149.536 34.24C149.783 34.34 149.993 34.4933 150.166 34.7C150.346 34.9067 150.44 35.1767 150.446 35.51C150.446 35.81 150.363 36.08 150.196 36.32C150.03 36.56 149.793 36.75 149.486 36.89C149.186 37.0233 148.84 37.09 148.446 37.09ZM152.201 30.63C152.028 30.63 151.881 30.57 151.761 30.45C151.641 30.33 151.581 30.1833 151.581 30.01C151.581 29.8367 151.641 29.69 151.761 29.57C151.881 29.45 152.028 29.39 152.201 29.39C152.368 29.39 152.508 29.45 152.621 29.57C152.741 29.69 152.801 29.8367 152.801 30.01C152.801 30.1833 152.741 30.33 152.621 30.45C152.508 30.57 152.368 30.63 152.201 30.63ZM152.641 31.52V37H151.731V31.52H152.641ZM153.852 34.24C153.852 33.68 153.965 33.19 154.192 32.77C154.419 32.3433 154.729 32.0133 155.122 31.78C155.522 31.5467 155.965 31.43 156.452 31.43C156.932 31.43 157.349 31.5333 157.702 31.74C158.055 31.9467 158.319 32.2067 158.492 32.52V31.52H159.412V37H158.492V35.98C158.312 36.3 158.042 36.5667 157.682 36.78C157.329 36.9867 156.915 37.09 156.442 37.09C155.955 37.09 155.515 36.97 155.122 36.73C154.729 36.49 154.419 36.1533 154.192 35.72C153.965 35.2867 153.852 34.7933 153.852 34.24ZM158.492 34.25C158.492 33.8367 158.409 33.4767 158.242 33.17C158.075 32.8633 157.849 32.63 157.562 32.47C157.282 32.3033 156.972 32.22 156.632 32.22C156.292 32.22 155.982 32.3 155.702 32.46C155.422 32.62 155.199 32.8533 155.032 33.16C154.865 33.4667 154.782 33.8267 154.782 34.24C154.782 34.66 154.865 35.0267 155.032 35.34C155.199 35.6467 155.422 35.8833 155.702 36.05C155.982 36.21 156.292 36.29 156.632 36.29C156.972 36.29 157.282 36.21 157.562 36.05C157.849 35.8833 158.075 35.6467 158.242 35.34C158.409 35.0267 158.492 34.6633 158.492 34.25ZM168.496 30.03L166.226 34.37V37H165.316V34.37L163.036 30.03H164.046L165.766 33.56L167.486 30.03H168.496ZM171.846 37.09C171.332 37.09 170.866 36.9733 170.446 36.74C170.032 36.5067 169.706 36.1767 169.466 35.75C169.232 35.3167 169.116 34.8167 169.116 34.25C169.116 33.69 169.236 33.1967 169.476 32.77C169.722 32.3367 170.056 32.0067 170.476 31.78C170.896 31.5467 171.366 31.43 171.886 31.43C172.406 31.43 172.876 31.5467 173.296 31.78C173.716 32.0067 174.046 32.3333 174.286 32.76C174.532 33.1867 174.656 33.6833 174.656 34.25C174.656 34.8167 174.529 35.3167 174.276 35.75C174.029 36.1767 173.692 36.5067 173.266 36.74C172.839 36.9733 172.366 37.09 171.846 37.09ZM171.846 36.29C172.172 36.29 172.479 36.2133 172.766 36.06C173.052 35.9067 173.282 35.6767 173.456 35.37C173.636 35.0633 173.726 34.69 173.726 34.25C173.726 33.81 173.639 33.4367 173.466 33.13C173.292 32.8233 173.066 32.5967 172.786 32.45C172.506 32.2967 172.202 32.22 171.876 32.22C171.542 32.22 171.236 32.2967 170.956 32.45C170.682 32.5967 170.462 32.8233 170.296 33.13C170.129 33.4367 170.046 33.81 170.046 34.25C170.046 34.6967 170.126 35.0733 170.286 35.38C170.452 35.6867 170.672 35.9167 170.946 36.07C171.219 36.2167 171.519 36.29 171.846 36.29ZM178.112 31.43C178.585 31.43 178.999 31.5333 179.352 31.74C179.712 31.9467 179.979 32.2067 180.152 32.52V31.52H181.072V37.12C181.072 37.62 180.965 38.0633 180.752 38.45C180.539 38.8433 180.232 39.15 179.832 39.37C179.439 39.59 178.979 39.7 178.452 39.7C177.732 39.7 177.132 39.53 176.652 39.19C176.172 38.85 175.889 38.3867 175.802 37.8H176.702C176.802 38.1333 177.009 38.4 177.322 38.6C177.635 38.8067 178.012 38.91 178.452 38.91C178.952 38.91 179.359 38.7533 179.672 38.44C179.992 38.1267 180.152 37.6867 180.152 37.12V35.97C179.972 36.29 179.705 36.5567 179.352 36.77C178.999 36.9833 178.585 37.09 178.112 37.09C177.625 37.09 177.182 36.97 176.782 36.73C176.389 36.49 176.079 36.1533 175.852 35.72C175.625 35.2867 175.512 34.7933 175.512 34.24C175.512 33.68 175.625 33.19 175.852 32.77C176.079 32.3433 176.389 32.0133 176.782 31.78C177.182 31.5467 177.625 31.43 178.112 31.43ZM180.152 34.25C180.152 33.8367 180.069 33.4767 179.902 33.17C179.735 32.8633 179.509 32.63 179.222 32.47C178.942 32.3033 178.632 32.22 178.292 32.22C177.952 32.22 177.642 32.3 177.362 32.46C177.082 32.62 176.859 32.8533 176.692 33.16C176.525 33.4667 176.442 33.8267 176.442 34.24C176.442 34.66 176.525 35.0267 176.692 35.34C176.859 35.6467 177.082 35.8833 177.362 36.05C177.642 36.21 177.952 36.29 178.292 36.29C178.632 36.29 178.942 36.21 179.222 36.05C179.509 35.8833 179.735 35.6467 179.902 35.34C180.069 35.0267 180.152 34.6633 180.152 34.25ZM187.33 31.52L184.03 39.58H183.09L184.17 36.94L181.96 31.52H182.97L184.69 35.96L186.39 31.52H187.33ZM187.905 34.24C187.905 33.68 188.018 33.19 188.245 32.77C188.471 32.3433 188.781 32.0133 189.175 31.78C189.575 31.5467 190.018 31.43 190.505 31.43C190.985 31.43 191.401 31.5333 191.755 31.74C192.108 31.9467 192.371 32.2067 192.545 32.52V31.52H193.465V37H192.545V35.98C192.365 36.3 192.095 36.5667 191.735 36.78C191.381 36.9867 190.968 37.09 190.495 37.09C190.008 37.09 189.568 36.97 189.175 36.73C188.781 36.49 188.471 36.1533 188.245 35.72C188.018 35.2867 187.905 34.7933 187.905 34.24ZM192.545 34.25C192.545 33.8367 192.461 33.4767 192.295 33.17C192.128 32.8633 191.901 32.63 191.615 32.47C191.335 32.3033 191.025 32.22 190.685 32.22C190.345 32.22 190.035 32.3 189.755 32.46C189.475 32.62 189.251 32.8533 189.085 33.16C188.918 33.4667 188.835 33.8267 188.835 34.24C188.835 34.66 188.918 35.0267 189.085 35.34C189.251 35.6467 189.475 35.8833 189.755 36.05C190.035 36.21 190.345 36.29 190.685 36.29C191.025 36.29 191.335 36.21 191.615 36.05C191.901 35.8833 192.128 35.6467 192.295 35.34C192.461 35.0267 192.545 34.6633 192.545 34.25ZM198.062 37L195.912 34.58V37H195.002V29.6H195.912V33.95L198.022 31.52H199.292L196.712 34.25L199.302 37H198.062ZM199.809 34.24C199.809 33.68 199.922 33.19 200.149 32.77C200.376 32.3433 200.686 32.0133 201.079 31.78C201.479 31.5467 201.922 31.43 202.409 31.43C202.889 31.43 203.306 31.5333 203.659 31.74C204.012 31.9467 204.276 32.2067 204.449 32.52V31.52H205.369V37H204.449V35.98C204.269 36.3 203.999 36.5667 203.639 36.78C203.286 36.9867 202.872 37.09 202.399 37.09C201.912 37.09 201.472 36.97 201.079 36.73C200.686 36.49 200.376 36.1533 200.149 35.72C199.922 35.2867 199.809 34.7933 199.809 34.24ZM204.449 34.25C204.449 33.8367 204.366 33.4767 204.199 33.17C204.032 32.8633 203.806 32.63 203.519 32.47C203.239 32.3033 202.929 32.22 202.589 32.22C202.249 32.22 201.939 32.3 201.659 32.46C201.379 32.62 201.156 32.8533 200.989 33.16C200.822 33.4667 200.739 33.8267 200.739 34.24C200.739 34.66 200.822 35.0267 200.989 35.34C201.156 35.6467 201.379 35.8833 201.659 36.05C201.939 36.21 202.249 36.29 202.589 36.29C202.929 36.29 203.239 36.21 203.519 36.05C203.806 35.8833 204.032 35.6467 204.199 35.34C204.366 35.0267 204.449 34.6633 204.449 34.25ZM207.817 32.41C207.977 32.0967 208.203 31.8533 208.497 31.68C208.797 31.5067 209.16 31.42 209.587 31.42V32.36H209.347C208.327 32.36 207.817 32.9133 207.817 34.02V37H206.907V31.52H207.817V32.41ZM211.747 32.27V35.5C211.747 35.7667 211.804 35.9567 211.917 36.07C212.031 36.1767 212.227 36.23 212.507 36.23H213.177V37H212.357C211.851 37 211.471 36.8833 211.217 36.65C210.964 36.4167 210.837 36.0333 210.837 35.5V32.27H210.127V31.52H210.837V30.14H211.747V31.52H213.177V32.27H211.747ZM213.94 34.24C213.94 33.68 214.053 33.19 214.28 32.77C214.506 32.3433 214.816 32.0133 215.21 31.78C215.61 31.5467 216.053 31.43 216.54 31.43C217.02 31.43 217.436 31.5333 217.79 31.74C218.143 31.9467 218.406 32.2067 218.58 32.52V31.52H219.5V37H218.58V35.98C218.4 36.3 218.13 36.5667 217.77 36.78C217.416 36.9867 217.003 37.09 216.53 37.09C216.043 37.09 215.603 36.97 215.21 36.73C214.816 36.49 214.506 36.1533 214.28 35.72C214.053 35.2867 213.94 34.7933 213.94 34.24ZM218.58 34.25C218.58 33.8367 218.496 33.4767 218.33 33.17C218.163 32.8633 217.936 32.63 217.65 32.47C217.37 32.3033 217.06 32.22 216.72 32.22C216.38 32.22 216.07 32.3 215.79 32.46C215.51 32.62 215.286 32.8533 215.12 33.16C214.953 33.4667 214.87 33.8267 214.87 34.24C214.87 34.66 214.953 35.0267 215.12 35.34C215.286 35.6467 215.51 35.8833 215.79 36.05C216.07 36.21 216.38 36.29 216.72 36.29C217.06 36.29 217.37 36.21 217.65 36.05C217.936 35.8833 218.163 35.6467 218.33 35.34C218.496 35.0267 218.58 34.6633 218.58 34.25Z" fill="#333232"/>
<defs>
<clipPath id="clip0_2019_14">
<rect width="47" height="49" fill="white"/>
</clipPath>
</defs>
</svg>
